<svg xmlns="http://www.w3.org/2000/svg" viewBox="0 0 1711.14 1826.8"><defs><style>.cls-1{fill:none;}.cls-2{fill:#082241;}.cls-3{fill:#f6c14d;}.cls-4{fill:#f2b826;}</style></defs><title>Artboard 2</title><g id="Layer_3" data-name="Layer 3"><path class="cls-1" d="M858.35,273.82l164.24,44.89c-7-31.54-23.16-60.72-47.27-84.47-32.14-31.67-75.45-49.82-118.82-49.82-81.6,0-149.94,57.78-166.28,134.57l165.26-45.17A5.59,5.59,0,0,1,858.35,273.82Z"/><path class="cls-2" d="M221.46,1321.76c3.69-23.38,33.2-50.86,53.38-55.1a226.34,226.34,0,0,1,25.46-3.86q-11.81-22-21-43.33c-25.59-2.8-51.18-7.28-75.33-17.24-30.37-12.54-54.09-31.72-68.72-55.52a10.38,10.38,0,0,1-4.22-4.49l-.91-1.79c-2.27,46.37,12,93,24.81,134.72a11.11,11.11,0,0,1-2.28,10.22,9.92,9.92,0,0,1-8.83,3.68,548.69,548.69,0,0,1-114.7-25.74,396.57,396.57,0,0,0,189.3,179.84,9,9,0,0,1,2.15-.24,21.34,21.34,0,0,1,4.56.61l-1-23.2c-.31-7.15-.68-14.45-1-21.51-1.24-24.39-2.5-49.58-1.36-74.44A5.46,5.46,0,0,1,221.46,1321.76Z"/><path class="cls-2" d="M306,1273.21a219.45,219.45,0,0,0-29,4.08c-14.1,3-35.25,21.33-42.56,38.45,25.69,13.23,70.54,27.66,125.8,40.88A807.67,807.67,0,0,1,306,1273.21Z"/><path class="cls-2" d="M1436.3,1266.66c20.14,4.23,49.57,31.62,53.35,55,0,0,0,.06,0,.08a.11.11,0,0,1,0,0,.62.62,0,0,1,0,.13,3.29,3.29,0,0,1,0,.44c1.32,25.69,0,51.78-1.3,77-.35,6.88-.71,14-1,21l-1,23.11a14.45,14.45,0,0,1,6.33-.28,396.57,396.57,0,0,0,189.3-179.84,548.68,548.68,0,0,1-114.73,25.74,9.91,9.91,0,0,1-8.81-3.68,11.15,11.15,0,0,1-2.28-10.21c12.79-41.72,27.09-88.35,24.82-134.72l-.93,1.82a10.3,10.3,0,0,1-4.21,4.45c-14.63,23.8-38.34,43-68.71,55.52-23.27,9.6-47.87,14.1-72.52,16.93q-9.32,21.6-21.3,43.89A223.73,223.73,0,0,1,1436.3,1266.66Z"/><path class="cls-2" d="M1434.06,1277.29a221.08,221.08,0,0,0-26.38-3.88,818.78,818.78,0,0,1-58,88.41c60.88-15.61,101.24-32.37,127-45.91C1469.45,1298.75,1448.21,1280.26,1434.06,1277.29Z"/><path class="cls-3" d="M1489.66,1321.71a1.1,1.1,0,0,1,0,.18.62.62,0,0,0,0-.13A.11.11,0,0,0,1489.66,1321.71Z"/><path class="cls-2" d="M856.91,1792.82l25-17.14c20-13.71,103.68-72.26,201.3-155.33q-31.74,3-66.66,5.27C939,1688.82,876.72,1732.35,860,1743.85a5.47,5.47,0,0,1-6.16,0c-16.6-11.41-78.08-54.38-154.76-116.81q-33.5-1.68-65.34-4.09C730,1704.63,812.21,1762.11,832,1775.68Z"/><path class="cls-2" d="M688.14,330.82a170.17,170.17,0,0,0-1.65,23.6c0,5.62.29,11.18.82,16.67l168.17-46a5.55,5.55,0,0,1,2.86,0l167.36,45.74c.52-5.42.8-10.9.8-16.45a164.43,164.43,0,0,0-1.74-23.85L856.91,284.7Z"/><path class="cls-2" d="M377.34,1294.9c-53.88-80.55-81.19-153.79-81.19-217.68V482.14a5.42,5.42,0,0,1,4-5.24l320.7-87.65a239,239,0,0,1-3.05-38.08c0-.38,0-.75,0-1.13L257.52,448.51v628.71c0,83.76,40,178.57,119.14,283.2,18.72,4.24,38.47,8.33,58.93,12.17A962.9,962.9,0,0,1,377.34,1294.9Z"/><path class="cls-2" d="M1456.29,1077.22V448.5L1096,350c0,.38,0,.75,0,1.13a240.2,240.2,0,0,1-3,38.08l320.7,87.65a5.43,5.43,0,0,1,4,5.24v595.08c0,63.9-27.32,137.14-81.19,217.7a979.59,979.59,0,0,1-63.1,83.53q32.41-6,59.58-12.51C1414.92,1259.13,1456.29,1162.46,1456.29,1077.22Z"/><path class="cls-2" d="M688.74,382c13.2,80.68,83.4,142.45,167.76,142.45s154.68-61.88,167.79-142.67L856.91,336Z"/><path class="cls-2" d="M997.85,1626.76c-44,2.5-91.45,4-142.09,4q-72.21,0-138.36-2.86c66.89,53.85,120.46,91.68,139.51,104.87C876.1,1719.49,930.29,1681.22,997.85,1626.76Z"/><path class="cls-2" d="M1124.24,1220.53l-49.41,12.26a18.36,18.36,0,0,1,6.46,9c2,6.42.25,13.32-2.72,19.36a34.41,34.41,0,0,1,9-1.33,18,18,0,0,1,11.52,3.71c4.47,3.54,6.46,9,7.13,14.57l39.65-57.69v-41.63a21.54,21.54,0,0,1-7.22,1.23H1138a19.08,19.08,0,0,1-9.62-3.09v38.31A5.42,5.42,0,0,1,1124.24,1220.53Z"/><path class="cls-2" d="M1327.45,1288.88c52.65-78.74,79.35-150,79.35-211.66V486.29L1091,400c-22.6,108.52-119,190.3-234.09,190.3S645.41,508.5,622.82,400L307,486.29v590.93c0,61.7,26.7,132.91,79.36,211.64a979.07,979.07,0,0,0,65.92,86.79l4.35.77c87.45,15.37,227.67,33.68,399.12,33.68,174.19,0,304.33-12.11,400.87-28.67Q1297.47,1333.67,1327.45,1288.88ZM662.8,734.51a5.43,5.43,0,0,1,5-3.35h36.71a5.44,5.44,0,0,1,2.68.7,12.67,12.67,0,0,1,3.2,2.74,5.45,5.45,0,0,1-1.4,8.18c-4,2.33-8,4.77-11.84,7.12s-7.46,4.52-11.21,6.74a5.42,5.42,0,0,1-6.61-.84L664,740.43A5.44,5.44,0,0,1,662.8,734.51ZM503.33,1299.88a5.42,5.42,0,0,1-5,3.35H461.6a5.35,5.35,0,0,1-2.68-.71,12.27,12.27,0,0,1-3.2-2.74,5.45,5.45,0,0,1,1.4-8.18c3.95-2.32,7.95-4.75,11.82-7.1s7.48-4.53,11.23-6.75a5.44,5.44,0,0,1,6.61.83L502.16,1294A5.44,5.44,0,0,1,503.33,1299.88Zm233.75-78.7-26,26a5.49,5.49,0,0,1-2.4,1.39,11.61,11.61,0,0,1-3,.37c-.36,0-.75,0-1.17-.05a5.43,5.43,0,0,1-4.79-6.77c1.3-5,3.93-9.75,6.48-14.32,2.32-4.18,4.52-8.11,5.46-11.78a5.43,5.43,0,0,1,5.26-4.08h16.31a5.43,5.43,0,0,1,3.84,9.27Zm483.72-64.1a460.64,460.64,0,0,1-52.63-5.31l-.1.28c-2.6,6.6-6.29,13.82-11.33,19.27v50.81a5.47,5.47,0,0,1-1,3.08l-52.43,76.3a5.41,5.41,0,0,1-4.48,2.36,5.34,5.34,0,0,1-2.32-.53,5.42,5.42,0,0,1-2.89-6.42c1.81-6.32,3.89-20.72-1.32-24.83-1.9-1.5-8.35-3.86-27,6.69a5.43,5.43,0,0,1-6.54-8.55c4-4,14.66-17.2,12.13-25.09-1.58-4.93-8.93-7.17-14.82-8.18a5.44,5.44,0,0,1-.38-10.63L1117.5,1211v-44.84q-7.62-10.47-15-29c-.79-2-1.56-4-2.29-6q-6.78-3.35-13.06-7.08c-8.89,3-17.93,5-26.3,5a39.6,39.6,0,0,1-14.61-2.55c-4.19-1.17-50.39-14.17-80.74-27-1.54,2-2.27,3.86-2.12,5.52.4,4.27,6.23,8.52,11.9,11.51l7.61-3.63c6.72-3.19,15.24,1.15,19.39,9.88s2.14,18.07-4.57,21.27l-2.55,1.21a29,29,0,0,1-51.39,24.44l-.53.26a10.85,10.85,0,0,1-4.69,1,13.48,13.48,0,0,1-6.94-2,20.71,20.71,0,0,1-7.76-8.88c-4.16-8.73-2.15-18.07,4.57-21.27l5.52-2.62a41.21,41.21,0,0,1-4.07-1.46c-11.06-4.7-18.88-13.8-23.22-27a35.94,35.94,0,0,1,.25-24.35L884,1094.34a16.3,16.3,0,0,1-14-29.43l19.16-9.11L856.91,988l-32.25,67.8,19.15,9.11a16.3,16.3,0,1,1-14,29.43l-3.77-1.79a27.3,27.3,0,0,1,.85,20.28c-8,24.49-28.81,25.84-44.22,23L781.4,1138l3.6,1.72a12.22,12.22,0,0,1,6.6,9.42,19.72,19.72,0,0,1-1.83,11.44h0a19.75,19.75,0,0,1-7.71,8.64,13.51,13.51,0,0,1-6.7,1.88,11.08,11.08,0,0,1-4.78-1.06l-.53-.26a28.89,28.89,0,0,1-35.81,9,29,29,0,0,1-15.58-33.47l-2.55-1.21c-6.72-3.2-8.81-12.36-4.77-20.86a19.75,19.75,0,0,1,7.71-8.64,12.29,12.29,0,0,1,11.48-.82l3.61,1.72,5.15-13.31c-1.89-1.36-4.17-2.92-6.09-4.24-7.06-4.83-15.06-10.32-19.65-15.19-6.73-7.13-22.93-17.68-27.74-20.74-2.94-1.87-7-4.88-9.42-8.6-1.73-2.6-4.48-6.76-4.18-12.12-2-2.79-7.79-9.19-15.88-17.8A26.29,26.29,0,0,1,645,1034.72a26.17,26.17,0,0,1,21.35,25.69,25.33,25.33,0,0,1-.49,5,26.11,26.11,0,0,1-8.16,50.79,25.83,25.83,0,0,1,.44,4.75,26.1,26.1,0,0,1-11.39,21.55c-6.3,23.46-10.55,43.35-9.4,48.35,6,6.28,21.3,14.92,30.33,18.87,6.4,2.8,12.21,1.72,17.06.3a12.26,12.26,0,0,1,5.74-.36,5.43,5.43,0,0,1,4.28,6.7c-.95,3.69-1.87,7.4-2.79,11.11q-1.28,5.18-2.59,10.36a5.45,5.45,0,0,1-3.42,3.76,6.93,6.93,0,0,1-2.74,4.56,10,10,0,0,1-6.13,2.36q-4.1,0-8.24-4.14c-1.38-1.37-9.53-6.71-15.48-10.61-5-3.28-10.18-6.67-13.9-9.3-8-5.64-26-12.76-31.31-14.81-3.25-1.25-7.79-3.4-10.94-6.55-2.49-2.49-6.66-6.66-6.66-13.17,0-.84.16-4.82.41-10.72a26.11,26.11,0,0,1-20.83,10.39,25.53,25.53,0,0,1-5.59-.61,26.09,26.09,0,0,1-40.24,8.13,26.09,26.09,0,0,1-37.93-4.37,25.88,25.88,0,0,1-9.57,1.82c-.46,0-.91,0-1.36-.07-12.91,8-22.27,14.55-24.23,17.68-.2,8.68,4.51,25.61,8.1,34.78,2.55,6.51,7.42,9.86,11.85,12.27a12.29,12.29,0,0,1,4.31,3.81,5.43,5.43,0,0,1-1.7,7.77c-3.29,1.94-6.56,3.91-9.84,5.88-3,1.84-6.09,3.67-9.15,5.49a5.44,5.44,0,0,1-5.09.24,6.67,6.67,0,0,1-4.11,1.35,9.2,9.2,0,0,1-1-.06c-5.91-.74-8.91-4.58-8.91-11.42,0-1.94-2-11.48-3.44-18.45-1.22-5.86-2.48-11.92-3.25-16.4-1.67-9.65-9.35-27.4-11.67-32.61-1.41-3.19-3.1-7.92-3.1-12.38,0-3.52,0-9.4,4.6-14,.71-.7,4.64-4.34,10.35-9.57a26.13,26.13,0,0,1-12.48-22.27,25.36,25.36,0,0,1,.17-3,26,26,0,0,1-6.34-.93,26,26,0,0,1-11.17,2.53A26.3,26.3,0,0,1,374,1126.08a25.92,25.92,0,0,1-3.62-.34,26.3,26.3,0,0,1-11-47.32,26,26,0,0,1,16.65-4.89c0-.26.07-.51.11-.76a26.32,26.32,0,0,1,30.23-21.67c.5.08,1,.21,1.49.32a25.75,25.75,0,0,1-1.57-8.86,26.17,26.17,0,0,1,23.06-25.95,26.15,26.15,0,0,1,24.45-34,24.55,24.55,0,0,1-.29-3.84,26.18,26.18,0,0,1,17.6-24.7,26.1,26.1,0,0,1,7.79-32.64,26.13,26.13,0,0,1,.49-36.73,26.18,26.18,0,0,1-10.19-31.47A26.12,26.12,0,0,1,453,813.57a26.11,26.11,0,0,1-10.48-41.36,26.12,26.12,0,0,1,3.81-48.07,26.1,26.1,0,0,1,29.59-37.62,26.13,26.13,0,0,1,44.55-16.17,26.08,26.08,0,0,1,41.76.91,26.12,26.12,0,0,1,36.31,37.41c9,4.7,19.77,10.4,31.73,16.73,10.71,5.67,17.21,11.05,21.07,17.45,4.59,7.61,5.22,16.48,1.93,27.12-6.12,19.74-17.94,26.54-31.53,28.21a26.17,26.17,0,0,1,9.48,14.93,26.08,26.08,0,0,1,33.66,10.28,25.83,25.83,0,0,1,7.42-1.09,26.16,26.16,0,0,1,24.57,17.26c10.83-6.83,18.5-12.39,20.25-15.19.2-8.68-4.51-25.61-8.11-34.78-2.54-6.51-7.42-9.86-11.85-12.28a12.34,12.34,0,0,1-4.31-3.8,5.45,5.45,0,0,1,1.71-7.77c3.26-1.93,6.52-3.89,9.78-5.85q4.59-2.77,9.21-5.52a5.42,5.42,0,0,1,5.08-.24,6.86,6.86,0,0,1,5.16-1.29c5.91.74,8.9,4.58,8.9,11.42,0,1.94,2,11.47,3.44,18.43,1.22,5.87,2.49,11.93,3.26,16.42,1.66,9.65,9.35,27.4,11.66,32.61,1.42,3.19,3.11,7.92,3.11,12.38,0,3.52,0,9.4-4.61,14-1.61,1.6-20,18.46-38,34.83a26.07,26.07,0,0,1-2.6,44.09,26.1,26.1,0,0,1-9.47,41.43c11,34.39,20.66,63.62,22.72,67.22,4.3,7.3,18,19.23,26.29,25a19.81,19.81,0,0,0,2.46,1.48l5-13-18.49-8.8a16.3,16.3,0,1,1,14-29.43l19.15,9.11,53.16-111.76L716,691.76c-8.72-18.32-8.22-34.13-6.27-44.16a54.39,54.39,0,0,1,6.67-18.05l.06-.07.06-.09.16-.2c.08-.1.15-.2.24-.3l.22-.22.3-.29.22-.17L718,628l.22-.12a3.23,3.23,0,0,1,.41-.22l.23-.1.42-.16.28-.07.4-.1.34,0,.37,0h.63l.1,0h.1a54.67,54.67,0,0,1,18.21,6.21c9,4.82,21.59,14.4,30.3,32.73l86.87,182.63,86.86-182.63c8.72-18.33,21.29-27.91,30.3-32.73a54.69,54.69,0,0,1,18.22-6.21h.1l.1,0h.64l.31,0,.41.06.27.06c.14,0,.29.07.43.12a2.18,2.18,0,0,1,.23.09,3.25,3.25,0,0,1,.43.18l.22.11.39.23.23.17.34.25.23.23.27.27.23.27c0,.08.12.14.17.22l.05.09.06.07c.19.28,4.53,7,6.68,18.05,1.95,10,2.45,25.84-6.27,44.16L890,918.35l53.15,111.75,19.16-9.11a16.3,16.3,0,0,1,14,29.43l-10.44,5c32.48,15.25,59.3,23.14,74.87,26.92-13-17.65-23-38.75-30.59-63.89-8.1-27-5.16-61.63,8.75-102.92a401.16,401.16,0,0,1,27.77-63l.06-.1c1.53-2.8-1.81-10.86-7.83-20.15a150.05,150.05,0,0,1-28.08,7.07,109.16,109.16,0,0,1-16.14,1.35c-7.07,0-13.94-1-18.79-3.86-7.61-4.54-12.11-13.84-10.48-21.62A11.94,11.94,0,0,1,976,805.35c14.31-1.77,29.86-6.67,32-10.07a43.4,43.4,0,0,0,3.26-7.51c.61-1.7,1.32-3.62,2.2-5.49-.06-1-.1-2.09-.1-3.14a58,58,0,0,1,116,0c0,1.64-.08,3.32-.24,5.13-.19,4.3-.33,10.71-.39,17.9a166.64,166.64,0,0,1,14.09-20.7c14.05-17.61,23-36,27.28-56.27,4.85-22.78,3.8-47.35-3.21-75.11-3-12-5.43-21-7.19-27.53-4.45-16.61-5.38-20.07-2.84-23.66,2-2.8,5-3,7-3.21.69-.05,1.42-.11,2.2-.24,5.12-.85,14.92,1.07,25.71,9.31s23.89,23.83,31.08,53a203.9,203.9,0,0,0,2.6-49.89,5.44,5.44,0,0,1,5.25-5.79c1.29,0,26.22-.21,36.62,46.92,13.1-30.54,15.63-48,15.68-48.34a5.43,5.43,0,0,1,10.48-1.17c16.61,45.08,1.09,104.65-9.87,136.69a282.73,282.73,0,0,0,31.46-38.47,5.44,5.44,0,0,1,9.61.92c9.94,24.71,4.16,55.68-16.73,89.57a252.48,252.48,0,0,1-22.37,30.59c22.7-5.29,36.62-9.77,36.79-9.83a5.44,5.44,0,0,1,6.46,2.6c6,11.14,6.6,30-24.56,56.77a235.8,235.8,0,0,1-26.45,19.39c10.53,3.6,22.82,9.9,23.18,19.76.39,10.6-12.49,19.65-41.47,28.9,7.3,6.74,15.45,16.67,12,25.18-3.62,8.94-17.35,11.63-44.18,8.53.33,8.89-.78,23.36-10.69,28.83-6,3.3-13.58,2.58-23-2.19,19.28,48.28,77.7,63.33,109.83,71.6,17.29,4.45,24.44,6.29,24.34,13.09-.1,7.63-6.39,13-13.62,16.75l16.24,3.1a5.44,5.44,0,0,1,4.38,6c-1.3,11.35-15.09,17.22-28.82,20.26l7.12,2a5.43,5.43,0,0,1,3.73,6.68c-1.28,4.6-5,8.49-10.92,11.55-15.66,8-44.68,9.73-66.24,9.73C1232.26,1157.5,1225.62,1157.29,1220.8,1157.08Z"/><path class="cls-2" d="M953.75,1071.48c3,5.91,16.63,7.58,22.78,7.45h.11a5.43,5.43,0,0,1,2.62,10.19c-1.57.87-3,1.73-4.38,2.59,19.53,7.81,44.37,15.6,59.86,20.23-.36-5.23,1.47-11.39,5.5-18.55-16.74-3.91-47.55-12.76-85.38-31.24C953,1066.07,952.62,1069.27,953.75,1071.48Z"/><path class="cls-2" d="M1153.16,852.73c-4.71-31.45,9.92-47.13,12.28-49.42,48.27-55.2,77-102,93.89-136.74-4.27-35.57-15.6-47.56-22.58-51.59,1.43,43.45-9.62,68.89-10.12,70a5.43,5.43,0,0,1-10.37-1.65c-4.5-43.71-21.36-62.58-31-69.94-8.22-6.28-15.23-7.59-17.34-7.23-.4.07-.78.12-1.14.17.62,2.86,1.88,7.58,3.44,13.41,1.77,6.6,4.2,15.65,7.23,27.68,14,55.26,5.41,101.32-26.11,140.82a161.41,161.41,0,0,0-22.43,38.11c.25,10.43.77,19.67,1.68,24.08.83,4,5.45,12.47,11.3,23.22,3,5.56,6.54,12,10.35,19.36C1155.44,883.24,1155.74,869.93,1153.16,852.73Z"/><path class="cls-2" d="M1045.63,1111.83c.22,1.39.91,3.16,4.36,4.58,6.35,2.62,14.93,2.58,25.36,0a154.52,154.52,0,0,1-23.69-20.89C1047.42,1102.08,1045,1107.85,1045.63,1111.83Z"/><path class="cls-4" d="M1039.19,820.34c.68-.32,2.76-1.31,2.81-6.17.1-8.19-5.37-17.55-7.66-18.89-5.08-1.11-8.9-4.54-11.43-7.64-.52,1.27-1,2.7-1.47,3.85a50.39,50.39,0,0,1-4.26,9.58c-6.72,10.67-36.49,14.65-39.86,15.07-.62.07-1,.18-1.23,1.25-.54,2.54,1,7.45,5.41,10.05s14.82,3.07,27.72,1.11S1033.79,822.92,1039.19,820.34Z"/><path class="cls-3" d="M1074.61,787.24a10.53,10.53,0,1,0-10.53-10.53A10.52,10.52,0,0,0,1074.61,787.24Z"/><path class="cls-2" d="M1278.71,1119.84c16.77-.49,34.82-4.16,42.12-9.37l-29-5.55a5.43,5.43,0,0,1,0-10.67c10.3-2,21.65-6.67,24.55-11-3.26-1.24-9.68-2.89-15.48-4.39-16.93-4.36-42.51-10.94-65.9-23.8-28.46-15.64-46.75-36.88-54.35-63.15-.46-1.58-.93-3.15-1.39-4.7l-.61-.47c-5.15,11.38-16.66,31.89-32.74,32h-.18c-13.36,0-25-13.48-35.57-41.18a5.41,5.41,0,0,1,2.81-6.85c.11,0,.21-.12.33-.17a5.44,5.44,0,0,1,7,3.14c11.33,29.7,20.78,34.19,25.44,34.19h.06c10.61-.1,21.77-21.53,25.51-31.89a5.44,5.44,0,0,1,8.66-2.27c21.67,18.7,29.59,16.72,31.5,15.67,5.73-3.17,5.54-18.32,4.57-24.75a5.43,5.43,0,0,1,6.12-6.19c35.88,5,39.34-.93,39.36-1,1-2.36-6.59-11.77-16.44-19a5.44,5.44,0,0,1,1.71-9.61c43.23-12.41,43.43-20.68,43.41-21-.13-3.76-13.32-10-27.12-13a5.43,5.43,0,0,1-1.5-10.08c19.1-10.48,64.49-41.21,59.28-64-8.06,2.4-25.61,7.3-49.71,12.29a5.44,5.44,0,0,1-4.9-9.21c.65-.63,60.86-60.35,51.41-110.89a304.73,304.73,0,0,1-44.05,47.68,5.43,5.43,0,0,1-8.53-6.3c.36-.82,31.82-73,23.37-130.58a324.22,324.22,0,0,1-14,36.26c-15,33.14-44.64,86.17-101,150.59-.14.16-.29.31-.45.46-.51.47-13.19,12.67-9.09,40,4.21,28.08,1.37,47-8.94,59.39-7.72,9.31-19.46,14.32-34.9,14.89a.46.46,0,0,1-.2,0,84.25,84.25,0,0,1-17.31-2.14,52,52,0,0,1-13.79-5.13c-5.4-3-9.22-7-11.4-11.76a5.43,5.43,0,0,1,9.89-4.51c4.68,10.28,25.45,12.64,32.52,12.67,11.8-.46,20.35-3.78,26.08-10.12-5-9.95-9.68-18.5-13.53-25.56-6.77-12.44-11.24-20.66-12.39-26.23-2.72-13.18-2.19-56.89-1.65-69,0-.08,0-.16,0-.24.13-1.52.2-2.93.2-4.28a47.15,47.15,0,0,0-94-4.88,9.83,9.83,0,0,1,1,.2,5.41,5.41,0,0,1,3.59,2.89c.83,1.67,4,6.59,7.65,7.33,8.43,1.72,14.75,16.18,15.9,25.52.86,7-.66,12.75-4.21,16.6,6.67,10.38,12.26,22.77,7.89,30.78l-.06.1a390.63,390.63,0,0,0-27,61.29c-13.18,39.11-16.09,71.52-8.64,96.32,9.09,30.32,21.8,54.08,38.85,72.64a147.72,147.72,0,0,0,35.6,28.21c-3.31-10.45-5.21-18.1-5.33-18.61a5.43,5.43,0,1,1,10.55-2.59s.35,1.4,1,3.7a333.73,333.73,0,0,0,11.4,34.61c3.33,8.35,15,35.62,25.66,35.93h.32c15.52,0,24.06-33.26,25.84-45a5.86,5.86,0,0,1,.3-1.13,5.43,5.43,0,0,1,10.44,2.76,135.57,135.57,0,0,1-3.54,15.58c49.25,7.78,108.61,7.41,129.43-3.28.32-.17.63-.33.92-.5l-24.65-7.12a5.43,5.43,0,0,1,1.35-10.65ZM1165.74,930a5.42,5.42,0,0,1,6.93-1.49,6.82,6.82,0,0,1,.68.41c12,9,16.51,9.4,17.4,9.32,1.67-3.17-1.72-17.2-7.19-29.72l-.36-.84a5.43,5.43,0,0,1,5-7.64,5.6,5.6,0,0,1,1.21.13c26.48,6.15,32,3.1,32.67,2.6.39-3.33-8.78-14.84-21.6-25.28l-.78-.65a5.44,5.44,0,0,1,3.6-9.67c.94,0,1.86,0,2.78,0,9.72-.08,18.29-2.35,19-4.49,0,0,.71-3.52-9.83-12.34-2.46-2.07-5.53-4.42-9.37-7.09a5.42,5.42,0,0,1-.62-8.41c.21-.2,21.08-20,36.1-43.79a5.43,5.43,0,1,1,9.19,5.8,241.55,241.55,0,0,1-22.16,29.36l-7.86,14.43c16.3,13.18,16.44,20.77,14.86,25.49-2.34,7-10.75,10-18.67,11.16,9.5,9.13,19.4,21.48,15.14,30.24-3.61,7.45-14.22,9.16-34.82,5.33,4.32,11.89,8.12,27.85.49,33.94a10.68,10.68,0,0,1-6.86,2.29c-7.34,0-16.28-5.84-23.83-11.51A5.44,5.44,0,0,1,1165.74,930ZM1064.08,776.71a10.53,10.53,0,1,1,10.53,10.53A10.52,10.52,0,0,1,1064.08,776.71Z"/><path class="cls-2" d="M1217.34,838.21c1.12.85,2.17,1.68,3.17,2.49l7.86-14.43C1224,831.25,1220.15,835.35,1217.34,838.21Z"/><path class="cls-4" d="M1205.86,843.31c3.84,2.67,6.91,5,9.37,7.09,10.54,8.82,9.84,12.31,9.83,12.34-.71,2.14-9.28,4.41-19,4.49-.92,0-1.84,0-2.78,0a5.44,5.44,0,0,0-3.6,9.67l.78.65c12.82,10.44,22,22,21.6,25.28-.68.5-6.19,3.55-32.67-2.6a5.6,5.6,0,0,0-1.21-.13,5.43,5.43,0,0,0-5,7.64l.36.84c5.47,12.52,8.86,26.55,7.19,29.72-.89.08-5.36-.27-17.4-9.32a6.82,6.82,0,0,0-.68-.41,5.42,5.42,0,0,0-5.85,9.1c7.55,5.67,16.49,11.51,23.83,11.51a10.68,10.68,0,0,0,6.86-2.29c7.63-6.09,3.83-22.05-.49-33.94,20.6,3.83,31.21,2.12,34.82-5.33,4.26-8.76-5.64-21.11-15.14-30.24,7.92-1.2,16.33-4.16,18.67-11.16,1.58-4.72,1.44-12.31-14.86-25.49-1-.81-2-1.64-3.17-2.49,2.81-2.86,6.68-7,11-11.94a241.55,241.55,0,0,0,22.16-29.36,5.43,5.43,0,1,0-9.19-5.8c-15,23.81-35.89,43.59-36.1,43.79a5.42,5.42,0,0,0,.62,8.41Z"/><polygon class="cls-2" points="884.02 931 876.48 946.85 920.7 1039.82 933 1033.97 884.02 931"/><path class="cls-2" d="M731.07,641.13,843.35,877.19l7.54-15.85L760.23,670.73C751.89,653.19,739.76,645,731.07,641.13Z"/><path class="cls-4" d="M720,627.18l.34,0Z"/><path class="cls-4" d="M720.7,627.1h0Z"/><path class="cls-4" d="M718.66,627.61l.23-.1Z"/><path class="cls-4" d="M716.53,629.39l-.06.09.22-.29Z"/><path class="cls-4" d="M716.93,628.89l.22-.22Z"/><path class="cls-4" d="M718,628l.22-.12Z"/><path class="cls-4" d="M717.45,628.38l.22-.17Z"/><path class="cls-4" d="M719.31,627.35l.28-.07Z"/><polygon class="cls-2" points="862.92 975.35 898.59 1050.34 910.89 1044.49 870.47 959.5 862.92 975.35"/><path class="cls-2" d="M725.82,687.09l104,218.6,7.54-15.85-116.07-244C718.74,655,717.48,669.55,725.82,687.09Z"/><path class="cls-2" d="M974.25,1033.38a5.43,5.43,0,0,0-4.91-3.1,5.52,5.52,0,0,0-2.33.52l-92.34,43.93a5.43,5.43,0,0,0-2.57,7.23h0a5.43,5.43,0,0,0,7.23,2.57l40.42-19.22c14.06-12.91,33-19.22,34-19.56a5.44,5.44,0,0,1,5.08.94l12.8-6.08A5.44,5.44,0,0,0,974.25,1033.38Z"/><path class="cls-2" d="M933.66,1155.51h0c1.74,3.66,4.32,4.87,4.93,4.73l4.94-2.35h0l42.5-20.22h0l7-3.32c.44-.37,1.17-3.13-.58-6.79-1.65-3.49-4.1-4.73-4.83-4.73h-.09l-.85.4a5.35,5.35,0,0,1,.4,1.7,5.41,5.41,0,0,1-3.05,5.25,93,93,0,0,1-28.53,7.88l-22.42,10.67C932.64,1149.09,931.92,1151.85,933.66,1155.51Z"/><path class="cls-2" d="M953.87,1165a18.1,18.1,0,0,0,31.19-14.84Z"/><path class="cls-2" d="M935.24,1108.17a5.43,5.43,0,0,1-3.44-9.64c6.7-5.47,15.93-9.64,23.62-12.47-4.71-2-9-5-11.36-9.64q-3.18-6.26-.83-14.2a86.57,86.57,0,0,0-11.08,6.92c-14.27,10.59-19.37,22.46-15.17,35.27,3.36,10.27,9,16.95,17.14,20.41,10.86,4.61,24,2.55,33.29-.09-6.86-4-14.06-10.24-14.85-18.6a16.68,16.68,0,0,1,1.11-7.69,63.71,63.71,0,0,0-15,8.51A5.42,5.42,0,0,1,935.24,1108.17Z"/><path class="cls-4" d="M1330.57,1101.27l-16.24-3.1c7.23-3.71,13.52-9.12,13.62-16.75.1-6.8-7-8.64-24.34-13.09-32.13-8.27-90.55-23.32-109.83-71.6,9.37,4.77,17,5.49,23,2.19,9.91-5.47,11-19.94,10.69-28.83,26.83,3.1,40.56.41,44.18-8.53,3.45-8.51-4.7-18.44-12-25.18,29-9.25,41.86-18.3,41.47-28.9-.36-9.86-12.65-16.16-23.18-19.76a235.8,235.8,0,0,0,26.45-19.39c31.16-26.74,30.55-45.63,24.56-56.77a5.44,5.44,0,0,0-6.46-2.6c-.17.06-14.09,4.54-36.79,9.83A252.48,252.48,0,0,0,1308,788.2c20.89-33.89,26.67-64.86,16.73-89.57a5.44,5.44,0,0,0-9.61-.92,282.73,282.73,0,0,1-31.46,38.47c11-32,26.48-91.61,9.87-136.69a5.43,5.43,0,0,0-10.48,1.17c0,.37-2.58,17.8-15.68,48.34-10.4-47.13-35.33-47-36.62-46.92a5.44,5.44,0,0,0-5.25,5.79,203.9,203.9,0,0,1-2.6,49.89c-7.19-29.17-20.28-44.77-31.08-53s-20.59-10.16-25.71-9.31c-.78.13-1.51.19-2.2.24-2,.17-5.07.41-7,3.21-2.54,3.59-1.61,7.05,2.84,23.66,1.76,6.58,4.17,15.58,7.19,27.53,7,27.76,8.06,52.33,3.21,75.11-4.31,20.26-13.23,38.66-27.28,56.27a166.64,166.64,0,0,0-14.09,20.7c.06-7.19.2-13.6.39-17.9.16-1.81.24-3.49.24-5.13a58,58,0,0,0-116,0c0,1.05,0,2.1.1,3.14-.88,1.87-1.59,3.79-2.2,5.49a43.4,43.4,0,0,1-3.26,7.51c-2.14,3.4-17.69,8.3-32,10.07a11.94,11.94,0,0,0-10.53,9.81c-1.63,7.78,2.87,17.08,10.48,21.62,4.85,2.89,11.72,3.86,18.79,3.86a109.16,109.16,0,0,0,16.14-1.35,150.05,150.05,0,0,0,28.08-7.07c6,9.29,9.36,17.35,7.83,20.15l-.06.1a401.16,401.16,0,0,0-27.77,63c-13.91,41.29-16.85,75.91-8.75,102.92,7.54,25.14,17.57,46.24,30.59,63.89-15.57-3.78-42.39-11.67-74.87-26.92l10.44-5a16.3,16.3,0,0,0-14-29.43l-19.16,9.11-22.11,10.52-31.92,15.18L870,1064.91a16.3,16.3,0,1,0,14,29.43l22.9-10.89a35.94,35.94,0,0,0-.25,24.35c4.34,13.23,12.16,22.33,23.22,27a41.21,41.21,0,0,0,4.07,1.46l-5.52,2.62c-6.72,3.2-8.73,12.54-4.57,21.27a20.71,20.71,0,0,0,7.76,8.88,13.48,13.48,0,0,0,6.94,2,10.85,10.85,0,0,0,4.69-1l.53-.26a29,29,0,0,0,51.39-24.44l2.55-1.21c6.71-3.2,8.72-12.54,4.57-21.27s-12.67-13.07-19.39-9.88l-7.61,3.63c-5.67-3-11.5-7.24-11.9-11.51-.15-1.66.58-3.53,2.12-5.52,30.35,12.84,76.55,25.84,80.74,27a39.6,39.6,0,0,0,14.61,2.55c8.37,0,17.41-2,26.3-5q6.27,3.75,13.06,7.08c.73,2,1.5,4,2.29,6q7.41,18.55,15,29V1211l-61.76,15.32a5.44,5.44,0,0,0,.38,10.63c5.89,1,13.24,3.25,14.82,8.18,2.53,7.89-8.18,21.09-12.13,25.09a5.43,5.43,0,0,0,6.54,8.55c18.64-10.55,25.09-8.19,27-6.69,5.21,4.11,3.13,18.51,1.32,24.83a5.42,5.42,0,0,0,2.89,6.42,5.34,5.34,0,0,0,2.32.53,5.41,5.41,0,0,0,4.48-2.36l52.43-76.3a5.47,5.47,0,0,0,1-3.08v-50.81c5-5.45,8.73-12.67,11.33-19.27l.1-.28a460.64,460.64,0,0,0,52.63,5.31c4.82.21,11.46.42,19,.42,21.56,0,50.58-1.69,66.24-9.73,6-3.06,9.64-7,10.92-11.55a5.43,5.43,0,0,0-3.73-6.68l-7.12-2c13.73-3,27.52-8.91,28.82-20.26A5.44,5.44,0,0,0,1330.57,1101.27Zm-451.24-16.74a5.43,5.43,0,0,1-7.23-2.57h0a5.43,5.43,0,0,1,2.57-7.23L967,1030.8a5.52,5.52,0,0,1,2.33-.52,5.43,5.43,0,0,1,2.34,10.33l-12.8,6.08a5.44,5.44,0,0,0-5.08-.94c-1,.34-20,6.65-34,19.56Zm104.86,74.21a18.11,18.11,0,0,1-30.32,6.26l31.19-14.84A18,18,0,0,1,984.19,1158.74Zm-.15-28.56a5.41,5.41,0,0,0,3.05-5.25,5.35,5.35,0,0,0-.4-1.7l.85-.4h.09c.73,0,3.18,1.24,4.83,4.73,1.75,3.66,1,6.42.58,6.79l-7,3.32h0l-42.5,20.22h0l-4.94,2.35c-.61.14-3.19-1.07-4.93-4.73h0c-1.74-3.66-1-6.42-.57-6.78l22.42-10.67A93,93,0,0,0,984,1130.18Zm-16.63-5.45c-9.3,2.64-22.43,4.7-33.29.09-8.17-3.46-13.78-10.14-17.14-20.41-4.2-12.81.9-24.68,15.17-35.27a86.57,86.57,0,0,1,11.08-6.92q-2.34,7.93.83,14.2c2.36,4.63,6.65,7.66,11.36,9.64-7.69,2.83-16.92,7-23.62,12.47a5.43,5.43,0,0,0,6.87,8.42,63.71,63.71,0,0,1,15-8.51,16.68,16.68,0,0,0-1.11,7.69C953.35,1114.49,960.55,1120.68,967.41,1124.73Zm67.33-12.79c-15.49-4.63-40.33-12.42-59.86-20.23,1.36-.86,2.81-1.72,4.38-2.59a5.43,5.43,0,0,0-2.62-10.19h-.11c-6.15.13-19.78-1.54-22.78-7.45-1.13-2.21-.73-5.41,1.11-9.33,37.83,18.48,68.64,27.33,85.38,31.24C1036.21,1100.55,1034.38,1106.71,1034.74,1111.94Zm116.59-323.69c31.52-39.5,40.06-85.56,26.11-140.82-3-12-5.46-21.08-7.23-27.68-1.56-5.83-2.82-10.55-3.44-13.41.36-.05.74-.1,1.14-.17,2.11-.36,9.12,1,17.34,7.23,9.65,7.36,26.51,26.23,31,69.94a5.43,5.43,0,0,0,10.37,1.65c.5-1.12,11.55-26.56,10.12-70,7,4,18.31,16,22.58,51.59-16.94,34.7-45.62,81.54-93.89,136.74-2.36,2.29-17,18-12.28,49.42,2.58,17.2,2.28,30.51-.93,40.29-3.81-7.33-7.32-13.8-10.35-19.36-5.85-10.75-10.47-19.24-11.3-23.22-.91-4.41-1.43-13.65-1.68-24.08A161.41,161.41,0,0,1,1151.33,788.25Zm-142.11,40.3c-12.9,2-23.27,1.55-27.72-1.11s-6-7.51-5.41-10.05c.22-1.07.61-1.18,1.23-1.25,3.37-.42,33.14-4.4,39.86-15.07a50.39,50.39,0,0,0,4.26-9.58c.42-1.15.95-2.58,1.47-3.85,2.53,3.1,6.35,6.53,11.43,7.64,2.29,1.34,7.76,10.7,7.66,18.89,0,4.86-2.13,5.85-2.81,6.17C1033.79,822.92,1022.11,826.59,1009.22,828.55ZM1050,1116.41c-3.45-1.42-4.14-3.19-4.36-4.58-.63-4,1.79-9.75,6-16.33a154.52,154.52,0,0,0,23.69,20.89C1064.92,1119,1056.34,1119,1050,1116.41Zm95.88,104-39.65,57.69c-.67-5.6-2.66-11-7.13-14.57a18,18,0,0,0-11.52-3.71,34.41,34.41,0,0,0-9,1.33c3-6,4.77-12.94,2.72-19.36a18.36,18.36,0,0,0-6.46-9l49.41-12.26a5.42,5.42,0,0,0,4.13-5.27V1177A19.08,19.08,0,0,0,1138,1180h.66a21.54,21.54,0,0,0,7.22-1.23Zm132.84-100.61a5.43,5.43,0,0,0-1.35,10.65l24.65,7.12c-.29.17-.6.33-.92.5-20.82,10.69-80.18,11.06-129.43,3.28a135.57,135.57,0,0,0,3.54-15.58,5.43,5.43,0,0,0-10.44-2.76,5.86,5.86,0,0,0-.3,1.13c-1.78,11.74-10.32,45-25.84,45h-.32c-10.62-.31-22.33-27.58-25.66-35.93a333.73,333.73,0,0,1-11.4-34.61c-.62-2.3-1-3.65-1-3.7a5.43,5.43,0,1,0-10.55,2.59c.12.51,2,8.16,5.33,18.61a147.72,147.72,0,0,1-35.6-28.21c-17-18.56-29.76-42.32-38.85-72.64-7.45-24.8-4.54-57.21,8.64-96.32a390.63,390.63,0,0,1,27-61.29l.06-.1c4.37-8-1.22-20.4-7.89-30.78,3.55-3.85,5.07-9.62,4.21-16.6-1.15-9.34-7.47-23.8-15.9-25.52-3.64-.74-6.82-5.66-7.65-7.33a5.41,5.41,0,0,0-3.59-2.89,9.83,9.83,0,0,0-1-.2,47.15,47.15,0,0,1,94,4.88c0,1.35-.07,2.76-.2,4.28,0,.08,0,.16,0,.24-.54,12.08-1.07,55.79,1.65,69,1.15,5.57,5.62,13.79,12.39,26.23,3.85,7.06,8.5,15.61,13.53,25.56-5.73,6.34-14.28,9.66-26.08,10.12-7.07,0-27.84-2.39-32.52-12.67a5.43,5.43,0,0,0-9.89,4.51c2.18,4.78,6,8.71,11.4,11.76a52,52,0,0,0,13.79,5.13,84.25,84.25,0,0,0,17.31,2.14.46.46,0,0,0,.2,0c15.44-.57,27.18-5.58,34.9-14.89,10.31-12.43,13.15-31.31,8.94-59.39-4.1-27.34,8.58-39.54,9.09-40,.16-.15.31-.3.45-.46,56.37-64.42,86-117.45,101-150.59a324.22,324.22,0,0,0,14-36.26c8.45,57.61-23,129.76-23.37,130.58a5.43,5.43,0,0,0,8.53,6.3A304.73,304.73,0,0,0,1317.67,713c9.45,50.54-50.76,110.26-51.41,110.89a5.44,5.44,0,0,0,4.9,9.21c24.1-5,41.65-9.89,49.71-12.29,5.21,22.82-40.18,53.55-59.28,64a5.43,5.43,0,0,0,1.5,10.08c13.8,2.9,27,9.19,27.12,13,0,.35-.18,8.62-43.41,21a5.44,5.44,0,0,0-1.71,9.61c9.85,7.2,17.4,16.61,16.44,19,0,.06-3.48,6-39.36,1a5.43,5.43,0,0,0-6.12,6.19c1,6.43,1.16,21.58-4.57,24.75-1.91,1.05-9.83,3-31.5-15.67a5.44,5.44,0,0,0-8.66,2.27c-3.74,10.36-14.9,31.79-25.51,31.89h-.06c-4.66,0-14.11-4.49-25.44-34.19a5.44,5.44,0,0,0-7-3.14c-.12,0-.22.12-.33.17a5.41,5.41,0,0,0-2.81,6.85c10.57,27.7,22.21,41.18,35.57,41.18h.18c16.08-.14,27.59-20.65,32.74-32l.61.47c.46,1.55.93,3.12,1.39,4.7,7.6,26.27,25.89,47.51,54.35,63.15,23.39,12.86,49,19.44,65.9,23.8,5.8,1.5,12.22,3.15,15.48,4.39-2.9,4.34-14.25,9-24.55,11a5.43,5.43,0,0,0,0,10.67l29,5.55C1313.53,1115.68,1295.48,1119.35,1278.71,1119.84Z"/><path class="cls-2" d="M953.59,670.73,780.82,1034l12.29,5.85L982.74,641.13C974.06,645,961.93,653.18,953.59,670.73Z"/><path class="cls-4" d="M996.05,628.15l.34.25Z"/><path class="cls-4" d="M994.78,627.46a3.25,3.25,0,0,1,.43.18A3.25,3.25,0,0,0,994.78,627.46Z"/><path class="cls-4" d="M994.12,627.25c.14,0,.29.07.43.12C994.41,627.32,994.26,627.29,994.12,627.25Z"/><path class="cls-4" d="M996.62,628.63l.27.27Z"/><path class="cls-4" d="M997.29,629.39c0-.08-.12-.14-.17-.22.07.1.15.2.22.31Z"/><path class="cls-4" d="M992.74,627.1h0Z"/><path class="cls-4" d="M995.43,627.75l.39.23Z"/><path class="cls-4" d="M993.44,627.13l.41.06Z"/><path class="cls-2" d="M988,687.09c8.35-17.54,7.09-32.14,4.57-41.29L802.93,1044.49l12.29,5.85Z"/><path class="cls-2" d="M771.79,1132.94c-2-.69-3.73-1.34-5-1.86l4.76,2.26Z"/><path class="cls-2" d="M838.63,1084.74a5.34,5.34,0,0,0,3.08-2.78h0a5.42,5.42,0,0,0-2.58-7.23L746.8,1030.8a5.43,5.43,0,0,0-2.33-.53,5.5,5.5,0,0,0-1.82.32,5.42,5.42,0,0,0-3.08,2.79,5.36,5.36,0,0,0-.22,4.14,5.44,5.44,0,0,0,2.79,3.09l92.34,43.92A5.39,5.39,0,0,0,838.63,1084.74Z"/><path class="cls-2" d="M767,1156.33l8.22,3.91a2.12,2.12,0,0,0,1.38-.42,8.88,8.88,0,0,0,3.33-3.89,9,9,0,0,0,.92-5,2.31,2.31,0,0,0-.55-1.34l-54.47-25.9-.11,0a2.83,2.83,0,0,0-1.27.44,9,9,0,0,0-3.33,3.89c-1.69,3.56-.79,6.18-.37,6.38l7,3.32h0Z"/><path class="cls-2" d="M738.91,1169a18.13,18.13,0,0,0,21-4l-31.19-14.83A18.13,18.13,0,0,0,738.91,1169Z"/><path class="cls-2" d="M386.81,1074.54a15.44,15.44,0,0,0-.05,4.75,5.44,5.44,0,0,1-7.13,5.93,16.08,16.08,0,0,0-2.48-.65,15.43,15.43,0,1,0-5,30.45,15.23,15.23,0,0,0,5.34-.08,5.72,5.72,0,0,1,1-.09,5.45,5.45,0,0,1,5.43,5.07,15.34,15.34,0,0,0,12.87,14.19c.21,0,.42.05.63.08a26.05,26.05,0,0,1,2.62-36.12,26,26,0,0,1-3-35.62,15.46,15.46,0,0,0-10.21,12.09Z"/><path class="cls-4" d="M733.24,1211.91H716.93a5.43,5.43,0,0,0-5.26,4.08c-.94,3.67-3.14,7.6-5.46,11.78-2.55,4.57-5.18,9.31-6.48,14.32a5.43,5.43,0,0,0,4.79,6.77c.42,0,.81.05,1.17.05a11.61,11.61,0,0,0,3-.37,5.49,5.49,0,0,0,2.4-1.39l26-26a5.43,5.43,0,0,0-3.84-9.27Z"/><path class="cls-4" d="M751,831.72c-2.31-5.21-10-23-11.66-32.61-.77-4.49-2-10.55-3.26-16.42-1.45-7-3.43-16.49-3.44-18.43,0-6.84-3-10.68-8.9-11.42a6.86,6.86,0,0,0-5.16,1.29,5.42,5.42,0,0,0-5.08.24q-4.62,2.75-9.21,5.52c-3.26,2-6.52,3.92-9.78,5.85a5.45,5.45,0,0,0-1.71,7.77,12.34,12.34,0,0,0,4.31,3.8c4.43,2.42,9.31,5.77,11.85,12.28,3.6,9.17,8.31,26.1,8.11,34.78-1.75,2.8-9.42,8.36-20.25,15.19-3,1.88-6.2,3.86-9.61,5.9-5.94,3.57-12.44,7.33-19.19,11.13a27.17,27.17,0,0,0-3.71-.92,26.16,26.16,0,0,0-19.6,4.58,24.8,24.8,0,0,0-2.8,2.32,26.16,26.16,0,0,0-28.12,1.6,5.43,5.43,0,1,0,6.33,8.83c.07,0,.15-.09.22-.15a15.36,15.36,0,0,1,18.91,1.08,5.43,5.43,0,0,0,8.07-1,15.45,15.45,0,1,1,19.49,22.55,5.44,5.44,0,0,0-.85,9.23,15.74,15.74,0,0,1,3.33,3.39,15.44,15.44,0,0,1-3.55,21.53c-.07.06-.13.13-.2.18a5.42,5.42,0,0,0,6.53,8.66,26.19,26.19,0,0,0,10.63-17.1c.13-.78.21-1.56.27-2.34l20.24-18.46,8.33-7.61c17.93-16.37,36.35-33.23,38-34.83,4.61-4.61,4.61-10.49,4.61-14C754.11,839.64,752.42,834.91,751,831.72Z"/><path class="cls-4" d="M502.16,1294l-15.38-15.37a5.44,5.44,0,0,0-6.61-.83c-3.75,2.22-7.49,4.49-11.23,6.75s-7.87,4.78-11.82,7.1a5.45,5.45,0,0,0-1.4,8.18,12.27,12.27,0,0,0,3.2,2.74,5.35,5.35,0,0,0,2.68.71h36.72a5.44,5.44,0,0,0,3.84-9.28Z"/><path class="cls-4" d="M496.19,771.48a43.64,43.64,0,0,0-1.43,21.25l14.9-8.88a26.37,26.37,0,0,1-13.47-12.37Z"/><path class="cls-4" d="M531.45,783.51a5.63,5.63,0,0,0,1.44-1.26,26.25,26.25,0,0,1-12.77,3.55h-.48a26.33,26.33,0,0,1-10-1.95l-14.9,8.88a43.64,43.64,0,0,1,1.43-21.25,26.16,26.16,0,0,1-2.25-18c-6.49,7.88-15.24,24-8.07,49.27a5.43,5.43,0,0,0,8,3.18Z"/><path class="cls-2" d="M696.15,929.39h.34a15.23,15.23,0,0,0,6.72-28.85L683,919c-.06.78-.14,1.56-.27,2.34a26.19,26.19,0,0,1-10.63,17.1,5.42,5.42,0,0,1-6.53-8.66c.07,0,.13-.12.2-.18a15.44,15.44,0,0,0,3.55-21.53,15.74,15.74,0,0,0-3.33-3.39,5.44,5.44,0,0,1,.85-9.23,15.51,15.51,0,0,0,2.22-1.3,15.43,15.43,0,1,0-21.71-21.25,5.43,5.43,0,0,1-8.07,1,15.36,15.36,0,0,0-18.91-1.08c-.07.06-.15.1-.22.15a5.43,5.43,0,1,1-6.33-8.83,26.16,26.16,0,0,1,28.12-1.6,24.8,24.8,0,0,1,2.8-2.32,26.16,26.16,0,0,1,19.6-4.58,27.17,27.17,0,0,1,3.71.92c6.75-3.8,13.25-7.56,19.19-11.13a15.23,15.23,0,0,0-22.47-10.3,5.44,5.44,0,0,1-7.86-3.08,15.24,15.24,0,0,0-27-4.16,5.43,5.43,0,0,1-9.63-4.71,15.66,15.66,0,0,0,.66-4.44,15.23,15.23,0,0,0-22.86-13.21,5.44,5.44,0,0,1-8.08-3.8,15.2,15.2,0,0,0-20.57-11.63,5.43,5.43,0,0,1-5.63-9.08,15.21,15.21,0,0,0,.45-22.14,5.43,5.43,0,0,1,6-8.85,19.09,19.09,0,1,0,15.16-35,5.42,5.42,0,0,1-3.29-5,5.48,5.48,0,0,1,3.24-5,15.25,15.25,0,1,0-19.58-21.18,5.44,5.44,0,0,1-10-1.22,15.23,15.23,0,0,0-29.43-.26A5.43,5.43,0,0,1,516,683a15.24,15.24,0,0,0-28.42,11,5.44,5.44,0,0,1-8.58,6,15.25,15.25,0,0,0-25,11.73,15.1,15.1,0,0,0,6.27,12.3,5.43,5.43,0,0,1-3.91,9.77,15.25,15.25,0,1,0-2,30.36c.21,0,.43,0,.64,0l.34,0a5.43,5.43,0,0,1,2.07,10.57,15.25,15.25,0,0,0,4.86,29.7,15,15,0,0,0,1.79-.12,5.44,5.44,0,0,1,3.31,10.13A15.25,15.25,0,0,0,474.89,843a15.14,15.14,0,0,0,3-.3,5.43,5.43,0,0,1,4.88,9.19,15.23,15.23,0,0,0,9.95,26,5.43,5.43,0,0,1,1.1,10.68,15.24,15.24,0,0,0-2.17,28.74,5.43,5.43,0,0,1-.86,10.26A15.22,15.22,0,0,0,484.55,954a5.43,5.43,0,0,1-3.91,9.55h-.18c-.29,0-.59,0-.89,0a15.23,15.23,0,0,0-13,23.2,5.43,5.43,0,0,1-6.67,7.87,15.25,15.25,0,0,0-16.65,24.75,5.43,5.43,0,0,1-5.74,8.89A15.23,15.23,0,0,0,422.26,1054a5.43,5.43,0,0,1-3.91,9.49l-.38,0-.51,0a15.24,15.24,0,0,0-5.24,29.56,5.43,5.43,0,0,1,0,10.2,15.24,15.24,0,0,0,5.24,29.56,15.14,15.14,0,0,0,5.2-.93,5.44,5.44,0,0,1,6.66,7.66,15,15,0,0,0-1.79,7.15,15.25,15.25,0,0,0,26.1,10.72,5.43,5.43,0,0,1,8.95,5.74,15.08,15.08,0,0,0-1,5.39,15.25,15.25,0,0,0,23.83,12.61,5.43,5.43,0,0,1,8,2.3,15.23,15.23,0,0,0,26.43,2.63,5.43,5.43,0,0,1,8.89,0,15.23,15.23,0,0,0,27.28-5.12,5.43,5.43,0,0,1,7.6-3.61,15.11,15.11,0,0,0,6.51,1.48,15.28,15.28,0,0,0,15.26-15.26c0-.37,0-.79-.07-1.36a5.43,5.43,0,0,1,7.64-5.43,15.1,15.1,0,0,0,6.25,1.36,15.2,15.2,0,0,0,14.65-19.46,5.44,5.44,0,0,1,8.62-5.74,15.11,15.11,0,0,0,9.53,3.35,15.23,15.23,0,0,0,12.39-24.12,5.43,5.43,0,0,1,6.65-8.11,15.24,15.24,0,1,0,7.36-29.08,5.44,5.44,0,0,1-4.5-7.81,15.05,15.05,0,0,0,1.56-6.68,15.27,15.27,0,0,0-15.25-15.25,15.05,15.05,0,0,0-11.25,5,5.42,5.42,0,0,1-9.42-3.2,5.22,5.22,0,0,1-.43-2.1c0-.31,0-.62,0-.93a15.5,15.5,0,0,0-27.08-9.37,5.43,5.43,0,0,1-9.49-3.44,15.52,15.52,0,0,0-31,.5,5.44,5.44,0,0,1-10.87,0,26.41,26.41,0,0,1,50.78-10.15,26.32,26.32,0,0,1,33.83,8.28,12.09,12.09,0,0,1,7.94-3,15.27,15.27,0,0,0,15.26-15.25,15.09,15.09,0,0,0-3.09-9.17,5.43,5.43,0,0,1,7.9-7.37,15.25,15.25,0,0,0,23.37-18.85,5.43,5.43,0,0,1,6.87-7.62A15.25,15.25,0,1,0,694.38,940a5.43,5.43,0,0,1,1.77-10.57ZM538.65,777.74a26.48,26.48,0,0,1-5.76,4.51,5.63,5.63,0,0,1-1.44,1.26L493.88,805.9a5.44,5.44,0,0,1-8-3.18c-7.17-25.23,1.58-41.39,8.07-49.27a26.43,26.43,0,0,1,6.17-11.75,5.43,5.43,0,1,1,8.05,7.3l-.06.06a15.45,15.45,0,0,0,.77,21.52,15.24,15.24,0,0,0,11.06,4.35,15.41,15.41,0,0,0,10.84-4.68l.06-.06a5.43,5.43,0,1,1,7.82,7.55Z"/><path class="cls-4" d="M496.19,771.48a26.29,26.29,0,0,0,23.45,14.32h.48a26.37,26.37,0,0,0,18.53-8.06,5.43,5.43,0,1,0-7.82-7.55l-.06.06a15.41,15.41,0,0,1-10.84,4.68,15.24,15.24,0,0,1-11.06-4.35,15.45,15.45,0,0,1-.77-21.52l.06-.06a5.43,5.43,0,1,0-8.05-7.3,26.43,26.43,0,0,0-6.17,11.75A26.16,26.16,0,0,0,496.19,771.48Z"/><path class="cls-2" d="M617,752.16a8.35,8.35,0,1,0-8.35-8.35A8.34,8.34,0,0,0,617,752.16Z"/><path class="cls-4" d="M1004.08,647.6c-2.15-11-6.49-17.77-6.68-18.05l-.06-.07c-.07-.11-.15-.21-.22-.31l-.23-.27-.27-.27-.23-.23-.34-.25-.23-.17-.39-.23-.22-.11a3.25,3.25,0,0,0-.43-.18,2.18,2.18,0,0,0-.23-.09c-.14,0-.29-.08-.43-.12l-.27-.06-.41-.06-.31,0h-.64l-.1,0h-.1a54.69,54.69,0,0,0-18.22,6.21c-9,4.82-21.58,14.4-30.3,32.73L856.91,848.69,770,666.06c-8.71-18.33-21.29-27.91-30.3-32.73a54.67,54.67,0,0,0-18.21-6.21h-.1l-.1,0h-.63l-.37,0-.34,0-.4.1-.28.07-.42.16-.23.1a3.23,3.23,0,0,0-.41.22L718,628l-.36.26-.22.17-.3.29-.22.22c-.09.1-.16.2-.24.3l-.22.29-.06.07a54.39,54.39,0,0,0-6.67,18.05c-2,10-2.45,25.84,6.27,44.16L823.78,918.34,770.62,1030.1,751.47,1021a16.3,16.3,0,1,0-14,29.43l18.49,8.8-5,13a19.81,19.81,0,0,1-2.46-1.48c-8.26-5.8-22-17.73-26.29-25-2.06-3.6-11.72-32.83-22.72-67.22A26.1,26.1,0,0,0,708.94,937a26.07,26.07,0,0,0,2.6-44.09l-8.33,7.61a15.23,15.23,0,0,1-6.72,28.85h-.34A5.43,5.43,0,0,0,694.38,940a15.25,15.25,0,1,1-10.88,28.47,5.43,5.43,0,0,0-6.87,7.62,15.25,15.25,0,0,1-23.37,18.85,5.43,5.43,0,0,0-7.9,7.37,15.09,15.09,0,0,1,3.09,9.17,15.27,15.27,0,0,1-15.26,15.25,12.09,12.09,0,0,0-7.94,3,26.32,26.32,0,0,0-33.83-8.28,26.41,26.41,0,0,0-50.78,10.15,5.44,5.44,0,0,0,10.87,0,15.52,15.52,0,0,1,31-.5,5.43,5.43,0,0,0,9.49,3.44,15.5,15.5,0,0,1,27.08,9.37c0,.31,0,.62,0,.93a5.22,5.22,0,0,0,.43,2.1,5.42,5.42,0,0,0,9.42,3.2,15.05,15.05,0,0,1,11.25-5,15.27,15.27,0,0,1,15.25,15.25,15.05,15.05,0,0,1-1.56,6.68,5.44,5.44,0,0,0,4.5,7.81,15.24,15.24,0,1,1-7.36,29.08,5.43,5.43,0,0,0-6.65,8.11,15.24,15.24,0,0,1-21.92,20.77,5.44,5.44,0,0,0-8.62,5.74,15.2,15.2,0,0,1-14.65,19.46,15.1,15.1,0,0,1-6.25-1.36,5.43,5.43,0,0,0-7.64,5.43c0,.57.07,1,.07,1.36a15.28,15.28,0,0,1-15.26,15.26,15.11,15.11,0,0,1-6.51-1.48,5.43,5.43,0,0,0-7.6,3.61,15.23,15.23,0,0,1-27.28,5.12,5.43,5.43,0,0,0-8.89,0,15.23,15.23,0,0,1-26.43-2.63,5.43,5.43,0,0,0-8-2.3,15.23,15.23,0,0,1-22.83-18,5.43,5.43,0,0,0-8.95-5.74,15.25,15.25,0,0,1-26.1-10.72,15,15,0,0,1,1.79-7.15,5.44,5.44,0,0,0-6.66-7.66,15.21,15.21,0,0,1-20.45-14.32,15.31,15.31,0,0,1,10-14.31,5.43,5.43,0,0,0,0-10.2,15.24,15.24,0,0,1,5.24-29.56l.51,0,.38,0a5.43,5.43,0,0,0,3.91-9.49,15.22,15.22,0,0,1,15.25-25.75,5.43,5.43,0,0,0,5.74-8.89,15.24,15.24,0,0,1,16.65-24.75,5.43,5.43,0,0,0,6.67-7.87,15.23,15.23,0,0,1,13-23.2c.3,0,.6,0,.89,0h.18a5.43,5.43,0,0,0,3.91-9.55,15.22,15.22,0,0,1,6.22-26.41,5.43,5.43,0,0,0,.86-10.26,15.24,15.24,0,0,1,2.17-28.74,5.43,5.43,0,0,0-1.1-10.68,15.23,15.23,0,0,1-9.95-26,5.43,5.43,0,0,0-4.88-9.19,15.23,15.23,0,0,1-18.24-15,15.29,15.29,0,0,1,7.78-13.29,5.44,5.44,0,0,0-3.31-10.13,15,15,0,0,1-1.79.12,15.25,15.25,0,0,1-4.86-29.7,5.43,5.43,0,0,0-2.07-10.57l-.34,0c-.21,0-.43,0-.64,0a15.25,15.25,0,1,1,2-30.36,5.43,5.43,0,0,0,3.91-9.77,15.1,15.1,0,0,1-6.27-12.3,15.25,15.25,0,0,1,25-11.73,5.44,5.44,0,0,0,8.58-6,15.1,15.1,0,0,1-.95-5.23A15.25,15.25,0,0,1,516,683a5.43,5.43,0,0,0,10.26-.61,15.23,15.23,0,0,1,29.43.26,5.44,5.44,0,0,0,10,1.22,15.25,15.25,0,1,1,19.58,21.18,5.48,5.48,0,0,0-3.24,5,5.42,5.42,0,0,0,3.29,5,19.09,19.09,0,1,1-15.16,35,5.43,5.43,0,0,0-6,8.85,15.21,15.21,0,0,1-.45,22.14,5.43,5.43,0,0,0,5.63,9.08A15.2,15.2,0,0,1,590,801.76a5.44,5.44,0,0,0,8.08,3.8,15.23,15.23,0,0,1,22.86,13.21,15.66,15.66,0,0,1-.66,4.44,5.43,5.43,0,0,0,9.63,4.71,15.24,15.24,0,0,1,27,4.16,5.44,5.44,0,0,0,7.86,3.08,15.23,15.23,0,0,1,22.47,10.3c3.41-2,6.63-4,9.61-5.9a26.16,26.16,0,0,0-24.57-17.26,25.83,25.83,0,0,0-7.42,1.09,26.08,26.08,0,0,0-33.66-10.28,26.17,26.17,0,0,0-9.48-14.93c13.59-1.67,25.41-8.47,31.53-28.21,3.29-10.64,2.66-19.51-1.93-27.12-3.86-6.4-10.36-11.78-21.07-17.45-12-6.33-22.77-12-31.73-16.73a26.12,26.12,0,0,0-36.31-37.41,26.08,26.08,0,0,0-41.76-.91,26.13,26.13,0,0,0-44.55,16.17,26.09,26.09,0,0,0-29.59,37.62,26.12,26.12,0,0,0-3.81,48.07A26.11,26.11,0,0,0,453,813.57a26.12,26.12,0,0,0,16.19,39.65,26.18,26.18,0,0,0,10.19,31.47,26.13,26.13,0,0,0-.49,36.73,26.1,26.1,0,0,0-7.79,32.64,26.18,26.18,0,0,0-17.6,24.7,24.55,24.55,0,0,0,.29,3.84,26.15,26.15,0,0,0-24.45,34,26.17,26.17,0,0,0-23.06,25.95,25.75,25.75,0,0,0,1.57,8.86c-.5-.11-1-.24-1.49-.32a26.32,26.32,0,0,0-30.23,21.67c0,.25-.08.5-.11.76a26.3,26.3,0,0,0-27.28,22,26.32,26.32,0,0,0,21.67,30.22,25.92,25.92,0,0,0,3.62.34,26.27,26.27,0,0,0,36.52,16.58,26,26,0,0,0,6.34.93,25.36,25.36,0,0,0-.17,3,26.13,26.13,0,0,0,12.48,22.27c-5.71,5.23-9.64,8.87-10.35,9.57-4.6,4.61-4.6,10.49-4.6,14,0,4.46,1.69,9.19,3.1,12.38,2.32,5.21,10,23,11.67,32.61.77,4.48,2,10.54,3.25,16.4,1.45,7,3.44,16.51,3.44,18.45,0,6.84,3,10.68,8.91,11.42a9.2,9.2,0,0,0,1,.06,6.67,6.67,0,0,0,4.11-1.35,5.44,5.44,0,0,0,5.09-.24c3.06-1.82,6.1-3.65,9.15-5.49,3.28-2,6.55-3.94,9.84-5.88a5.43,5.43,0,0,0,1.7-7.77,12.29,12.29,0,0,0-4.31-3.81c-4.43-2.41-9.3-5.76-11.85-12.27-3.59-9.17-8.3-26.1-8.1-34.78,2-3.13,11.32-9.72,24.23-17.68.45,0,.9.07,1.36.07a25.88,25.88,0,0,0,9.57-1.82,26.09,26.09,0,0,0,37.93,4.37,26.09,26.09,0,0,0,40.24-8.13,25.53,25.53,0,0,0,5.59.61A26.11,26.11,0,0,0,591,1179.22c-.25,5.9-.41,9.88-.41,10.72,0,6.51,4.17,10.68,6.66,13.17,3.15,3.15,7.69,5.3,10.94,6.55,5.32,2,23.3,9.17,31.31,14.81,3.72,2.63,8.89,6,13.9,9.3,6,3.9,14.1,9.24,15.48,10.61q4.14,4.14,8.24,4.14a10,10,0,0,0,6.13-2.36,6.93,6.93,0,0,0,2.74-4.56,5.45,5.45,0,0,0,3.42-3.76q1.32-5.17,2.59-10.36c.92-3.71,1.84-7.42,2.79-11.11a5.43,5.43,0,0,0-4.28-6.7,12.26,12.26,0,0,0-5.74.36c-4.85,1.42-10.66,2.5-17.06-.3-9-4-24.33-12.59-30.33-18.87-1.15-5,3.1-24.89,9.4-48.35A26.1,26.1,0,0,0,658.16,1121a25.83,25.83,0,0,0-.44-4.75,26.11,26.11,0,0,0,8.16-50.79,25.33,25.33,0,0,0,.49-5A26.17,26.17,0,0,0,645,1034.72a26.29,26.29,0,0,0,11.31-11.17c8.09,8.61,13.85,15,15.88,17.8-.3,5.36,2.45,9.52,4.18,12.12,2.46,3.72,6.48,6.73,9.42,8.6,4.81,3.06,21,13.61,27.74,20.74,4.59,4.87,12.59,10.36,19.65,15.19,1.92,1.32,4.2,2.88,6.09,4.24l-5.15,13.31-3.61-1.72a12.29,12.29,0,0,0-11.48.82,19.75,19.75,0,0,0-7.71,8.64c-4,8.5-2,17.66,4.77,20.86l2.55,1.21A28.93,28.93,0,0,0,756.38,1180a28.71,28.71,0,0,0,13.67-10.17l.53.26a11.08,11.08,0,0,0,4.78,1.06,13.51,13.51,0,0,0,6.7-1.88,19.75,19.75,0,0,0,7.71-8.64h0a19.72,19.72,0,0,0,1.83-11.44,12.22,12.22,0,0,0-6.6-9.42l-3.6-1.72,1.27-2.23c15.41,2.88,36.19,1.53,44.22-23a27.3,27.3,0,0,0-.85-20.28l3.77,1.79a16.3,16.3,0,1,0,14-29.43l-19.15-9.11L856.91,988l32.25,67.8,31.92-15.18,22.11-10.52L890,918.35,997.81,691.76C1006.53,673.44,1006,657.63,1004.08,647.6ZM617,735.46a8.35,8.35,0,1,1-8.35,8.35A8.34,8.34,0,0,1,617,735.46Zm-225.62,382a26,26,0,0,0,6.06,16.71c-.21,0-.42,0-.63-.08a15.34,15.34,0,0,1-12.87-14.19,5.45,5.45,0,0,0-5.43-5.07,5.72,5.72,0,0,0-1,.09,15.41,15.41,0,0,1-18.06-17.65,15.46,15.46,0,0,1,17.74-12.72,16.08,16.08,0,0,1,2.48.65,5.44,5.44,0,0,0,7.13-5.93A15.46,15.46,0,0,1,397,1062.45a26,26,0,0,0,3,35.62A26.19,26.19,0,0,0,391.34,1117.48ZM760.23,670.73l90.66,190.61-7.54,15.85L731.07,641.13C739.76,645,751.89,653.19,760.23,670.73Zm-34.41,16.36c-8.34-17.54-7.08-32.14-4.56-41.29l116.07,244-7.54,15.85Zm227.77-16.36c8.34-17.55,20.47-25.78,29.15-29.6L793.11,1039.82,780.82,1034Zm-200.85,499a18,18,0,0,1-13.83-.71,18.13,18.13,0,0,1-10.15-18.85L760,1165A17.9,17.9,0,0,1,752.74,1169.73Zm27.22-13.8a8.88,8.88,0,0,1-3.33,3.89,2.12,2.12,0,0,1-1.38.42l-8.22-3.91-39.26-18.67h0l-7-3.32c-.42-.2-1.32-2.82.37-6.38a9,9,0,0,1,3.33-3.89,2.83,2.83,0,0,1,1.27-.44l.11,0,54.47,25.9a2.31,2.31,0,0,1,.55,1.34A9,9,0,0,1,780,1155.93ZM805.78,1110a5.42,5.42,0,0,1-7.64.77c-10.16-8.29-29.64-13-29.9-13.11-1.82,13.29-3.74,30.92-3.88,32.27L744,1120.23l21.83-56.33,17.22,8.19c-3.88,6.7-7.38,12-9.94,15.6,6,1.63,22,6.56,31.92,14.66A5.43,5.43,0,0,1,805.78,1110Zm33.36-35.26a5.42,5.42,0,0,1,2.58,7.23h0a5.43,5.43,0,0,1-7.23,2.57l-92.34-43.92a5.44,5.44,0,0,1-2.79-3.09,5.36,5.36,0,0,1,.22-4.14,5.42,5.42,0,0,1,3.08-2.79,5.5,5.5,0,0,1,1.82-.32,5.43,5.43,0,0,1,2.33.53Zm59.45-24.39-35.67-75,7.54-15.85,40.43,85ZM933,1034l-12.3,5.85-44.22-93L884,931Zm55-346.88L815.22,1050.34l-12.29-5.85L992.56,645.8C995.08,655,996.34,669.55,988,687.09Z"/><path class="cls-2" d="M805,1102.35c-9.92-8.1-26-13-31.92-14.66,2.56-3.62,6.06-8.9,9.94-15.6l-17.22-8.19L744,1120.23l20.38,9.69c.14-1.35,2.06-19,3.88-32.27.26.07,19.74,4.82,29.9,13.11a5.42,5.42,0,0,0,7.64-.77A5.43,5.43,0,0,0,805,1102.35Z"/><path class="cls-2" d="M856.91,156.64a5.41,5.41,0,0,1-2.86-.81l-45-27.85c-103,22-180.42,113.74-180.42,223.19,0,125.85,102.39,228.24,228.24,228.24S1085.15,477,1085.15,351.17a226.11,226.11,0,0,0-45.51-136.61,230.58,230.58,0,0,0-115.3-81.46q-9.69-3-19.61-5.12l-45,27.85A5.46,5.46,0,0,1,856.91,156.64Zm180.45,197.78c0,99.73-81.13,180.86-180.86,180.86S675.63,454.15,675.63,354.42,756.76,173.55,856.5,173.55C954.54,173.55,1037.36,256.38,1037.36,354.42Z"/><path class="cls-3" d="M675.63,354.42c0,99.73,81.13,180.86,180.87,180.86s180.86-81.13,180.86-180.86c0-98-82.82-180.87-180.86-180.87C756.76,173.55,675.63,254.69,675.63,354.42Zm180.87,170c-84.36,0-154.56-61.77-167.76-142.45l168.17-46,167.38,45.74C1011.18,462.54,940.93,524.42,856.5,524.42Zm170-170c0,5.55-.28,11-.8,16.45L858.34,325.13a5.55,5.55,0,0,0-2.86,0l-168.17,46c-.53-5.49-.82-11-.82-16.67a170.17,170.17,0,0,1,1.65-23.6L856.91,284.7l167.85,45.87A164.43,164.43,0,0,1,1026.5,354.42Zm-170-170c43.37,0,86.68,18.15,118.82,49.82,24.11,23.75,40.29,52.93,47.27,84.47L858.35,273.82a5.59,5.59,0,0,0-2.87,0L690.22,319C706.56,242.2,774.9,184.42,856.5,184.42Z"/><polygon class="cls-2" points="757.62 69.9 833.43 32.82 776.85 32.82 757.62 69.9"/><polygon class="cls-2" points="880.38 32.82 956.2 69.91 936.96 32.82 880.38 32.82"/><path class="cls-3" d="M739.78,82.26a5.49,5.49,0,0,1,0-.81A5.49,5.49,0,0,0,739.78,82.26Z"/><path class="cls-3" d="M972.27,86l.26-.26-.11.1Z"/><path class="cls-3" d="M974,81.46a7,7,0,0,1,0,.79A7,7,0,0,0,974,81.46Z"/><path class="cls-3" d="M971.6,86.54a3.62,3.62,0,0,0,.32-.22l-.19.13Z"/><path class="cls-3" d="M740.22,84.17c.07.15.15.3.23.46,0-.07-.06-.14-.1-.21S740.26,84.25,740.22,84.17Z"/><path class="cls-3" d="M740,83.35a4,4,0,0,0,.15.49c0-.11-.07-.22-.1-.32S740,83.41,740,83.35Z"/><path class="cls-3" d="M740.25,79.83a4.07,4.07,0,0,0-.22.58c0-.09.07-.17.1-.26S740.2,79.94,740.25,79.83Z"/><path class="cls-3" d="M741.89,86.31a4,4,0,0,0,.33.24l-.13-.1Z"/><path class="cls-3" d="M740.54,84.79l0,0,0,.06s0,0,0-.05Z"/><path class="cls-3" d="M741.28,85.76l.28.27-.17-.16S741.31,85.8,741.28,85.76Z"/><path class="cls-3" d="M740,80.64c-.05.21-.1.43-.13.65,0-.11,0-.21.07-.31S739.93,80.75,740,80.64Z"/><path class="cls-3" d="M740.72,85.07c.09.13.18.26.28.38a2.4,2.4,0,0,1-.18-.26Z"/><path class="cls-3" d="M972.82,85.44c.09-.11.17-.23.26-.35l-.08.1C972.94,85.27,972.89,85.36,972.82,85.44Z"/><path class="cls-3" d="M739.8,82.44a6,6,0,0,0,.08.61c0-.18,0-.36-.07-.54C739.81,82.49,739.8,82.47,739.8,82.44Z"/><path class="cls-3" d="M973.72,83.82c0-.15.1-.3.14-.46a.75.75,0,0,1-.05.16C973.78,83.62,973.76,83.72,973.72,83.82Z"/><path class="cls-3" d="M973.38,84.6c.07-.14.15-.28.21-.43,0,.09-.09.16-.13.25Z"/><path class="cls-3" d="M973.21,84.89l0,0s0,0,0,0l0,0Z"/><path class="cls-3" d="M973.94,83a5.54,5.54,0,0,0,.07-.57v0C974,82.69,974,82.87,973.94,83Z"/><path class="cls-3" d="M973.78,80.39c-.06-.18-.13-.36-.2-.53,0,.09.07.19.11.29Z"/><path class="cls-3" d="M974,81.26a4.13,4.13,0,0,0-.13-.61c0,.11,0,.22.07.33Z"/><polygon class="cls-2" points="856.91 144.82 949.51 87.45 764.3 87.45 856.91 144.82"/><path class="cls-3" d="M740.82,85.19a2.4,2.4,0,0,0,.18.26l.1.12C741,85.45,740.91,85.32,740.82,85.19Z"/><path class="cls-3" d="M973.69,80.15c0-.1-.07-.2-.11-.29s0-.12-.07-.17C973.58,79.84,973.63,80,973.69,80.15Z"/><path class="cls-3" d="M739.81,81.41v0a5.49,5.49,0,0,0,0,.81v0A6.77,6.77,0,0,1,739.81,81.41Z"/><path class="cls-3" d="M740,80.53h0s0,.07,0,.11,0,.23-.06.34A3.58,3.58,0,0,1,740,80.53Z"/><path class="cls-3" d="M972.51,78.24a5,5,0,0,1,.41.5A5.21,5.21,0,0,0,972.51,78.24Z"/><path class="cls-3" d="M973.92,81c0-.11,0-.22-.07-.33s0-.08,0-.12h0C973.87,80.68,973.89,80.83,973.92,81Z"/><path class="cls-3" d="M740.3,79.69s0,.1,0,.14-.08.22-.12.32A4.28,4.28,0,0,1,740.3,79.69Z"/><path class="cls-3" d="M972.71,85.57a1.27,1.27,0,0,0,.11-.13c.07-.08.12-.17.18-.25A3.47,3.47,0,0,1,972.71,85.57Z"/><path class="cls-3" d="M973.24,84.85l0,0c0-.06.07-.13.11-.2l.08-.18C973.39,84.56,973.32,84.71,973.24,84.85Z"/><path class="cls-3" d="M974,82.31v-.06a7,7,0,0,0,0-.79v0A5.41,5.41,0,0,1,974,82.31Z"/><path class="cls-3" d="M973.91,83.2a1.1,1.1,0,0,1,0-.16c0-.17,0-.35.07-.53C974,82.74,974,83,973.91,83.2Z"/><path class="cls-3" d="M973.64,84.06l.08-.24c0-.1.06-.2.09-.3A5.6,5.6,0,0,1,973.64,84.06Z"/><path class="cls-3" d="M740.75,78.92a4.52,4.52,0,0,0-.41.71h0A5,5,0,0,1,740.75,78.92Z"/><path class="cls-3" d="M740.9,78.73a4.83,4.83,0,0,1,.41-.49A4.83,4.83,0,0,0,740.9,78.73Z"/><path class="cls-3" d="M740.35,84.42c0,.07.06.14.1.21l.09.16,0,.06A4.5,4.5,0,0,1,740.35,84.42Z"/><path class="cls-3" d="M972.08,86.19l.19-.16.15-.16C972.31,86,972.2,86.09,972.08,86.19Z"/><path class="cls-3" d="M740,83.52c0,.1.06.21.1.32s0,.14.08.22C740.11,83.88,740.06,83.7,740,83.52Z"/><path class="cls-3" d="M741.39,85.87l.17.16a1.29,1.29,0,0,0,.17.16Z"/><path class="cls-3" d="M742,77.66a4.71,4.71,0,0,0-.42.36A5,5,0,0,1,742,77.66Z"/><path class="cls-3" d="M971.55,77.47c-.16-.1-.32-.2-.49-.29C971.23,77.27,971.39,77.37,971.55,77.47Z"/><path class="cls-3" d="M973.48,79.63h0a5.3,5.3,0,0,0-.4-.7A6.23,6.23,0,0,1,973.48,79.63Z"/><path class="cls-3" d="M972.26,78a3.73,3.73,0,0,0-.43-.36A5.12,5.12,0,0,1,972.26,78Z"/><path class="cls-3" d="M742.75,77.18c-.17.09-.32.19-.48.29C742.43,77.37,742.58,77.27,742.75,77.18Z"/><path class="cls-3" d="M739.81,82.51c0,.18,0,.36.07.54l0,.15A5.46,5.46,0,0,1,739.81,82.51Z"/><polygon class="cls-2" points="768.68 76.59 945.13 76.59 856.91 33.43 768.68 76.59"/><path class="cls-3" d="M487.69,252.45h75.44a5.44,5.44,0,0,0,0-10.87H487.69a5.44,5.44,0,1,0,0,10.87Z"/><path class="cls-3" d="M1145.25,247a5.45,5.45,0,0,0,5.44,5.44h75.44a5.44,5.44,0,0,0,0-10.87h-75.44A5.44,5.44,0,0,0,1145.25,247Z"/><path class="cls-3" d="M1085.79,135.55a5.38,5.38,0,0,0,3.16-1l61.28-44a5.43,5.43,0,0,0-6.34-8.82l-61.28,44a5.43,5.43,0,0,0,3.18,9.84Z"/><path class="cls-3" d="M563.59,90.52l61.27,44a5.43,5.43,0,1,0,6.34-8.82l-61.27-44a5.43,5.43,0,1,0-6.34,8.82Z"/><path class="cls-2" d="M1377.1,1434.72c-2.61-2.68-6-3.64-10.08-2.91q-7.23,1.31-12,8.25a28.83,28.83,0,0,0-4.78,16.73q0,9.17,4.78,13.83t12.47,3.3a22,22,0,0,0,8-3.39,42.65,42.65,0,0,0,7.85-6.63,28.86,28.86,0,0,0,.92-6.22,50.92,50.92,0,0,0-1.62-12.58A22.31,22.31,0,0,0,1377.1,1434.72Z"/><path class="cls-2" d="M1476.56,1419.85c.3-7,.67-14.16,1-21.06,1.2-23.63,2.45-48,1.48-71.86-70.94,36.39-243.38,94-623.3,94-172.23,0-313.13-18.4-401-33.83-98.23-17.26-180.44-39.59-222.31-60.26-1,23.7.27,47.92,1.47,71.39.36,7.08.73,14.4,1,21.59l4.46,103.54c31.06,17.14,88.12,41.26,186,61.11,115.83,23.48,260.61,35.39,430.32,35.39,181.52,0,321.88-19.25,407.66-35.4,108.54-20.44,178.47-44.75,208.68-61.12ZM368.82,1513.43c-7.28-1.39-16-3.23-25.88-5s-18.48-3.07-25.69-4.29c-1.81-.3-2.87-1.87-2.77-4.25a3.72,3.72,0,0,1,.69-2.35,2,2,0,0,1,1.77-.28,73.74,73.74,0,0,0,12.23,1.6,6.11,6.11,0,0,0,5.38-2.66c1.18-1.74,1.77-5,1.77-9.6v-32.26a44.05,44.05,0,0,0-.69-10.6,7.21,7.21,0,0,0-3-4.66,21.89,21.89,0,0,0-7.08-2.24l-7.53-1.42c-1.85-.35-2.85-1.85-2.77-4.25.05-1.49.41-2.43.92-2.69a2.9,2.9,0,0,1,1.93-.18l1.61.3a37,37,0,0,0,12.61.26q6.15-1,13.39-2.6a4.79,4.79,0,0,1,1.54,0c1.64.29,2.47,1.63,2.47,4V1489q0,6.83,1.61,10.06a9.37,9.37,0,0,0,5.09,4.61,59.53,59.53,0,0,0,11.17,2.72l1.54.26a2.66,2.66,0,0,1,1.77.93,4.78,4.78,0,0,1,.69,2.6C371.69,1512.56,370.63,1513.78,368.82,1513.43Zm93.94,9.66a53,53,0,0,1-22.26,1.22c-7-1-10.44-1.53-17.39-2.58q-6.67-1-15-1.94a2.17,2.17,0,0,1-1.57-1.07,3.65,3.65,0,0,1-.57-2c0-1.21.34-2,.76-2.15a4.88,4.88,0,0,1,2.39,0c2.43.38,4.24.22,5.41-.48a4.57,4.57,0,0,0,2.21-3,28.08,28.08,0,0,0,.56-5v-50.22a31.14,31.14,0,0,0-.56-5.21,6.81,6.81,0,0,0-2.21-3.63,10.36,10.36,0,0,0-5.41-2.17l-.76-.12a3.15,3.15,0,0,1-1.76-.71,3.83,3.83,0,0,1-.63-2.32,2.89,2.89,0,0,1,.57-1.87,1.53,1.53,0,0,1,1.57-.57q8.31,1.68,15,2.69c7.86,1.19,11.79,1.77,19.66,2.91a55.75,55.75,0,0,1,22,8,46.3,46.3,0,0,1,15.65,16.08,43.34,43.34,0,0,1,5.75,22.25q0,12.9-6.51,21A32.44,32.44,0,0,1,462.76,1523.09Zm50.45,10.85q-6.83-.82-15.16-1.48a2.08,2.08,0,0,1-1.58-1,3.58,3.58,0,0,1-.57-2c0-1.21.34-2,.76-2.18a4.92,4.92,0,0,1,2.4-.08q3.66.45,5.43-.66a4.69,4.69,0,0,0,2.21-3,27.29,27.29,0,0,0,.57-5V1468.2a29.62,29.62,0,0,0-.57-5.19,6.53,6.53,0,0,0-2.21-3.56,10,10,0,0,0-5.43-2l-.76-.09a3.05,3.05,0,0,1-1.77-.67,3.72,3.72,0,0,1-.63-2.29,3,3,0,0,1,.57-1.89,1.6,1.6,0,0,1,1.58-.63q8.34,1.42,15,2.22,19.84,2.37,39.71,4.47c2.2.24,3.29,1.36,3.29,3.39.15,7.1.23,10.65.38,17.74a1.84,1.84,0,0,1-1.14,1.72,4,4,0,0,1-2.27.46,6.37,6.37,0,0,1-2.66-.85,2.46,2.46,0,0,1-1.27-1.85,57,57,0,0,0-2.21-9.66,11.14,11.14,0,0,0-3.54-5.19,13.89,13.89,0,0,0-6.64-2.44c-6.78-.75-10.17-1.14-17-1.93v32.13c9.16,1.07,13.73,1.59,22.89,2.59a2.16,2.16,0,0,1,1.39,1.1,3.9,3.9,0,0,1,.51,2,2.85,2.85,0,0,1-.51,1.72,1.41,1.41,0,0,1-1.39.61c-9.16-1-13.73-1.52-22.89-2.59v23.9a32.31,32.31,0,0,0,.64,4.31,5.78,5.78,0,0,0,2.27,3.12,11.12,11.12,0,0,0,5.94,1.82c4.66.53,7,.79,11.64,1.3q4.43.36,6.7-.72a7.84,7.84,0,0,0,3.61-3.73,64.33,64.33,0,0,0,3.23-8.76c.58-1.46,2.09-1.94,4.3-1.33a5.59,5.59,0,0,1,2.21,1.25,2.23,2.23,0,0,1,.83,2c-1,6.27-1.52,9.41-2.54,15.68a3,3,0,0,1-1.13,2,4.62,4.62,0,0,1-2.54.24Q534.06,1536.43,513.21,1533.94Zm97.71,12.53a41.3,41.3,0,0,1-19.7-6.87A42.57,42.57,0,0,1,577,1523.65a48,48,0,0,1-5.25-22.66q0-12.77,5.06-22a31.91,31.91,0,0,1,14.44-13.75q9.38-4.5,21.92-3.44a45.07,45.07,0,0,1,19.39,5.94c5.66,3.35,8.43,8.11,8.49,14.12a12.93,12.93,0,0,1-3.42,9.42q-3.55,3.72-9.51,3.24a8.64,8.64,0,0,1-3.86-1.13,6.87,6.87,0,0,1-2.35-2.15,2.75,2.75,0,0,1-.63-1.82c0-.17.59-.58,1.77-1.25a10,10,0,0,0,3.17-2.9,8,8,0,0,0,1.39-4.83,12.3,12.3,0,0,0-3.86-9.35q-3.87-3.66-10.71-4.24a21.57,21.57,0,0,0-13.75,3.17q-6,3.82-9.37,11.93t-3.36,19.73a47.93,47.93,0,0,0,3.61,18.74,35.9,35.9,0,0,0,10.2,14.08,26.63,26.63,0,0,0,15.08,6.18,21.66,21.66,0,0,0,11.72-1.89,23.48,23.48,0,0,0,8.81-8.49,1.8,1.8,0,0,1,1.78-1,4.91,4.91,0,0,1,2.28.93c1.35,1,2,2,2,2.94a1.58,1.58,0,0,1-.51,1.22,43.13,43.13,0,0,1-9.07,8.48,22.7,22.7,0,0,1-9.19,3.51A55.11,55.11,0,0,1,610.92,1546.47Zm103.37,1.77a3.23,3.23,0,0,1-1.14,2.09,4.67,4.67,0,0,1-2.54.38q-20.94-1.07-41.88-2.42-6.84-.45-15.22-.66a2,2,0,0,1-1.58-.93,3.37,3.37,0,0,1-.57-2c0-1.22.33-2,.76-2.22a4.87,4.87,0,0,1,2.41-.21c2.45.17,4.26-.15,5.45-1a5.11,5.11,0,0,0,2.22-3.13,29.93,29.93,0,0,0,.57-5.09v-50.22a30.21,30.21,0,0,0-.57-5.16,6.18,6.18,0,0,0-2.22-3.44,9.61,9.61,0,0,0-5.45-1.7l-.77-.06a2.88,2.88,0,0,1-1.77-.57,3.47,3.47,0,0,1-.63-2.25,3,3,0,0,1,.57-1.92,1.68,1.68,0,0,1,1.58-.72q8.37,1,15.09,1.41,19.92,1.29,39.85,2.32,3.3.17,3.3,3.2c.15,7.09.23,10.64.38,17.73a2,2,0,0,1-1.14,1.78,4.22,4.22,0,0,1-2.28.58,6.2,6.2,0,0,1-2.67-.71,2.24,2.24,0,0,1-1.27-1.77,55.84,55.84,0,0,0-2.22-9.55,10.42,10.42,0,0,0-3.55-5,13.12,13.12,0,0,0-6.67-2.07c-6.8-.39-10.2-.6-17-1v32.13c9.19.58,13.78.85,23,1.35a2,2,0,0,1,1.39,1,3.8,3.8,0,0,1,.51,2,3,3,0,0,1-.51,1.75,1.5,1.5,0,0,1-1.39.68c-9.19-.5-13.78-.77-23-1.35v23.91a33.52,33.52,0,0,0,.63,4.27,5.41,5.41,0,0,0,2.29,3c1.27.92,3.25,1.43,6,1.5,4.67.28,7,.42,11.68.68a14,14,0,0,0,6.72-1.09,8.46,8.46,0,0,0,3.62-3.92,66.27,66.27,0,0,0,3.24-8.94c.59-1.49,2.1-2.05,4.31-1.56a5.41,5.41,0,0,1,2.23,1.12,2.15,2.15,0,0,1,.82,1.94C715.82,1538.75,715.31,1541.91,714.29,1548.24Zm103.58-3.78a5.67,5.67,0,0,0,2.22,3.32,9.17,9.17,0,0,0,5.47,1.39h.76a2.79,2.79,0,0,1,1.71.46,3.09,3.09,0,0,1,.7,2.22,3.21,3.21,0,0,1-.57,2,1.93,1.93,0,0,1-1.72.8q-8.13-.46-15.24-.58c-4.92-.08-10.13,0-15.63.09a2,2,0,0,1-1.71-.86,3.25,3.25,0,0,1-.58-2c0-1.22.34-2,.77-2.26a5.25,5.25,0,0,1,2.41-.33c2.46,0,4.28-.35,5.46-1.22a5.42,5.42,0,0,0,2.23-3.25,30.07,30.07,0,0,0,.57-5.11v-50.22h-.38q-13.08,31.9-26.17,63.79c-.34.83-1.19,1.23-2.54,1.2a3,3,0,0,1-2.67-1.35q-14.31-32.65-28.58-65.35l-.38,0q.13,25.13.26,50.23a34.11,34.11,0,0,0,.5,5.27,5.64,5.64,0,0,0,2.1,3.24q1.71,1.39,5.4,1.53l.76,0a3.11,3.11,0,0,1,1.84.51,3.15,3.15,0,0,1,.7,2.24,3.2,3.2,0,0,1-.57,1.94,1.9,1.9,0,0,1-1.72.76l-3.17-.24q-5.85-.48-8.38-.58-4.32-.16-12.58-.14a2.07,2.07,0,0,1-1.71-.9,3.41,3.41,0,0,1-.57-2c0-1.22.34-2,.76-2.24a5,5,0,0,1,2.41-.28q3.69.17,5.4-1.09a5.06,5.06,0,0,0,2.09-3.08,31.85,31.85,0,0,0,.51-5.23q.13-25.1.26-50.21a15.2,15.2,0,0,0-.89-5.91,5.8,5.8,0,0,0-2.6-2.9,23.08,23.08,0,0,0-5-1.67l-1.52-.38a1.92,1.92,0,0,1-1.34-.82,4.06,4.06,0,0,1-.32-1.85,2.08,2.08,0,0,1,.83-2,4.87,4.87,0,0,1,2.6-.39,67.32,67.32,0,0,1,12.32,1.46,20.12,20.12,0,0,1,8.45,4.18,22.7,22.7,0,0,1,6,8.81q10.9,24.76,21.85,49.5h.38q12.53-30.45,25-60.91l7.24.12q7,.12,15.12-.18a2,2,0,0,1,1.72.84,3.26,3.26,0,0,1,.57,2c0,1.22-.36,2-.82,2.27a5.29,5.29,0,0,1-2.35.35q-3.69,0-5.47,1.27a5.45,5.45,0,0,0-2.22,3.26,28.37,28.37,0,0,0-.57,5.11v50.22A28.62,28.62,0,0,0,817.87,1544.46Zm84,0a29.7,29.7,0,0,1-13.21,7.7,60.18,60.18,0,0,1-16.46,2.35c-6.09,0-9.14,0-15.24-.09q-6.87,0-15.12.34a2,2,0,0,1-1.72-.83,3.28,3.28,0,0,1-.57-2c0-1.23.34-2,.76-2.28a5.2,5.2,0,0,1,2.42-.36,9.12,9.12,0,0,0,5.46-1.31,5.51,5.51,0,0,0,2.22-3.28,29.44,29.44,0,0,0,.58-5.13v-50.22a29.43,29.43,0,0,0-.58-5.12,5.53,5.53,0,0,0-2.22-3.29,9.17,9.17,0,0,0-5.46-1.35h-.77a2.67,2.67,0,0,1-1.77-.45,3.31,3.31,0,0,1-.64-2.22,3.21,3.21,0,0,1,.57-2,2,2,0,0,1,1.72-.81q8.25.42,15,.42c7.17,0,10.75,0,17.92-.06a53.09,53.09,0,0,1,11.31.92,25,25,0,0,1,7.75,3.08,14.54,14.54,0,0,1,5.2,5.81,17.4,17.4,0,0,1,1.91,8.13q0,7.85-5.15,12.53a27.32,27.32,0,0,1-12,6.4v.38a27.4,27.4,0,0,1,12,2.46,20.38,20.38,0,0,1,8.39,6.83,16.15,16.15,0,0,1,3,9.37Q907.13,1539,901.85,1544.44Zm78.44,4.67a3.59,3.59,0,0,1-1.15,2.19,4.85,4.85,0,0,1-2.54.62q-20.94.87-41.91,1.43c-4.57.12-9.65.38-15.24.75a1.77,1.77,0,0,1-1.59-.79,3.14,3.14,0,0,1-.57-2c0-1.22.34-2,.76-2.29a5.36,5.36,0,0,1,2.41-.43,9.21,9.21,0,0,0,5.47-1.46,5.76,5.76,0,0,0,2.22-3.34,28.62,28.62,0,0,0,.57-5.13v-50.22a28.26,28.26,0,0,0-.57-5.11,5.46,5.46,0,0,0-2.22-3.24q-1.78-1.29-5.47-1.2l-.76,0a2.73,2.73,0,0,1-1.78-.41,3.31,3.31,0,0,1-.63-2.2,3.24,3.24,0,0,1,.57-2,1.88,1.88,0,0,1,1.59-.86q8.38.2,15.11,0,20-.52,39.89-1.34c2.2-.09,3.3.87,3.3,2.9.15,7.07.23,10.61.38,17.69a2.18,2.18,0,0,1-1.14,1.88,4.51,4.51,0,0,1-2.29.79A5.78,5.78,0,0,1,972,1495a2,2,0,0,1-1.27-1.66,52,52,0,0,0-2.22-9.33,9.15,9.15,0,0,0-3.56-4.68,12.31,12.31,0,0,0-6.66-1.46c-6.81.24-10.21.35-17,.55v32.13c9.19-.27,13.79-.43,23-.77a1.78,1.78,0,0,1,1.39.9,3.53,3.53,0,0,1,.51,1.94,3.18,3.18,0,0,1-.51,1.79,1.65,1.65,0,0,1-1.39.81c-9.2.34-13.8.5-23,.77v23.9a32,32,0,0,0,.63,4.22,4.75,4.75,0,0,0,2.29,2.78q1.9,1.2,6,.95c4.67-.15,7-.23,11.68-.4a14.65,14.65,0,0,0,6.73-1.71,9.61,9.61,0,0,0,3.62-4.25,72.13,72.13,0,0,0,3.24-9.24c.59-1.54,2.1-2.24,4.32-2a4.72,4.72,0,0,1,2.22.92,1.93,1.93,0,0,1,.83,1.86C981.81,1539.48,981.3,1542.69,980.29,1549.11Zm14.72,2.37a1.87,1.87,0,0,1-1.71-.75,3.13,3.13,0,0,1-.57-1.93c0-1.23.34-2,.76-2.31a5.43,5.43,0,0,1,2.41-.5,9.5,9.5,0,0,0,5.46-1.59,5.92,5.92,0,0,0,2.22-3.4,29,29,0,0,0,.57-5.16v-50.09a27.49,27.49,0,0,0-.57-5.16,5.37,5.37,0,0,0-2.22-3.17q-1.77-1.31-5.46-1.13l-.76,0a2.65,2.65,0,0,1-1.78-.36,3.23,3.23,0,0,1-.63-2.18,3.34,3.34,0,0,1,.57-2,2,2,0,0,1,1.71-.9q8.25,0,15.11-.39c8.73-.46,13.1-.71,21.83-1.24q9.77-.46,16.3,2.07t9.58,6.94a16.68,16.68,0,0,1,3,9.71q0,7-5.52,13.16t-15,9.35l2.16,3.27q5.32,8.26,9.64,14.1a87,87,0,0,0,9.39,10.8,13.6,13.6,0,0,0,7.61,2.87c.16,0,.54,0,1.14,0a1.93,1.93,0,0,1,1.45.58,2.62,2.62,0,0,1,.57,1.86,3.53,3.53,0,0,1-.57,2,2.09,2.09,0,0,1-1.71,1l-3.3.12c-3.72.1-6.42.2-8.11.32a20.44,20.44,0,0,1-8.69-3,31.2,31.2,0,0,1-7.17-6.93c-2.4-3-5.88-8.05-10.27-15l-2.29-3.53a11.79,11.79,0,0,0-3.68-3.77q-1.77-1-6.09-.72l-3.68.21v20.62a28,28,0,0,0,.57,5.09,5.2,5.2,0,0,0,2.22,3.16c1.19.82,3,1.16,5.46,1l.76,0a2.7,2.7,0,0,1,1.71.34,2.94,2.94,0,0,1,.7,2.18,3.34,3.34,0,0,1-.57,2,2.1,2.1,0,0,1-1.71.93q-8.13.09-15.87.5Q1003.27,1550.7,995,1551.48Zm112.81-13.58a9.26,9.26,0,0,1,1.79-5.43,28.22,28.22,0,0,1,5.36-5q12.27-9.32,19-15.34a66.1,66.1,0,0,0,12.18-14.77,35.45,35.45,0,0,0,5.43-19q0-7.44-3.95-11.15t-11.1-3a17.51,17.51,0,0,0-10,4,10.9,10.9,0,0,0-4,8.66,7.08,7.08,0,0,0,1.24,4.31,12.4,12.4,0,0,0,2.57,2.63c.87.64,1.32,1,1.32,1.12,0,.72-.7,1.67-2.1,2.83a9,9,0,0,1-5,2,9.35,9.35,0,0,1-7.69-2.33A9.88,9.88,0,0,1,1110,1480a16,16,0,0,1,4.19-10.92,28.32,28.32,0,0,1,10.64-7.33,46.83,46.83,0,0,1,13.12-3.26q11.65-1.14,20.1,3.7t8.46,16.63a29.77,29.77,0,0,1-4.65,16,56.56,56.56,0,0,1-11.1,13c-4.29,3.7-9.92,8.19-16.84,13.23-5.43,4-9.58,7.06-12.27,9.37v.78q20.82-1.92,41.6-4.13a13.6,13.6,0,0,1,5.66.24c1.19.44,1.79,1.91,1.79,4.39q0,5.58-5.43,6.17-26,2.8-52,5.1C1109.64,1543.33,1107.74,1541.54,1107.82,1537.9Zm147-29.78a46.32,46.32,0,0,1-12.69,17.56,36.88,36.88,0,0,1-19.82,8.64c-8,1-14.85-.11-20.37-3.37a30.18,30.18,0,0,1-12.4-14.21,50.8,50.8,0,0,1-4.11-20.77,57.06,57.06,0,0,1,4.11-21.73,42,42,0,0,1,12.4-16.89q8.28-6.81,20.37-8.34,11.46-1.46,19.82,3.3a30.67,30.67,0,0,1,12.69,13.93,47.15,47.15,0,0,1,4.33,20.34A55.5,55.5,0,0,1,1254.82,1508.12Zm70.44,8.57c-7.24,1-16,2.14-25.93,3.67s-18.51,3.12-25.81,4.34c-1.81.3-2.87-.94-2.78-3.32a4.66,4.66,0,0,1,.7-2.58,2.59,2.59,0,0,1,1.78-.88,77.43,77.43,0,0,0,12.28-2.51,9.47,9.47,0,0,0,5.41-4.46c1.18-2.15,1.78-5.55,1.78-10.2v-32.27c.1-4.87-.13-8.33-.7-10.36s-1.57-3.25-3-3.65-3.81-.36-7.11.13l-7.57,1.11c-1.86.28-2.86-.91-2.79-3.31a4.32,4.32,0,0,1,.93-3,3.81,3.81,0,0,1,1.93-.82l1.63-.24a42.58,42.58,0,0,0,12.67-4q6.18-3,13.44-7.1a5.91,5.91,0,0,1,1.54-.55q2.47-.39,2.47,3.18v58.79q0,6.82,1.62,9.52a6,6,0,0,0,5.1,2.91,55.82,55.82,0,0,0,11.18-1l1.54-.26a2,2,0,0,1,1.78.33,3.79,3.79,0,0,1,.69,2.37C1328.13,1514.89,1327.08,1516.43,1325.26,1516.69Zm67.84-37.09a67.87,67.87,0,0,1-16.69,21.32,75.51,75.51,0,0,1-24.64,14.24,13.91,13.91,0,0,1-2.31.56c-2,.35-3.08-.4-3.08-2.27q0-2.48,2.77-3.73c15.75-7.11,29.7-20.53,33.57-37.8a43.87,43.87,0,0,1-10.08,6.65,42,42,0,0,1-10.39,3.26,25.65,25.65,0,0,1-13.56-1,19.62,19.62,0,0,1-9.71-7.49,22,22,0,0,1-3.54-12.67,28.75,28.75,0,0,1,4.47-15.56,39.12,39.12,0,0,1,11.71-12,40.37,40.37,0,0,1,15.4-6.28q14.63-2.62,23.31,4.88t8.69,23.32A54.77,54.77,0,0,1,1393.1,1479.6Z"/><path class="cls-2" d="M467.18,1470.06a35.44,35.44,0,0,0-10.79-14.2,34.85,34.85,0,0,0-16.77-6.95c-3.94-.52-5.9-.78-9.83-1.32v61.86q0,4.93,3,7.21c2,1.51,5.19,2.6,9.64,3.24,9.84,1.42,17.05-.64,21.63-6.12s6.88-13.72,6.88-24.69A47.75,47.75,0,0,0,467.18,1470.06Z"/><path class="cls-2" d="M1238.57,1462.09q-5.73-8.68-16.1-7.36-10.7,1.37-16.42,11.43t-5.74,28.07q0,18,5.74,26.84t16.42,7.49q10.37-1.32,16.1-11.71t5.72-28.23Q1244.29,1470.8,1238.57,1462.09Z"/><path class="cls-2" d="M1046.79,1490.09a15.44,15.44,0,0,0-5-11.82c-3.29-3.08-8.71-4.38-16.24-3.94a14.21,14.21,0,0,0-5.58,1.21,5.17,5.17,0,0,0-2.6,3.18,23.13,23.13,0,0,0-.7,6.62v24.28c4.47-.24,6.7-.37,11.17-.64C1040.49,1508.24,1046.79,1501.9,1046.79,1490.09Z"/><path class="cls-2" d="M887,1518.7c-3.86-2.91-9.93-4.33-18.24-4.3l-5.2,0v25.17a18.5,18.5,0,0,0,.82,6.39,4.55,4.55,0,0,0,2.67,2.77,16.59,16.59,0,0,0,5.65.67c6.23-.07,11.29-1.7,15.06-4.74s6-8.29,5.65-14.8C893.2,1525.53,890.84,1521.61,887,1518.7Z"/><path class="cls-2" d="M877.71,1508.53a12.13,12.13,0,0,0,6.67-4.1q2.93-3.32,2.93-10.28c0-10-5-15-14.87-14.93l-8.89,0v30.11l5.33,0A43.64,43.64,0,0,0,877.71,1508.53Z"/><path class="cls-3" d="M1696.86,1250a5.42,5.42,0,0,0-5.89-1.43,536.93,536.93,0,0,1-124.25,29.57l0-.06c14.79-48.22,31.49-102.85,23.33-157.47a5.43,5.43,0,0,0-10.21-1.67q-3.15,6.15-6.29,12.3l-3,6a5.4,5.4,0,0,0-3,2.39c-13.33,22.48-35.62,40.66-64.44,52.56-20.2,8.33-41.76,12.67-63.57,15.45q27.62-68.79,27.67-130.41V444.36a5.43,5.43,0,0,0-4-5.24L1095.68,338.69A236.58,236.58,0,0,0,1048.33,208a241.53,241.53,0,0,0-120.78-85.33c-3.24-1-6.52-1.93-9.8-2.79l53.72-33.28.13-.1.13-.09.19-.13.16-.13c.12-.1.23-.21.34-.32l.11-.1.18-.2a3.47,3.47,0,0,0,.29-.38l.08-.1.13-.2,0,0c.08-.14.15-.29.22-.43s.1-.16.13-.25a1.17,1.17,0,0,0,0-.11,5.6,5.6,0,0,0,.17-.54.75.75,0,0,0,.05-.16s0-.07,0-.11a.09.09,0,0,1,0,0c.05-.23.07-.46.1-.69v0a1,1,0,0,0,0-.16,5.41,5.41,0,0,0,0-.9.8.8,0,0,1,0-.15l-.06-.28c0-.15,0-.3-.09-.45s0-.09-.05-.14l-.09-.24c-.06-.15-.11-.31-.18-.46l0-.06a6.23,6.23,0,0,0-.41-.71,5.3,5.3,0,0,1,.4.7.42.42,0,0,0,0-.1L945.09,24.88A5.42,5.42,0,0,0,940.27,22H773.55a5.42,5.42,0,0,0-4.82,2.93L740.39,79.52a.37.37,0,0,0,0,.11,4.52,4.52,0,0,1,.41-.71,5,5,0,0,0-.41.71l0,.06a4.28,4.28,0,0,0-.17.46c0,.09-.07.17-.1.26s0,.08,0,.12a3.58,3.58,0,0,0-.09.45c0,.1,0,.2-.07.31a.5.5,0,0,1,0,.12,6.77,6.77,0,0,0,0,.9.59.59,0,0,1,0,.13s0,0,0,.07a5.46,5.46,0,0,0,.1.69.09.09,0,0,0,0,0,.38.38,0,0,0,0,.1c0,.06,0,.11,0,.17s.11.36.18.54a.76.76,0,0,0,0,.11c0,.08.09.16.13.25a4.5,4.5,0,0,0,.23.43s0,0,0,.05a1.77,1.77,0,0,1,.12.17l.1.12c.09.13.18.26.28.38l.18.19s.08.07.11.11l.34.32.16.12.2.14.13.1.13.09,53.72,33.28c-98.6,26-172.5,113.46-178,218.77L250.65,439.12a5.43,5.43,0,0,0-4,5.24v632.86q0,61.69,27.83,130.76c-22.77-2.76-45.33-7.11-66.4-15.8-28.82-11.9-51.11-30.08-64.44-52.56a5.4,5.4,0,0,0-3-2.39l-2.93-5.75q-3.19-6.26-6.39-12.5a5.43,5.43,0,0,0-10.21,1.67c-8.17,54.62,8.55,109.26,23.32,157.47a.14.14,0,0,1,0,.06,536.66,536.66,0,0,1-124.25-29.57,5.44,5.44,0,0,0-6.8,7.42,407.46,407.46,0,0,0,203.32,198.26,5.4,5.4,0,0,0,5.1-.37c1,.18,2.3.52,3.8.95l3.1,72.1a5.54,5.54,0,0,0,3.59,4.88c31.25,17.56,89.73,42.77,191,63.3,57.17,11.59,121.33,20.37,192,26.32,101.61,87.21,189.94,149,210.56,163.17l28,19.25a5.42,5.42,0,0,0,6.16,0l28-19.25c20.85-14.33,111-77.36,214-166.13,66.42-6.79,121.41-15.44,163.4-23.34,112.09-21.11,183.93-46.55,213.78-63.31l.21-.08a5.44,5.44,0,0,0,3.4-4.81l3.11-72.21c1.34-.38,2.53-.68,3.42-.84a5.41,5.41,0,0,0,5.09.37A407.38,407.38,0,0,0,1697.76,1256,5.42,5.42,0,0,0,1696.86,1250ZM1096,351.17c0-.38,0-.75,0-1.13l360.29,98.46v628.72c0,85.24-41.37,181.91-123.33,288.72q-27.23,6.48-59.58,12.51a979.59,979.59,0,0,0,63.1-83.53c53.87-80.56,81.19-153.8,81.19-217.7V482.14a5.43,5.43,0,0,0-4-5.24L1093,389.25A240.2,240.2,0,0,0,1096,351.17Zm311.67,922.24a221.08,221.08,0,0,1,26.38,3.88c14.15,3,35.39,21.46,42.63,38.62-25.81,13.54-66.17,30.3-127,45.91A818.78,818.78,0,0,0,1407.68,1273.41ZM937,32.82,956.2,69.9,880.38,32.82Zm8.17,43.77H768.68l88.23-43.16ZM776.85,32.82h56.58L757.61,69.9ZM764.3,87.45H949.52l-92.61,57.37ZM809.09,128l45,27.85a5.45,5.45,0,0,0,5.72,0l45-27.85q9.91,2.11,19.61,5.12a230.58,230.58,0,0,1,115.3,81.46,226.11,226.11,0,0,1,45.51,136.61c0,125.85-102.39,228.24-228.24,228.24S628.67,477,628.67,351.17C628.67,241.72,706.12,150,809.09,128Zm47.82,462.3C972,590.28,1068.4,508.5,1091,400l315.8,86.31v590.93c0,61.71-26.7,132.92-79.35,211.66q-29.9,44.68-70.82,92.55C1160.09,1398,1030,1410.1,855.76,1410.1c-171.45,0-311.67-18.31-399.12-33.68l-4.35-.77a979.07,979.07,0,0,1-65.92-86.79C333.71,1210.13,307,1138.92,307,1077.22V486.29L622.82,400C645.41,508.5,741.79,590.28,856.91,590.28ZM257.52,1077.22V448.51L617.81,350c0,.38,0,.75,0,1.13a239,239,0,0,0,3.05,38.08L300.15,476.9a5.42,5.42,0,0,0-4,5.24v595.08c0,63.89,27.31,137.13,81.19,217.68a962.9,962.9,0,0,0,58.25,77.69c-20.46-3.84-40.21-7.93-58.93-12.17C297.48,1255.79,257.52,1161,257.52,1077.22Zm102.8,279.4c-55.26-13.22-100.11-27.65-125.8-40.88,7.31-17.12,28.46-35.49,42.56-38.45a219.45,219.45,0,0,1,29-4.08A807.67,807.67,0,0,0,360.32,1356.62Zm-138.86-34.86a5.46,5.46,0,0,0,.24,2.61c-1.14,24.86.12,50.05,1.36,74.44.36,7.06.73,14.36,1,21.51l1,23.2a21.34,21.34,0,0,0-4.56-.61,9,9,0,0,0-2.15.24,396.57,396.57,0,0,1-189.3-179.84,548.69,548.69,0,0,0,114.7,25.74,9.92,9.92,0,0,0,8.83-3.68,11.11,11.11,0,0,0,2.28-10.22c-12.79-41.71-27.08-88.35-24.81-134.72l.91,1.79a10.38,10.38,0,0,0,4.22,4.49c14.63,23.8,38.35,43,68.72,55.52,24.15,10,49.74,14.44,75.33,17.24q9.23,21.35,21,43.33a226.34,226.34,0,0,0-25.46,3.86C254.66,1270.9,225.15,1298.38,221.46,1321.76Zm660.4,453.92-25,17.14L832,1775.68c-19.75-13.57-101.92-71-198.23-152.73q31.83,2.43,65.34,4.09c76.68,62.43,138.16,105.4,154.76,116.81a5.47,5.47,0,0,0,6.16,0c16.73-11.5,79-55,156.51-118.23q34.89-2.25,66.66-5.27C985.54,1703.42,901.82,1762,881.86,1775.68ZM717.4,1627.9q66.11,2.85,138.36,2.86c50.64,0,98.1-1.5,142.09-4-67.56,54.46-121.75,92.73-140.94,106C837.86,1719.58,784.29,1681.75,717.4,1627.9Zm760.18-229.11c-.35,6.9-.72,14-1,21.06l-4.46,103.52c-30.21,16.37-100.14,40.68-208.68,61.12-85.78,16.15-226.14,35.4-407.66,35.4-169.71,0-314.49-11.91-430.32-35.39-97.91-19.85-155-44-186-61.11L235,1419.85c-.3-7.19-.67-14.51-1-21.59-1.2-23.47-2.43-47.69-1.47-71.39,41.87,20.67,124.08,43,222.31,60.26,87.87,15.43,228.77,33.83,401,33.83,379.92,0,552.36-57.64,623.3-94C1480,1350.78,1478.78,1375.16,1477.58,1398.79Zm15.17,44.36a14.45,14.45,0,0,0-6.33.28l1-23.11c.3-7,.66-14.1,1-21,1.29-25.23,2.62-51.32,1.3-77a3.29,3.29,0,0,0,0-.44,1.1,1.1,0,0,0,0-.18s0,0,0-.08c-3.78-23.35-33.21-50.74-53.35-55a223.73,223.73,0,0,0-22.92-3.61q12-22.29,21.3-43.89c24.65-2.83,49.25-7.33,72.52-16.93,30.37-12.54,54.08-31.72,68.71-55.52a10.3,10.3,0,0,0,4.21-4.45l.93-1.82c2.27,46.37-12,93-24.82,134.72a11.15,11.15,0,0,0,2.28,10.21,9.91,9.91,0,0,0,8.81,3.68,548.68,548.68,0,0,0,114.73-25.74A396.57,396.57,0,0,1,1492.75,1443.15Z"/><path class="cls-4" d="M369.13,1506.66l-1.54-.26a59.53,59.53,0,0,1-11.17-2.72,9.37,9.37,0,0,1-5.09-4.61q-1.6-3.24-1.61-10.06v-58.79c0-2.38-.83-3.72-2.47-4a4.79,4.79,0,0,0-1.54,0q-7.23,1.63-13.39,2.6a37,37,0,0,1-12.61-.26l-1.61-.3a2.9,2.9,0,0,0-1.93.18c-.51.26-.87,1.2-.92,2.69-.08,2.4.92,3.9,2.77,4.25l7.53,1.42a21.89,21.89,0,0,1,7.08,2.24,7.21,7.21,0,0,1,3,4.66,44.05,44.05,0,0,1,.69,10.6v32.26c0,4.65-.59,7.86-1.77,9.6a6.11,6.11,0,0,1-5.38,2.66,73.74,73.74,0,0,1-12.23-1.6,2,2,0,0,0-1.77.28,3.72,3.72,0,0,0-.69,2.35c-.1,2.38,1,3.95,2.77,4.25,7.21,1.22,15.94,2.53,25.69,4.29s18.6,3.62,25.88,5c1.81.35,2.87-.87,2.77-3.24a4.78,4.78,0,0,0-.69-2.6A2.66,2.66,0,0,0,369.13,1506.66Z"/><path class="cls-4" d="M486.18,1491.11a43.34,43.34,0,0,0-5.75-22.25,46.3,46.3,0,0,0-15.65-16.08,55.75,55.75,0,0,0-22-8c-7.87-1.14-11.8-1.72-19.66-2.91q-6.67-1-15-2.69a1.53,1.53,0,0,0-1.57.57,2.89,2.89,0,0,0-.57,1.87,3.83,3.83,0,0,0,.63,2.32,3.15,3.15,0,0,0,1.76.71l.76.12a10.36,10.36,0,0,1,5.41,2.17,6.81,6.81,0,0,1,2.21,3.63,31.14,31.14,0,0,1,.56,5.21V1506a28.08,28.08,0,0,1-.56,5,4.57,4.57,0,0,1-2.21,3c-1.17.7-3,.86-5.41.48a4.88,4.88,0,0,0-2.39,0c-.42.18-.72.94-.76,2.15a3.65,3.65,0,0,0,.57,2,2.17,2.17,0,0,0,1.57,1.07q8.31.93,15,1.94c6.95,1,10.43,1.57,17.39,2.58a53,53,0,0,0,22.26-1.22,32.44,32.44,0,0,0,16.91-11Q486.18,1504,486.18,1491.11ZM464,1513.78c-4.58,5.48-11.79,7.54-21.63,6.12-4.45-.64-7.67-1.73-9.64-3.24s-3-3.92-3-7.21v-61.86c3.93.54,5.89.8,9.83,1.32a34.85,34.85,0,0,1,16.77,6.95,35.44,35.44,0,0,1,10.79,14.2,47.75,47.75,0,0,1,3.72,19Q470.9,1505.55,464,1513.78Z"/><path class="cls-4" d="M557.48,1538.38a3,3,0,0,0,1.13-2c1-6.27,1.52-9.41,2.54-15.68a2.23,2.23,0,0,0-.83-2,5.59,5.59,0,0,0-2.21-1.25c-2.21-.61-3.72-.13-4.3,1.33a64.33,64.33,0,0,1-3.23,8.76,7.84,7.84,0,0,1-3.61,3.73q-2.28,1.08-6.7.72c-4.66-.51-7-.77-11.64-1.3a11.12,11.12,0,0,1-5.94-1.82,5.78,5.78,0,0,1-2.27-3.12,32.31,32.31,0,0,1-.64-4.31v-23.9c9.16,1.07,13.73,1.59,22.89,2.59a1.41,1.41,0,0,0,1.39-.61,2.85,2.85,0,0,0,.51-1.72,3.9,3.9,0,0,0-.51-2,2.16,2.16,0,0,0-1.39-1.1c-9.16-1-13.73-1.52-22.89-2.59V1460c6.78.79,10.17,1.18,17,1.93a13.89,13.89,0,0,1,6.64,2.44,11.14,11.14,0,0,1,3.54,5.19,57,57,0,0,1,2.21,9.66,2.46,2.46,0,0,0,1.27,1.85,6.37,6.37,0,0,0,2.66.85,4,4,0,0,0,2.27-.46,1.84,1.84,0,0,0,1.14-1.72c-.15-7.09-.23-10.64-.38-17.74,0-2-1.09-3.15-3.29-3.39q-19.86-2.1-39.71-4.47-6.69-.8-15-2.22a1.6,1.6,0,0,0-1.58.63,3,3,0,0,0-.57,1.89,3.72,3.72,0,0,0,.63,2.29,3.05,3.05,0,0,0,1.77.67l.76.09a10,10,0,0,1,5.43,2,6.53,6.53,0,0,1,2.21,3.56,29.62,29.62,0,0,1,.57,5.19v50.22a27.29,27.29,0,0,1-.57,5,4.69,4.69,0,0,1-2.21,3q-1.77,1.11-5.43.66a4.92,4.92,0,0,0-2.4.08c-.42.2-.72,1-.76,2.18a3.58,3.58,0,0,0,.57,2,2.08,2.08,0,0,0,1.58,1q8.34.66,15.16,1.48,20.85,2.49,41.73,4.68A4.62,4.62,0,0,0,557.48,1538.38Z"/><path class="cls-4" d="M632.52,1542.85a43.13,43.13,0,0,0,9.07-8.48,1.58,1.58,0,0,0,.51-1.22c0-.93-.68-1.91-2-2.94a4.91,4.91,0,0,0-2.28-.93,1.8,1.8,0,0,0-1.78,1,23.48,23.48,0,0,1-8.81,8.49,21.66,21.66,0,0,1-11.72,1.89,26.63,26.63,0,0,1-15.08-6.18,35.9,35.9,0,0,1-10.2-14.08,47.93,47.93,0,0,1-3.61-18.74q0-11.62,3.36-19.73t9.37-11.93a21.57,21.57,0,0,1,13.75-3.17q6.84.59,10.71,4.24a12.3,12.3,0,0,1,3.86,9.35,8,8,0,0,1-1.39,4.83,10,10,0,0,1-3.17,2.9c-1.18.67-1.77,1.08-1.77,1.25a2.75,2.75,0,0,0,.63,1.82,6.87,6.87,0,0,0,2.35,2.15,8.64,8.64,0,0,0,3.86,1.13q6,.48,9.51-3.24a12.93,12.93,0,0,0,3.42-9.42c-.06-6-2.83-10.77-8.49-14.12a45.07,45.07,0,0,0-19.39-5.94q-12.56-1-21.92,3.44A31.91,31.91,0,0,0,576.84,1479q-5.05,9.26-5.06,22a48,48,0,0,0,5.25,22.66,42.57,42.57,0,0,0,14.19,15.95,41.3,41.3,0,0,0,19.7,6.87,55.11,55.11,0,0,0,12.41-.11A22.7,22.7,0,0,0,632.52,1542.85Z"/><path class="cls-4" d="M713.78,1529.36c-2.21-.49-3.72.07-4.31,1.56a66.27,66.27,0,0,1-3.24,8.94,8.46,8.46,0,0,1-3.62,3.92,14,14,0,0,1-6.72,1.09c-4.67-.26-7-.4-11.68-.68-2.71-.07-4.69-.58-6-1.5a5.41,5.41,0,0,1-2.29-3,33.52,33.52,0,0,1-.63-4.27v-23.91c9.19.58,13.78.85,23,1.35a1.5,1.5,0,0,0,1.39-.68,3,3,0,0,0,.51-1.75,3.8,3.8,0,0,0-.51-2,2,2,0,0,0-1.39-1c-9.19-.5-13.78-.77-23-1.35V1474c6.8.42,10.2.63,17,1A13.12,13.12,0,0,1,699,1477a10.42,10.42,0,0,1,3.55,5,55.84,55.84,0,0,1,2.22,9.55,2.24,2.24,0,0,0,1.27,1.77,6.2,6.2,0,0,0,2.67.71,4.22,4.22,0,0,0,2.28-.58,2,2,0,0,0,1.14-1.78c-.15-7.09-.23-10.64-.38-17.73q0-3-3.3-3.2-19.94-1-39.85-2.32-6.72-.43-15.09-1.41a1.68,1.68,0,0,0-1.58.72,3,3,0,0,0-.57,1.92,3.47,3.47,0,0,0,.63,2.25,2.88,2.88,0,0,0,1.77.57l.77.06a9.61,9.61,0,0,1,5.45,1.7,6.18,6.18,0,0,1,2.22,3.44,30.21,30.21,0,0,1,.57,5.16v50.22a29.93,29.93,0,0,1-.57,5.09,5.11,5.11,0,0,1-2.22,3.13c-1.19.81-3,1.13-5.45,1a4.87,4.87,0,0,0-2.41.21c-.43.22-.72,1-.76,2.22a3.37,3.37,0,0,0,.57,2,2,2,0,0,0,1.58.93q8.37.21,15.22.66,20.94,1.35,41.88,2.42a4.67,4.67,0,0,0,2.54-.38,3.23,3.23,0,0,0,1.14-2.09c1-6.33,1.53-9.49,2.54-15.82a2.15,2.15,0,0,0-.82-1.94A5.41,5.41,0,0,0,713.78,1529.36Z"/><path class="cls-4" d="M817.87,1484a5.45,5.45,0,0,1,2.22-3.26q1.78-1.31,5.47-1.27a5.29,5.29,0,0,0,2.35-.35c.46-.25.78-1,.82-2.27a3.26,3.26,0,0,0-.57-2,2,2,0,0,0-1.72-.84q-8.13.3-15.12.18l-7.24-.12q-12.5,30.47-25,60.91h-.38q-10.95-24.74-21.85-49.5a22.7,22.7,0,0,0-6-8.81,20.12,20.12,0,0,0-8.45-4.18,67.32,67.32,0,0,0-12.32-1.46,4.87,4.87,0,0,0-2.6.39,2.08,2.08,0,0,0-.83,2,4.06,4.06,0,0,0,.32,1.85,1.92,1.92,0,0,0,1.34.82l1.52.38a23.08,23.08,0,0,1,5,1.67,5.8,5.8,0,0,1,2.6,2.9,15.2,15.2,0,0,1,.89,5.91q-.13,25.11-.26,50.21a31.85,31.85,0,0,1-.51,5.23,5.06,5.06,0,0,1-2.09,3.08q-1.71,1.26-5.4,1.09a5,5,0,0,0-2.41.28c-.42.23-.72,1-.76,2.24a3.41,3.41,0,0,0,.57,2,2.07,2.07,0,0,0,1.71.9q8.26,0,12.58.14,2.53.11,8.38.58l3.17.24a1.9,1.9,0,0,0,1.72-.76,3.2,3.2,0,0,0,.57-1.94,3.15,3.15,0,0,0-.7-2.24,3.11,3.11,0,0,0-1.84-.51l-.76,0q-3.69-.14-5.4-1.53a5.64,5.64,0,0,1-2.1-3.24,34.11,34.11,0,0,1-.5-5.27q-.13-25.11-.26-50.23l.38,0q14.26,32.68,28.58,65.35a3,3,0,0,0,2.67,1.35c1.35,0,2.2-.37,2.54-1.2q13.1-31.89,26.17-63.79h.38v50.22a30.07,30.07,0,0,1-.57,5.11,5.42,5.42,0,0,1-2.23,3.25c-1.18.87-3,1.27-5.46,1.22a5.25,5.25,0,0,0-2.41.33c-.43.24-.73,1-.77,2.26a3.25,3.25,0,0,0,.58,2,2,2,0,0,0,1.71.86c5.5-.13,10.71-.17,15.63-.09q7.11.12,15.24.58a1.93,1.93,0,0,0,1.72-.8,3.21,3.21,0,0,0,.57-2,3.09,3.09,0,0,0-.7-2.22,2.79,2.79,0,0,0-1.71-.46h-.76a9.17,9.17,0,0,1-5.47-1.39,5.67,5.67,0,0,1-2.22-3.32,28.62,28.62,0,0,1-.57-5.13v-50.22A28.37,28.37,0,0,1,817.87,1484Z"/><path class="cls-4" d="M895.75,1514.23a27.4,27.4,0,0,0-12-2.46v-.38a27.32,27.32,0,0,0,12-6.4q5.14-4.68,5.15-12.53a17.4,17.4,0,0,0-1.91-8.13,14.54,14.54,0,0,0-5.2-5.81,25,25,0,0,0-7.75-3.08,53.09,53.09,0,0,0-11.31-.92c-7.17,0-10.75.06-17.92.06q-6.73,0-15-.42a2,2,0,0,0-1.72.81,3.21,3.21,0,0,0-.57,2,3.31,3.31,0,0,0,.64,2.22,2.67,2.67,0,0,0,1.77.45h.77a9.17,9.17,0,0,1,5.46,1.35,5.53,5.53,0,0,1,2.22,3.29,29.43,29.43,0,0,1,.58,5.12v50.22a29.44,29.44,0,0,1-.58,5.13,5.51,5.51,0,0,1-2.22,3.28,9.12,9.12,0,0,1-5.46,1.31,5.2,5.2,0,0,0-2.42.36c-.42.25-.72,1-.76,2.28a3.28,3.28,0,0,0,.57,2,2,2,0,0,0,1.72.83q8.25-.33,15.12-.34c6.1,0,9.15.07,15.24.09a60.18,60.18,0,0,0,16.46-2.35,29.7,29.7,0,0,0,13.21-7.7q5.28-5.4,5.28-14a16.15,16.15,0,0,0-3-9.37A20.38,20.38,0,0,0,895.75,1514.23Zm-32.2-35,8.89,0c9.91-.06,14.87,4.9,14.87,14.93q0,7-2.93,10.28a12.13,12.13,0,0,1-6.67,4.1,43.64,43.64,0,0,1-8.83.81l-5.33,0Zm24.2,65.43c-3.77,3-8.83,4.67-15.06,4.74a16.59,16.59,0,0,1-5.65-.67,4.55,4.55,0,0,1-2.67-2.77,18.5,18.5,0,0,1-.82-6.39v-25.17l5.2,0c8.31,0,14.38,1.39,18.24,4.3s6.21,6.83,6.41,11.18C893.71,1536.39,891.52,1541.65,887.75,1544.68Z"/><path class="cls-4" d="M982,1531.2a4.72,4.72,0,0,0-2.22-.92c-2.22-.29-3.73.41-4.32,2a72.13,72.13,0,0,1-3.24,9.24,9.61,9.61,0,0,1-3.62,4.25,14.65,14.65,0,0,1-6.73,1.71c-4.67.17-7,.25-11.68.4q-4.07.26-6-.95a4.75,4.75,0,0,1-2.29-2.78,32,32,0,0,1-.63-4.22V1516c9.19-.27,13.79-.43,23-.77a1.65,1.65,0,0,0,1.39-.81,3.18,3.18,0,0,0,.51-1.79,3.53,3.53,0,0,0-.51-1.94,1.78,1.78,0,0,0-1.39-.9c-9.2.34-13.8.5-23,.77v-32.13c6.81-.2,10.21-.31,17-.55a12.31,12.31,0,0,1,6.66,1.46,9.15,9.15,0,0,1,3.56,4.68,52,52,0,0,1,2.22,9.33A2,2,0,0,0,972,1495a5.78,5.78,0,0,0,2.67.46,4.51,4.51,0,0,0,2.29-.79,2.18,2.18,0,0,0,1.14-1.88c-.15-7.08-.23-10.62-.38-17.69,0-2-1.1-3-3.3-2.9q-19.94.81-39.89,1.34-6.72.18-15.11,0a1.88,1.88,0,0,0-1.59.86,3.24,3.24,0,0,0-.57,2,3.31,3.31,0,0,0,.63,2.2,2.73,2.73,0,0,0,1.78.41l.76,0q3.69-.09,5.47,1.2a5.46,5.46,0,0,1,2.22,3.24,28.26,28.26,0,0,1,.57,5.11v50.22a28.62,28.62,0,0,1-.57,5.13,5.76,5.76,0,0,1-2.22,3.34,9.21,9.21,0,0,1-5.47,1.46,5.36,5.36,0,0,0-2.41.43c-.42.26-.72,1.07-.76,2.29a3.14,3.14,0,0,0,.57,2,1.77,1.77,0,0,0,1.59.79c5.59-.37,10.67-.63,15.24-.75q21-.57,41.91-1.43a4.85,4.85,0,0,0,2.54-.62,3.59,3.59,0,0,0,1.15-2.19c1-6.42,1.52-9.63,2.54-16A1.93,1.93,0,0,0,982,1531.2Z"/><path class="cls-4" d="M1027.57,1548.91a3.34,3.34,0,0,0,.57-2,2.94,2.94,0,0,0-.7-2.18,2.7,2.7,0,0,0-1.71-.34l-.76,0c-2.46.14-4.27-.2-5.46-1a5.2,5.2,0,0,1-2.22-3.16,28,28,0,0,1-.57-5.09v-20.62l3.68-.21q4.32-.24,6.09.72a11.79,11.79,0,0,1,3.68,3.77l2.29,3.53c4.39,7,7.87,12,10.27,15a31.2,31.2,0,0,0,7.17,6.93,20.44,20.44,0,0,0,8.69,3c1.69-.12,4.39-.22,8.11-.32l3.3-.12a2.09,2.09,0,0,0,1.71-1,3.53,3.53,0,0,0,.57-2,2.62,2.62,0,0,0-.57-1.86,1.93,1.93,0,0,0-1.45-.58c-.6,0-1,0-1.14,0a13.6,13.6,0,0,1-7.61-2.87,87,87,0,0,1-9.39-10.8q-4.3-5.83-9.64-14.1l-2.16-3.27q9.53-3.13,15-9.35t5.52-13.16a16.68,16.68,0,0,0-3-9.71q-3-4.41-9.58-6.94t-16.3-2.07c-8.73.53-13.1.78-21.83,1.24q-6.86.38-15.11.39a2,2,0,0,0-1.71.9,3.34,3.34,0,0,0-.57,2,3.23,3.23,0,0,0,.63,2.18,2.65,2.65,0,0,0,1.78.36l.76,0q3.69-.18,5.46,1.13a5.37,5.37,0,0,1,2.22,3.17,27.49,27.49,0,0,1,.57,5.16v50.09a29,29,0,0,1-.57,5.16,5.92,5.92,0,0,1-2.22,3.4,9.5,9.5,0,0,1-5.46,1.59,5.43,5.43,0,0,0-2.41.5c-.42.27-.72,1.08-.76,2.31a3.13,3.13,0,0,0,.57,1.93,1.87,1.87,0,0,0,1.71.75q8.25-.78,15-1.14,7.74-.4,15.87-.5A2.1,2.1,0,0,0,1027.57,1548.91Zm-10.85-63.57a23.13,23.13,0,0,1,.7-6.62,5.17,5.17,0,0,1,2.6-3.18,14.21,14.21,0,0,1,5.58-1.21c7.53-.44,13,.86,16.24,3.94a15.44,15.44,0,0,1,5,11.82c0,11.81-6.3,18.15-18.9,18.89-4.47.27-6.7.4-11.17.64Z"/><path class="cls-4" d="M1165.27,1537.91q5.43-.59,5.43-6.17c0-2.48-.6-4-1.79-4.39a13.6,13.6,0,0,0-5.66-.24q-20.79,2.22-41.6,4.13v-.78c2.69-2.31,6.84-5.42,12.27-9.37,6.92-5,12.55-9.53,16.84-13.23a56.56,56.56,0,0,0,11.1-13,29.77,29.77,0,0,0,4.65-16q0-11.79-8.46-16.63t-20.1-3.7a46.83,46.83,0,0,0-13.12,3.26,28.32,28.32,0,0,0-10.64,7.33A16,16,0,0,0,1110,1480a9.88,9.88,0,0,0,2.87,7.43,9.35,9.35,0,0,0,7.69,2.33,9,9,0,0,0,5-2c1.4-1.16,2.1-2.11,2.1-2.83,0-.11-.45-.48-1.32-1.12a12.4,12.4,0,0,1-2.57-2.63,7.08,7.08,0,0,1-1.24-4.31,10.9,10.9,0,0,1,4-8.66,17.51,17.51,0,0,1,10-4q7.14-.71,11.1,3t3.95,11.15a35.45,35.45,0,0,1-5.43,19,66.1,66.1,0,0,1-12.18,14.77q-6.76,6-19,15.34a28.22,28.22,0,0,0-5.36,5,9.26,9.26,0,0,0-1.79,5.43c-.08,3.64,1.82,5.43,5.44,5.11Q1139.28,1540.69,1165.27,1537.91Z"/><path class="cls-4" d="M1254.82,1466.24a30.67,30.67,0,0,0-12.69-13.93q-8.36-4.77-19.82-3.3-12.07,1.54-20.37,8.34a42,42,0,0,0-12.4,16.89,57.06,57.06,0,0,0-4.11,21.73,50.8,50.8,0,0,0,4.11,20.77,30.18,30.18,0,0,0,12.4,14.21c5.52,3.26,12.32,4.4,20.37,3.37a36.88,36.88,0,0,0,19.82-8.64,46.32,46.32,0,0,0,12.69-17.56,55.5,55.5,0,0,0,4.33-21.54A47.15,47.15,0,0,0,1254.82,1466.24Zm-16.25,50.61q-5.73,10.38-16.1,11.71-10.7,1.37-16.42-7.49t-5.74-26.84q0-18,5.74-28.07t16.42-11.43q10.37-1.32,16.1,7.36t5.72,26.53Q1244.29,1506.47,1238.57,1516.85Z"/><path class="cls-4" d="M1325.56,1509.81l-1.54.26a55.82,55.82,0,0,1-11.18,1,6,6,0,0,1-5.1-2.91q-1.62-2.7-1.62-9.52v-58.79q0-3.57-2.47-3.18a5.91,5.91,0,0,0-1.54.55q-7.26,4.08-13.44,7.1a42.58,42.58,0,0,1-12.67,4l-1.63.24a3.81,3.81,0,0,0-1.93.82,4.32,4.32,0,0,0-.93,3c-.07,2.4.93,3.59,2.79,3.31l7.57-1.11c3.3-.49,5.67-.54,7.11-.13s2.45,1.62,3,3.65.8,5.49.7,10.36v32.27c0,4.65-.6,8-1.78,10.2a9.47,9.47,0,0,1-5.41,4.46,77.43,77.43,0,0,1-12.28,2.51,2.59,2.59,0,0,0-1.78.88,4.66,4.66,0,0,0-.7,2.58c-.09,2.38,1,3.62,2.78,3.32,7.3-1.22,16-2.83,25.81-4.34s18.69-2.64,25.93-3.67c1.82-.26,2.87-1.8,2.77-4.18a3.79,3.79,0,0,0-.69-2.37A2,2,0,0,0,1325.56,1509.81Z"/><path class="cls-4" d="M1390.33,1431.73q-8.68-7.53-23.31-4.88a40.37,40.37,0,0,0-15.4,6.28,39.12,39.12,0,0,0-11.71,12,28.75,28.75,0,0,0-4.47,15.56,22,22,0,0,0,3.54,12.67,19.62,19.62,0,0,0,9.71,7.49,25.65,25.65,0,0,0,13.56,1,42,42,0,0,0,10.39-3.26,43.87,43.87,0,0,0,10.08-6.65c-3.87,17.27-17.82,30.69-33.57,37.8q-2.78,1.26-2.77,3.73c0,1.87,1,2.62,3.08,2.27a13.91,13.91,0,0,0,2.31-.56,75.51,75.51,0,0,0,24.64-14.24,67.87,67.87,0,0,0,16.69-21.32,54.77,54.77,0,0,0,5.92-24.55Q1399,1439.24,1390.33,1431.73Zm-7,32.17a42.65,42.65,0,0,1-7.85,6.63,22,22,0,0,1-8,3.39q-7.7,1.38-12.47-3.3t-4.78-13.83a28.83,28.83,0,0,1,4.78-16.73q4.77-6.94,12-8.25c4.11-.73,7.47.23,10.08,2.91a22.31,22.31,0,0,1,5.54,10.38,50.92,50.92,0,0,1,1.62,12.58A28.86,28.86,0,0,1,1383.34,1463.9Z"/><path class="cls-4" d="M710.41,734.6a12.67,12.67,0,0,0-3.2-2.74,5.44,5.44,0,0,0-2.68-.7H667.82a5.43,5.43,0,0,0-3.85,9.27l15.38,15.37a5.42,5.42,0,0,0,6.61.84c3.75-2.22,7.48-4.48,11.21-6.74s7.88-4.79,11.84-7.12a5.45,5.45,0,0,0,1.4-8.18Z"/></g></svg>