<svg id="Info" xmlns="http://www.w3.org/2000/svg" viewBox="0 0 222.4 235.26"><defs><style>.cls-1{fill:none;}.cls-2{fill:#f6c14d;}.cls-3{fill:#f2b826;}.cls-4{fill:#082241;}</style></defs><title>Artboard 17 copy 2</title><path class="cls-1" d="M111.56,35.51l21.08,5.77a21.81,21.81,0,0,0-42.67,0l21.22-5.8A.77.77,0,0,1,111.56,35.51Z"/><path class="cls-2" d="M192.61,170.06v0Z"/><path class="cls-3" d="M134.78,105.68c.08,0,.35-.17.36-.79a3.71,3.71,0,0,0-1-2.43,2.65,2.65,0,0,1-1.46-1c-.07.17-.14.35-.19.5a7.19,7.19,0,0,1-.55,1.23c-.86,1.37-4.68,1.88-5.12,1.93-.08,0-.13,0-.16.16a1.39,1.39,0,0,0,.7,1.29,6.36,6.36,0,0,0,3.56.15A16.22,16.22,0,0,0,134.78,105.68Z"/><path class="cls-2" d="M139.32,101.43a1.35,1.35,0,1,0-1.35-1.35A1.34,1.34,0,0,0,139.32,101.43Z"/><path class="cls-3" d="M156.18,108.63c.49.34.88.65,1.2.91,1.35,1.13,1.26,1.58,1.26,1.59-.09.27-1.19.56-2.44.57h-.36a.7.7,0,0,0-.46,1.24l.1.08c1.65,1.34,2.83,2.82,2.78,3.25-.09.06-.8.46-4.2-.33a.39.39,0,0,0-.15,0,.73.73,0,0,0-.55.25.71.71,0,0,0-.09.73s0,.07,0,.11c.7,1.61,1.14,3.41.93,3.81-.12,0-.69,0-2.24-1.19l-.09-.06a.71.71,0,0,0-.89.2.7.7,0,0,0,.14,1,6.07,6.07,0,0,0,3.06,1.48,1.39,1.39,0,0,0,.88-.29c1-.78.49-2.83-.06-4.36,2.65.49,4,.27,4.47-.69.55-1.12-.72-2.71-1.94-3.88,1-.15,2.09-.53,2.39-1.43.21-.61.19-1.58-1.9-3.27l-.41-.32c.36-.37.86-.9,1.42-1.54a31.32,31.32,0,0,0,2.84-3.77.69.69,0,0,0-.22-1,.7.7,0,0,0-1,.22,33.45,33.45,0,0,1-4.63,5.62.67.67,0,0,0-.22.56A.66.66,0,0,0,156.18,108.63Z"/><path class="cls-3" d="M93.79,80.88h0Z"/><path class="cls-3" d="M93.88,80.87h0Z"/><path class="cls-3" d="M93.62,80.94l0,0Z"/><path class="cls-3" d="M93.35,81.16v0l0,0Z"/><path class="cls-3" d="M93.4,81.1l0,0Z"/><path class="cls-3" d="M93.54,81l0,0Z"/><path class="cls-3" d="M93.47,81l0,0Z"/><path class="cls-3" d="M93.71,80.9h0Z"/><path class="cls-3" d="M172.19,141.75l-2.09-.4a2.66,2.66,0,0,0,1.75-2.15c0-.87-.9-1.11-3.12-1.68-4.13-1.06-11.63-3-14.11-9.19a3.11,3.11,0,0,0,2.95.28c1.27-.7,1.42-2.56,1.37-3.7,3.45.4,5.21,0,5.68-1.1s-.61-2.36-1.55-3.23c3.73-1.19,5.38-2.35,5.33-3.71s-1.62-2.07-3-2.54a29.23,29.23,0,0,0,3.4-2.49c4-3.43,3.92-5.86,3.15-7.29a.71.71,0,0,0-.83-.33s-1.8.58-4.72,1.26a33.49,33.49,0,0,0,2.87-3.92c2.68-4.36,3.43-8.33,2.15-11.51a.69.69,0,0,0-1.23-.11,37.08,37.08,0,0,1-4,4.94c1.4-4.12,3.4-11.77,1.26-17.55a.69.69,0,0,0-1.34.15,27.78,27.78,0,0,1-2,6.2c-1.34-6.05-4.54-6-4.71-6a.71.71,0,0,0-.49.23.68.68,0,0,0-.18.51,26.36,26.36,0,0,1-.33,6.41c-.93-3.75-2.61-5.75-4-6.81a4.8,4.8,0,0,0-3.31-1.19l-.28,0a1.09,1.09,0,0,0-.9.41c-.33.46-.21.91.36,3,.23.84.54,2,.92,3.53a21.08,21.08,0,0,1,.42,9.65,17.11,17.11,0,0,1-3.51,7.22,22.4,22.4,0,0,0-1.81,2.66c0-.92,0-1.75.06-2.3q0-.35,0-.66a7.45,7.45,0,0,0-14.9,0c0,.14,0,.27,0,.41s-.2.48-.28.7a5.85,5.85,0,0,1-.42,1c-.28.44-2.27,1.07-4.11,1.3a1.53,1.53,0,0,0-1.35,1.26,2.77,2.77,0,0,0,1.34,2.77,4.92,4.92,0,0,0,2.42.5,15,15,0,0,0,2.07-.17,19.69,19.69,0,0,0,3.6-.91c.78,1.19,1.21,2.22,1,2.58v0a50.83,50.83,0,0,0-3.56,8.09c-1.79,5.3-2.17,9.75-1.13,13.21a26.54,26.54,0,0,0,3.93,8.21,51.93,51.93,0,0,1-9.61-3.46l1.34-.64a2.09,2.09,0,0,0-1.8-3.78l-2.46,1.17L119.61,134l-4.1,1.95-2.46,1.17a2.12,2.12,0,0,0-1.07,1.19,2.08,2.08,0,0,0,1.27,2.67,1.93,1.93,0,0,0,.7.13,2,2,0,0,0,.9-.21l2.94-1.4a4.67,4.67,0,0,0,0,3.13,5.34,5.34,0,0,0,3,3.47l.52.19-.71.34a2,2,0,0,0-.58,2.73,2.7,2.7,0,0,0,1,1.14,1.78,1.78,0,0,0,.89.26,1.43,1.43,0,0,0,.61-.14l.06,0a3.78,3.78,0,0,0,1.76,1.31,3.86,3.86,0,0,0,1.25.21,3.71,3.71,0,0,0,3.59-4.66l.33-.15a2.29,2.29,0,0,0-1.9-4l-1,.46c-.73-.38-1.48-.93-1.53-1.47a1.06,1.06,0,0,1,.27-.71A107.78,107.78,0,0,0,135.68,145a5.27,5.27,0,0,0,1.88.32,10.66,10.66,0,0,0,3.37-.64c.54.32,1.1.62,1.68.91.09.25.19.51.3.76a17.1,17.1,0,0,0,1.92,3.72v5.76l-7.93,2a.7.7,0,0,0-.53.7.68.68,0,0,0,.58.66c.76.13,1.7.42,1.9,1.05.33,1-1,2.71-1.55,3.22a.69.69,0,0,0-.06.92.67.67,0,0,0,.89.18c2.4-1.35,3.23-1,3.47-.86.67.53.4,2.38.17,3.19a.7.7,0,0,0,.37.83.8.8,0,0,0,.3.06.67.67,0,0,0,.57-.3l6.74-9.8a.67.67,0,0,0,.12-.39v-6.52a7.88,7.88,0,0,0,1.45-2.48l0,0a60.68,60.68,0,0,0,6.75.68c.62,0,1.48.05,2.45.05,2.76,0,6.49-.22,8.5-1.25a2.47,2.47,0,0,0,1.4-1.48.69.69,0,0,0-.48-.86l-.91-.26c1.76-.39,3.53-1.15,3.7-2.6A.7.7,0,0,0,172.19,141.75Zm-57.94-2.15a.7.7,0,0,1-.53,0,.68.68,0,0,1-.4-.36h0a.65.65,0,0,1,0-.53.66.66,0,0,1,.35-.4l11.86-5.64a.8.8,0,0,1,.3-.06.69.69,0,0,1,.63.39.71.71,0,0,1-.33.93l-1.64.78a.74.74,0,0,0-.66-.12,13.77,13.77,0,0,0-4.37,2.51Zm13.46,9.53a2.32,2.32,0,0,1-3.89.8l4-1.9A2.3,2.3,0,0,1,127.71,149.13Zm0-3.67a.7.7,0,0,0,.39-.67,1.42,1.42,0,0,0-.05-.22l.1,0h0c.09,0,.4.16.62.61a1,1,0,0,1,.07.87l-.9.42h0L122.5,149h0l-.63.3c-.08,0-.41-.13-.63-.6h0a1,1,0,0,1-.08-.87l2.88-1.37A12.2,12.2,0,0,0,127.7,145.46Zm-2.14-.7a6.7,6.7,0,0,1-4.27,0,4,4,0,0,1-2.21-2.62c-.53-1.65.12-3.17,2-4.53a10.74,10.74,0,0,1,1.43-.89,2.36,2.36,0,0,0,.1,1.82A2.82,2.82,0,0,0,124,139.8a10.9,10.9,0,0,0-3,1.6.69.69,0,0,0-.1,1,.7.7,0,0,0,.54.26.68.68,0,0,0,.44-.16,8.2,8.2,0,0,1,1.93-1.09,2.1,2.1,0,0,0-.15,1A3.44,3.44,0,0,0,125.56,144.76Zm8.64-1.64c-2-.59-5.17-1.59-7.68-2.6l.56-.33a.7.7,0,0,0-.33-1.31h0c-.79,0-2.54-.19-2.92-.95a1.38,1.38,0,0,1,.14-1.2,52.89,52.89,0,0,0,11,4A4.45,4.45,0,0,0,134.2,143.12Zm15-41.56c4.05-5.07,5.15-11,3.36-18.08-.39-1.54-.7-2.7-.93-3.55s-.36-1.36-.44-1.72l.14,0a3.8,3.8,0,0,1,2.23.93c1.24,1,3.4,3.37,4,9a.7.7,0,0,0,1.33.21,21.64,21.64,0,0,0,1.3-9c.9.51,2.35,2.05,2.9,6.62a81.09,81.09,0,0,1-12,17.55c-.31.3-2.19,2.31-1.58,6.35a11.63,11.63,0,0,1-.12,5.17c-.49-.94-.94-1.77-1.33-2.48a17.74,17.74,0,0,1-1.45-3,23.19,23.19,0,0,1-.22-3.1A21.08,21.08,0,0,1,149.17,101.56Zm-18.24,5.18a6.36,6.36,0,0,1-3.56-.15,1.39,1.39,0,0,1-.7-1.29c0-.13.08-.15.16-.16.44,0,4.26-.56,5.12-1.93a7.19,7.19,0,0,0,.55-1.23c.05-.15.12-.33.19-.5a2.65,2.65,0,0,0,1.46,1,3.71,3.71,0,0,1,1,2.43c0,.62-.28.75-.36.79A16.22,16.22,0,0,1,130.93,106.74Zm5.23,37c-.44-.19-.53-.41-.56-.59a3.52,3.52,0,0,1,.78-2.1,19.51,19.51,0,0,0,3,2.68A5.35,5.35,0,0,1,136.16,143.7Zm12.31,13.35-5.09,7.41a2.7,2.7,0,0,0-.91-1.87,2.33,2.33,0,0,0-1.48-.48,4.27,4.27,0,0,0-1.16.18,3.37,3.37,0,0,0,.35-2.49,2.27,2.27,0,0,0-.83-1.16l6.35-1.58a.69.69,0,0,0,.53-.67v-4.92a2.52,2.52,0,0,0,1.23.4h.09a2.73,2.73,0,0,0,.92-.16Zm17.06-12.91a.69.69,0,0,0-.67.61.68.68,0,0,0,.5.75l3.16.92-.12.06c-2.67,1.37-10.29,1.42-16.62.42a17.18,17.18,0,0,0,.46-2,.7.7,0,0,0-1.34-.35.57.57,0,0,0,0,.14c-.23,1.51-1.33,5.78-3.32,5.78h0c-1.36,0-2.87-3.54-3.29-4.61a43.34,43.34,0,0,1-1.47-4.45c-.08-.29-.12-.46-.12-.47a.7.7,0,0,0-1.36.33c0,.07.26,1,.69,2.39a18.63,18.63,0,0,1-4.57-3.62,23.31,23.31,0,0,1-5-9.33c-1-3.18-.58-7.34,1.11-12.36a49.37,49.37,0,0,1,3.47-7.87v0c.56-1-.15-2.62-1-3.95a2.57,2.57,0,0,0,.54-2.13c-.15-1.2-1-3.06-2-3.28-.47-.09-.88-.72-1-.94a.71.71,0,0,0-.46-.37l-.14,0a6.06,6.06,0,0,1,12.08.62,5.21,5.21,0,0,1,0,.55v0a62.92,62.92,0,0,0,.21,8.86,16.46,16.46,0,0,0,1.6,3.37c.49.9,1.09,2,1.73,3.28a4.52,4.52,0,0,1-3.35,1.3c-.9,0-3.57-.31-4.17-1.63a.7.7,0,1,0-1.27.58,3.36,3.36,0,0,0,1.46,1.51,6.54,6.54,0,0,0,1.77.66,10.74,10.74,0,0,0,2.22.27h0a5.81,5.81,0,0,0,4.48-1.91c1.33-1.6,1.69-4,1.15-7.63s1.1-5.07,1.17-5.13l0-.06c7.24-8.27,11.05-15.08,13-19.34a39.3,39.3,0,0,0,1.8-4.65c1.09,7.39-2.95,16.66-3,16.76a.7.7,0,0,0,1.1.81,39,39,0,0,0,5.65-6.12c1.21,6.49-6.52,14.16-6.6,14.24a.7.7,0,0,0,.63,1.18c3.09-.64,5.35-1.27,6.38-1.58.67,2.93-5.16,6.88-7.61,8.22a.7.7,0,0,0-.35.72.69.69,0,0,0,.54.58c1.78.37,3.47,1.18,3.49,1.66,0,0,0,1.11-5.58,2.7a.7.7,0,0,0-.22,1.23c1.27.93,2.24,2.14,2.11,2.44,0,0-.44.77-5,.13a.7.7,0,0,0-.79.79c.13.83.15,2.77-.58,3.18-.25.13-1.26.39-4.05-2a.69.69,0,0,0-.63-.15.7.7,0,0,0-.48.44c-.48,1.33-1.91,4.08-3.27,4.09h0c-.6,0-1.81-.57-3.27-4.39a.69.69,0,0,0-.9-.4l0,0a.7.7,0,0,0-.36.88c1.35,3.56,2.85,5.29,4.57,5.29h0c2.06,0,3.54-2.65,4.2-4.11l.08.06.18.6c1,3.37,3.32,6.1,7,8.11a35.89,35.89,0,0,0,8.46,3.05c.74.2,1.57.41,2,.57a6,6,0,0,1-3.16,1.41.7.7,0,0,0,0,1.37l3.73.71C170,143.6,167.68,144.07,165.53,144.14Z"/><path class="cls-3" d="M129.24,81l0,0Z"/><path class="cls-3" d="M129.07,80.92l.06,0Z"/><path class="cls-3" d="M129,80.89l0,0Z"/><path class="cls-3" d="M129.31,81.07l0,0Z"/><path class="cls-3" d="M129.4,81.16l0,0,0,0Z"/><path class="cls-3" d="M128.81,80.87h0Z"/><path class="cls-3" d="M129.16,81l.05,0Z"/><path class="cls-3" d="M128.9,80.88h0Z"/><path class="cls-4" d="M100.44,145.82l-.64-.24.61.29Z"/><path class="cls-3" d="M95.49,156H93.4a.7.7,0,0,0-.68.52A6.69,6.69,0,0,1,92,158a8.66,8.66,0,0,0-.83,1.84.71.71,0,0,0,.11.58.69.69,0,0,0,.51.29H92a1.64,1.64,0,0,0,.39-.05.62.62,0,0,0,.3-.18L96,157.15a.7.7,0,0,0-.5-1.19Z"/><path class="cls-3" d="M97.77,107.14A24.48,24.48,0,0,1,96.28,103c-.1-.58-.26-1.36-.42-2.11s-.44-2.12-.44-2.37c0-.88-.39-1.37-1.15-1.46a.85.85,0,0,0-.66.16.68.68,0,0,0-.65,0l-1.18.71-1.26.75a.69.69,0,0,0-.22,1,1.58,1.58,0,0,0,.56.49,3.1,3.1,0,0,1,1.52,1.57,15.62,15.62,0,0,1,1,4.47,11.61,11.61,0,0,1-2.6,2l-1.24.76c-.76.46-1.59.94-2.46,1.43a3.74,3.74,0,0,0-.48-.12,3.3,3.3,0,0,0-2.51.59,3.51,3.51,0,0,0-.36.29,3.35,3.35,0,0,0-3.61.21.7.7,0,1,0,.81,1.13l0,0a2,2,0,0,1,2.43.14.68.68,0,0,0,.54.17.66.66,0,0,0,.49-.3,2,2,0,0,1,.48-.49,1.94,1.94,0,0,1,1.48-.34,2,2,0,0,1,1.63,2.27,2,2,0,0,1-.8,1.29,1.85,1.85,0,0,1-.29.17.69.69,0,0,0-.38.56.68.68,0,0,0,.28.62,2.19,2.19,0,0,1,.42.44,2,2,0,0,1-.45,2.76l0,0a.7.7,0,0,0-.13,1,.68.68,0,0,0,.56.29.74.74,0,0,0,.41-.13,3.36,3.36,0,0,0,1.36-2.2c0-.1,0-.2,0-.3l2.6-2.37,1.07-1c2.3-2.1,4.67-4.26,4.87-4.47a2.38,2.38,0,0,0,.59-1.8A4,4,0,0,0,97.77,107.14Z"/><path class="cls-3" d="M65.82,166.49l-2-2a.69.69,0,0,0-.85-.11l-1.44.87-1.52.91a.7.7,0,0,0-.18,1.05,1.69,1.69,0,0,0,.41.35.73.73,0,0,0,.35.09h4.71a.69.69,0,0,0,.49-1.19Z"/><path class="cls-3" d="M65.06,99.41a5.59,5.59,0,0,0-.19,2.73L66.79,101a3.31,3.31,0,0,1-1.07-.7A3.27,3.27,0,0,1,65.06,99.41Z"/><path class="cls-3" d="M69.59,101a.69.69,0,0,0,.18-.16,3.32,3.32,0,0,1-1.64.46h-.06a3.43,3.43,0,0,1-1.28-.25l-1.92,1.14a5.59,5.59,0,0,1,.19-2.73,3.4,3.4,0,0,1-.29-2.32,6.67,6.67,0,0,0-1,6.33.71.71,0,0,0,.42.46.68.68,0,0,0,.61,0Z"/><path class="cls-3" d="M65.06,99.41a3.27,3.27,0,0,0,.66.89,3.31,3.31,0,0,0,1.07.7,3.43,3.43,0,0,0,1.28.25h.06a3.32,3.32,0,0,0,1.64-.46,3.16,3.16,0,0,0,.74-.58.69.69,0,0,0,0-1,.69.69,0,0,0-1,0h0a2,2,0,0,1-1.39.6,2,2,0,0,1-1.52-3.32h0a.69.69,0,1,0-1-.93,3.37,3.37,0,0,0-.5,3.82Z"/><path class="cls-3" d="M130.27,83.5a7.07,7.07,0,0,0-.86-2.31h0l0,0s0,0,0,0l0,0,0,0,0,0,0,0-.05,0,0,0-.06,0h0l0,0h-.24a7.17,7.17,0,0,0-2.33.8,9.07,9.07,0,0,0-3.9,4.2l-11.15,23.45L100.22,85.87a9.06,9.06,0,0,0-3.89-4.2,7.18,7.18,0,0,0-2.34-.8h-.28l-.06,0,0,0-.05,0,0,0-.05,0,0,0,0,0,0,0,0,0,0,0h0a6.93,6.93,0,0,0-.85,2.31,9,9,0,0,0,.8,5.67l13.84,29.1-6.83,14.34-2.46-1.17a2.11,2.11,0,0,0-1.6-.08,2.09,2.09,0,0,0-.19,3.86l2.37,1.13L97.77,138a3.37,3.37,0,0,1-.32-.19,14.86,14.86,0,0,1-3.37-3.22c-.27-.46-1.51-4.21-2.92-8.63a3.35,3.35,0,0,0,1.21-5.32,3.34,3.34,0,0,0,1.74-2.93,3.39,3.39,0,0,0-1.4-2.73l-1.07,1a2,2,0,0,1,1.08,1.75,2,2,0,0,1-1.94,2h0A.7.7,0,0,0,90.5,121a2,2,0,1,1-1.39,3.66.69.69,0,0,0-.79.17.68.68,0,0,0-.09.8,2.09,2.09,0,0,1,.24,1,1.95,1.95,0,0,1-3.24,1.47.71.71,0,0,0-.94,0,.7.7,0,0,0-.08.93,1.93,1.93,0,0,1,.4,1.18,2,2,0,0,1-2,2,1.51,1.51,0,0,0-1,.39,3.4,3.4,0,0,0-4.35-1.07,3.36,3.36,0,0,0-3.13-2.08,3.4,3.4,0,0,0-3.39,3.39.7.7,0,0,0,1.39.11s0-.07,0-.11a2,2,0,0,1,2-2,2,2,0,0,1,2,1.93.7.7,0,0,0,1.22.45,2,2,0,0,1,3.48,1.2s0,.08,0,.12a.86.86,0,0,0,.05.27.71.71,0,0,0,.36.55.7.7,0,0,0,.85-.14,1.91,1.91,0,0,1,1.44-.64,2,2,0,0,1,2,2,1.83,1.83,0,0,1-.2.85.7.7,0,0,0,.58,1,2,2,0,0,1-.14,3.9,1.83,1.83,0,0,1-.8-.17.7.7,0,0,0-.86,1,2,2,0,0,1-1.59,3.1,1.93,1.93,0,0,1-1.22-.43.7.7,0,0,0-1.11.73,2.08,2.08,0,0,1,.08.54,2,2,0,0,1-2.76,1.79.71.71,0,0,0-1,.7,1.09,1.09,0,0,1,0,.17,2,2,0,0,1-2,2,1.91,1.91,0,0,1-.84-.19.7.7,0,0,0-1,.46,2,2,0,0,1-1.9,1.5,2,2,0,0,1-1.6-.84.69.69,0,0,0-1.14,0,2,2,0,0,1-1.6.84,1.94,1.94,0,0,1-1.79-1.18.7.7,0,0,0-1-.29,1.93,1.93,0,0,1-1.1.34,2,2,0,0,1-2-2,2,2,0,0,1,.13-.69.7.7,0,0,0-1.15-.74,2,2,0,0,1-3.35-1.38,1.92,1.92,0,0,1,.23-.91.7.7,0,0,0-.09-.79.69.69,0,0,0-.76-.2A2,2,0,1,1,54.28,142a.71.71,0,0,0,.45-.66.69.69,0,0,0-.45-.65,2,2,0,0,1,.67-3.8h.11a.7.7,0,0,0,.69-.43.71.71,0,0,0-.18-.79,1.94,1.94,0,0,1-.67-1.47,2,2,0,0,1,2-2,1.88,1.88,0,0,1,.66.12.7.7,0,0,0,.74-1.14,1.93,1.93,0,0,1-.55-1.36,2,2,0,0,1,2-2,2.06,2.06,0,0,1,.73.14.68.68,0,0,0,.79-.19.71.71,0,0,0,.07-.82,2,2,0,0,1,1.66-3h.14a.7.7,0,0,0,.5-1.23,1.93,1.93,0,0,1-.69-1.49,2,2,0,0,1,1.49-1.9.69.69,0,0,0,.53-.62.67.67,0,0,0-.42-.69,2,2,0,0,1-1.17-1.6,1.94,1.94,0,0,1,1.45-2.09.7.7,0,0,0-.14-1.38,1.94,1.94,0,0,1-1.85-1.75,2,2,0,0,1,.57-1.59.7.7,0,0,0-.62-1.18,1.72,1.72,0,0,1-.39,0,2,2,0,0,1-1-3.66.7.7,0,0,0,.32-.83.69.69,0,0,0-.74-.47h-.23a2,2,0,0,1-.63-3.81.7.7,0,0,0-.26-1.36h-.13a2,2,0,1,1,0-3.92l.26,0a.7.7,0,0,0,.5-1.26,2,2,0,1,1,2.4-3.08.71.71,0,0,0,.85,0,.69.69,0,0,0,.25-.81,1.93,1.93,0,0,1-.12-.67,2,2,0,0,1,3.77-.74.71.71,0,0,0,.69.43.69.69,0,0,0,.63-.51,2,2,0,0,1,3.78,0,.7.7,0,0,0,1.29.16,1.94,1.94,0,0,1,1.72-1,2,2,0,0,1,.79,3.75.7.7,0,0,0,0,1.28,2.45,2.45,0,0,1-1,4.7,2.53,2.53,0,0,1-1-.2.68.68,0,0,0-.85.25.7.7,0,0,0,.08.89,1.92,1.92,0,0,1,.59,1.39,2,2,0,0,1-.64,1.45.69.69,0,0,0,.72,1.16,2,2,0,0,1,2.64,1.5.7.7,0,0,0,.39.51.68.68,0,0,0,.65,0,2,2,0,0,1,2.93,1.7,2.24,2.24,0,0,1-.08.57.7.7,0,0,0,1.23.61,2,2,0,0,1,1.6-.84,2,2,0,0,1,1.87,1.37.69.69,0,0,0,.41.44.7.7,0,0,0,.6,0,2,2,0,0,1,1-.25,2,2,0,0,1,1.92,1.58l1.24-.76a3.37,3.37,0,0,0-3.16-2.22,3.41,3.41,0,0,0-1,.14,3.36,3.36,0,0,0-4.32-1.32,3.32,3.32,0,0,0-1.22-1.91c1.75-.22,3.26-1.09,4-3.63A4.1,4.1,0,0,0,85,95.73a6.51,6.51,0,0,0-2.7-2.24l-4.08-2.15a3.35,3.35,0,0,0-2.48-5.61,3.37,3.37,0,0,0-2.18.81,3.35,3.35,0,0,0-5.36-.12,3.36,3.36,0,0,0-5.72,2.08,3.48,3.48,0,0,0-.85-.11,3.35,3.35,0,0,0-3,4.94,3.35,3.35,0,0,0-.49,6.17,3.34,3.34,0,0,0,1.35,5.31,3.35,3.35,0,0,0,2.07,5.09,3.47,3.47,0,0,0-.21,1.57,3.33,3.33,0,0,0,1.52,2.47,3.36,3.36,0,0,0-.06,4.72,3.37,3.37,0,0,0-1,4.19A3.38,3.38,0,0,0,59.57,126a2.81,2.81,0,0,0,0,.5,3.34,3.34,0,0,0-3.14,4.36,3.35,3.35,0,0,0-2.76,4.47l-.19,0a3.38,3.38,0,0,0-3.88,2.78s0,.07,0,.1a3.37,3.37,0,0,0-.72,6.7,3.75,3.75,0,0,0,.47.05,3.34,3.34,0,0,0,3.25,2.45,3.4,3.4,0,0,0,1.44-.32,3.6,3.6,0,0,0,.81.12,2.36,2.36,0,0,0,0,.38,3.35,3.35,0,0,0,1.6,2.86l-1.33,1.23a2.38,2.38,0,0,0-.59,1.8,4.22,4.22,0,0,0,.4,1.59,24.56,24.56,0,0,1,1.5,4.19c.1.57.26,1.35.41,2.1.19.9.45,2.12.45,2.37q0,1.32,1.14,1.47h.13a.83.83,0,0,0,.53-.18.68.68,0,0,0,.65,0l1.18-.7,1.26-.76a.69.69,0,0,0,.33-.45.71.71,0,0,0-.11-.55,1.64,1.64,0,0,0-.55-.49,3,3,0,0,1-1.52-1.57,15.22,15.22,0,0,1-1-4.47,14.07,14.07,0,0,1,3.11-2.27h.17a3.4,3.4,0,0,0,1.23-.23,3.35,3.35,0,0,0,4.87.56,3.36,3.36,0,0,0,5.17-1,3.38,3.38,0,0,0,.72.07,3.33,3.33,0,0,0,2.67-1.33c0,.76,0,1.27,0,1.38a2.38,2.38,0,0,0,.85,1.69,4.28,4.28,0,0,0,1.41.84,24.61,24.61,0,0,1,4,1.9c.47.34,1.14.77,1.78,1.19s1.81,1.19,2,1.37a1.54,1.54,0,0,0,1.06.53,1.23,1.23,0,0,0,.78-.31.91.91,0,0,0,.36-.58.69.69,0,0,0,.43-.48c.12-.45.23-.89.34-1.33s.23-1,.36-1.43a.75.75,0,0,0-.09-.55.74.74,0,0,0-.46-.31,1.56,1.56,0,0,0-.74.05,3.07,3.07,0,0,1-2.19,0,15.79,15.79,0,0,1-3.9-2.42c-.14-.65.4-3.2,1.21-6.21a3.36,3.36,0,0,0,1.46-2.77,4.07,4.07,0,0,0,0-.61,3.35,3.35,0,0,0,1-6.52,3.47,3.47,0,0,0,.06-.64,3.37,3.37,0,0,0-2.74-3.3,3.41,3.41,0,0,0,1.45-1.44c1,1.11,1.78,1.93,2,2.29a2.56,2.56,0,0,0,.53,1.56,4.4,4.4,0,0,0,1.21,1.1A24.56,24.56,0,0,1,93,139.38a16.59,16.59,0,0,0,2.52,2c.24.17.54.37.78.55l-.66,1.7-.46-.22a1.6,1.6,0,0,0-1.48.11,2.56,2.56,0,0,0-1,1.11,2,2,0,0,0,.61,2.68l.33.15a3.72,3.72,0,0,0,3.6,4.66,3.86,3.86,0,0,0,1.25-.21,3.75,3.75,0,0,0,1.75-1.31l.07,0a1.3,1.3,0,0,0,.61.14,1.72,1.72,0,0,0,.86-.24,2.56,2.56,0,0,0,1-1.11h0a2.56,2.56,0,0,0,.24-1.47,1.58,1.58,0,0,0-.85-1.21l-.46-.22.16-.29c2,.37,4.65.2,5.68-2.94a3.51,3.51,0,0,0-.11-2.61l.48.23a2,2,0,0,0,.9.21,1.89,1.89,0,0,0,.7-.13,2,2,0,0,0,1.19-1.07,2.1,2.1,0,0,0-1-2.79l-2.46-1.17,4.14-8.7,4.14,8.7,4.1-1.95,2.84-1.35-6.82-14.34,13.83-29.1A9.06,9.06,0,0,0,130.27,83.5ZM80.56,94.78a1.08,1.08,0,1,1-1.07,1.08A1.08,1.08,0,0,1,80.56,94.78Zm-29,49.05a3.36,3.36,0,0,0,.77,2.15h-.08a2,2,0,0,1-1.65-1.82.68.68,0,0,0-.27-.51.71.71,0,0,0-.43-.14h-.12a2.29,2.29,0,0,1-.69,0,2,2,0,0,1-1.29-.8,2,2,0,0,1-.34-1.48,2,2,0,0,1,2.27-1.63,1.36,1.36,0,0,1,.32.08.7.7,0,0,0,.67-.12.72.72,0,0,0,.25-.64,2.08,2.08,0,0,1,0-.61,2,2,0,0,1,.8-1.29,2.11,2.11,0,0,1,.52-.26,3.29,3.29,0,0,0-.73,2.08,3.35,3.35,0,0,0,1.11,2.49A3.38,3.38,0,0,0,51.6,143.83ZM99,86.47,110.6,111l-1,2L95.22,82.67A7.53,7.53,0,0,1,99,86.47Zm-4.42,2.1a7.47,7.47,0,0,1-.58-5.3l14.9,31.34-1,2Zm29.25-2.1a7.49,7.49,0,0,1,3.74-3.8l-24.35,51.19-1.58-.75ZM98,150.54a2.29,2.29,0,0,1-1.78-.09,2.32,2.32,0,0,1-1.3-2.42l4,1.9A2.22,2.22,0,0,1,98,150.54Zm3.6-2.11a1.5,1.5,0,0,1-.11.34,1.13,1.13,0,0,1-.43.5.26.26,0,0,1-.15,0h0l-1.06-.5-3.36-1.6-1.68-.8h0l-.36-.17-.54-.25a.16.16,0,0,1,0-.06.41.41,0,0,1,0-.19,1.14,1.14,0,0,1,.12-.57,1.57,1.57,0,0,1,.25-.35.8.8,0,0,1,.18-.15l.08,0,.08,0h0L97.34,146l4.2,2,0,0,0,0,0,.1A.82.82,0,0,1,101.6,148.43Zm3.21-5.56a.7.7,0,0,1-.54.26.66.66,0,0,1-.44-.16,12.08,12.08,0,0,0-3.84-1.68c-.24,1.7-.48,4-.5,4.14l-2.62-1.24,2.8-7.24,2.22,1.06c-.5.86-1,1.53-1.28,2a12.3,12.3,0,0,1,4.1,1.88A.7.7,0,0,1,104.81,142.87Zm4.28-4.53a.68.68,0,0,1,.36.4.7.7,0,0,1,0,.53h0a.69.69,0,0,1-.39.36.72.72,0,0,1-.54,0L96.64,134a.69.69,0,0,1-.36-.39.72.72,0,0,1,0-.54.71.71,0,0,1,.39-.35.67.67,0,0,1,.24,0,.72.72,0,0,1,.29.06Zm7.63-3.13-4.58-9.63,1-2,5.19,10.91Zm4.42-2.1-1.58.75-5.67-11.94,1-2Zm7.06-44.54L106,135.21l-1.58-.75,24.35-51.19A7.54,7.54,0,0,1,128.2,88.57Z"/><path class="cls-2" d="M88.1,45.86a23.22,23.22,0,0,0,46.44,0,23.53,23.53,0,0,0-23.22-23.22A23.24,23.24,0,0,0,88.1,45.86Zm23.22,21.83A21.87,21.87,0,0,1,89.78,49.4l21.59-5.9,21.49,5.87A21.86,21.86,0,0,1,111.32,67.69Zm21.83-21.83A21,21,0,0,1,133,48L111.56,42.1a.77.77,0,0,0-.37,0L89.6,48c-.07-.7-.11-1.42-.11-2.14a23.24,23.24,0,0,1,.21-3l21.67-5.92,21.55,5.89A20.8,20.8,0,0,1,133.15,45.86ZM111.32,24a22.24,22.24,0,0,1,21.32,17.25l-21.08-5.77a.77.77,0,0,0-.37,0L90,41.31A21.86,21.86,0,0,1,111.32,24Z"/><path class="cls-2" d="M96.33,10.92a.41.41,0,0,1,0-.11A.41.41,0,0,0,96.33,10.92Z"/><path class="cls-2" d="M126.18,11.4l0,0h0Z"/><path class="cls-2" d="M126.41,10.81v0Z"/><path class="cls-2" d="M126.1,11.47l0,0h0Z"/><path class="cls-2" d="M96.39,11.16l0,.06v0Z"/><path class="cls-2" d="M96.36,11.06s0,0,0,.06a.06.06,0,0,0,0,0Z"/><path class="cls-2" d="M96.39,10.61a.14.14,0,0,0,0,.07,0,0,0,0,1,0,0S96.39,10.62,96.39,10.61Z"/><path class="cls-2" d="M96.6,11.44l.05,0,0,0Z"/><polygon class="cls-2" points="96.43 11.24 96.43 11.25 96.44 11.26 96.44 11.25 96.43 11.24"/><path class="cls-2" d="M96.53,11.37l0,0,0,0Z"/><path class="cls-2" d="M96.36,10.71a.24.24,0,0,0,0,.08s0,0,0,0A.06.06,0,0,1,96.36,10.71Z"/><path class="cls-2" d="M96.45,11.28a.1.1,0,0,1,0,.05.08.08,0,0,1,0,0Z"/><path class="cls-2" d="M126.25,11.33l0-.05h0Z"/><path class="cls-2" d="M96.34,10.94a.22.22,0,0,0,0,.08.17.17,0,0,1,0-.07Z"/><path class="cls-2" d="M126.37,11.12s0,0,0-.06v0S126.37,11.1,126.37,11.12Z"/><path class="cls-2" d="M126.33,11.22a.14.14,0,0,0,0-.06v.06Z"/><polygon class="cls-2" points="126.31 11.26 126.31 11.25 126.31 11.24 126.31 11.25 126.31 11.26"/><path class="cls-2" d="M126.4,11s0,0,0-.08h0A.15.15,0,0,0,126.4,11Z"/><path class="cls-2" d="M126.38,10.68l0-.07,0,0A0,0,0,0,0,126.38,10.68Z"/><path class="cls-2" d="M126.4,10.79s0,0,0-.08a.06.06,0,0,0,0,0Z"/><path class="cls-2" d="M96.47,11.29a.08.08,0,0,0,0,0h0Z"/><path class="cls-2" d="M126.37,10.65l0,0v0Z"/><path class="cls-2" d="M96.34,10.81h0a.41.41,0,0,0,0,.11h0A.41.41,0,0,1,96.34,10.81Z"/><path class="cls-2" d="M96.36,10.69h0a.06.06,0,0,0,0,0A.13.13,0,0,1,96.36,10.69Z"/><path class="cls-2" d="M126.21,10.4l.06.06Z"/><path class="cls-2" d="M126.4,10.75a.06.06,0,0,1,0,0h0S126.39,10.73,126.4,10.75Z"/><path class="cls-2" d="M96.4,10.59v0s0,0,0,0S96.39,10.61,96.4,10.59Z"/><path class="cls-2" d="M126.24,11.34h0l0,0Z"/><path class="cls-2" d="M126.31,11.25h0l0,0v0Z"/><path class="cls-2" d="M126.41,10.92h0v-.11h0Z"/><path class="cls-2" d="M126.39,11v0a.15.15,0,0,1,0-.07S126.4,11,126.39,11Z"/><path class="cls-2" d="M126.36,11.15v0s0,0,0,0A.19.19,0,0,1,126.36,11.15Z"/><path class="cls-2" d="M96.46,10.49l-.06.09h0Z"/><path class="cls-2" d="M96.48,10.46l0-.06Z"/><path class="cls-2" d="M96.41,11.19v.05h0Z"/><path class="cls-2" d="M126.16,11.42l0,0,0,0Z"/><path class="cls-2" d="M96.36,11.08a.06.06,0,0,1,0,0v0A.19.19,0,0,0,96.36,11.08Z"/><path class="cls-2" d="M96.54,11.38l0,0,0,0Z"/><path class="cls-2" d="M96.62,10.33l-.06,0Z"/><path class="cls-2" d="M126.09,10.3l-.06,0Z"/><path class="cls-2" d="M126.34,10.58h0l0-.09Z"/><path class="cls-2" d="M126.18,10.37l-.05,0Z"/><path class="cls-2" d="M96.71,10.26l-.06,0Z"/><path class="cls-2" d="M96.34,11a.17.17,0,0,0,0,.07v0A.28.28,0,0,1,96.34,11Z"/><path class="cls-2" d="M64,32.77h9.68a.7.7,0,0,0,0-1.4H64a.7.7,0,0,0,0,1.4Z"/><path class="cls-2" d="M148.39,32.07a.7.7,0,0,0,.7.7h9.69a.7.7,0,1,0,0-1.4h-9.69A.7.7,0,0,0,148.39,32.07Z"/><path class="cls-2" d="M140.76,17.76a.71.71,0,0,0,.41-.13L149,12a.7.7,0,0,0-.81-1.14l-7.87,5.66a.7.7,0,0,0,.41,1.26Z"/><path class="cls-2" d="M73.71,12l7.87,5.65a.66.66,0,0,0,.4.13.7.7,0,0,0,.41-1.26l-7.86-5.66A.7.7,0,0,0,73.71,12Z"/><path class="cls-2" d="M219.22,160.85a.7.7,0,0,0-.76-.18,69.48,69.48,0,0,1-16,3.8h0c1.9-6.19,4.05-13.21,3-20.22a.7.7,0,0,0-1.31-.21l-.81,1.58-.39.76a.65.65,0,0,0-.38.31,16.84,16.84,0,0,1-8.28,6.74,31.94,31.94,0,0,1-8.16,2,45,45,0,0,0,3.56-16.75V57.41a.72.72,0,0,0-.52-.68L142,43.84A30.38,30.38,0,0,0,136,27.07a31,31,0,0,0-15.51-11q-.61-.19-1.26-.36l6.9-4.27h0v0h0l0,0,0,0h0l0,0,0-.05h0l0,0h0l0-.06v0h0a.19.19,0,0,0,0-.07v0h0s0-.06,0-.09h0v-.19s0,0,0-.06h0a0,0,0,0,1,0,0l0-.06h0l0-.09,0,.09v0l-3.64-7a.69.69,0,0,0-.62-.38h-21.4a.71.71,0,0,0-.62.38l-3.64,7v0l.06-.09-.06.09h0s0,0,0,.06a0,0,0,0,0,0,0h0a.13.13,0,0,0,0,.06s0,0,0,0v0a.41.41,0,0,0,0,.11v0h0a.28.28,0,0,0,0,.09h0v0a.19.19,0,0,1,0,.07h0l0,0,0,.06h0v0h0l0,.05,0,0h0l0,0,0,0h0l0,0h0l6.9,4.27A30.77,30.77,0,0,0,80.71,43.84L33.53,56.73a.71.71,0,0,0-.51.68v81.25a44.93,44.93,0,0,0,3.57,16.79,32.11,32.11,0,0,1-8.52-2,16.84,16.84,0,0,1-8.28-6.74.65.65,0,0,0-.38-.31l-.38-.74c-.27-.54-.54-1.07-.82-1.6a.7.7,0,0,0-1.31.21c-1,7,1.1,14,3,20.22h0a69,69,0,0,1-15.95-3.8.7.7,0,0,0-.76.18.7.7,0,0,0-.11.77,52.3,52.3,0,0,0,26.1,25.46.73.73,0,0,0,.66-.05l.48.12.4,9.26a.72.72,0,0,0,.46.63c4,2.25,11.52,5.49,24.53,8.12a214.82,214.82,0,0,0,24.64,3.38,338.37,338.37,0,0,0,27,21L111,232a.63.63,0,0,0,.39.13.66.66,0,0,0,.4-.13l3.6-2.47a340.29,340.29,0,0,0,27.47-21.33c8.53-.87,15.59-2,21-3,14.4-2.71,23.62-6,27.45-8.13h0a.74.74,0,0,0,.44-.62l.4-9.27.43-.11a.73.73,0,0,0,.66.05,52.3,52.3,0,0,0,26.1-25.46A.7.7,0,0,0,219.22,160.85ZM142.07,45.44V45.3l46.26,12.64v80.72c0,11-5.31,23.36-15.84,37.07-2.33.56-4.87,1.1-7.65,1.61A127.17,127.17,0,0,0,173,166.62c6.91-10.35,10.42-19.75,10.42-28V62.26a.69.69,0,0,0-.51-.67L141.68,50.33A30.26,30.26,0,0,0,142.07,45.44Zm40,118.41a29.14,29.14,0,0,1,3.39.5c1.81.38,4.54,2.76,5.47,5a75.6,75.6,0,0,1-16.31,5.89A105.17,105.17,0,0,0,182.09,163.85ZM121.65,4.57l2.47,4.76-9.73-4.76Zm1,5.62H100l11.33-5.54ZM101.09,4.57h7.27L98.62,9.33Zm-1.61,7h23.78L111.37,19Zm5.75,5.21L111,20.36a.72.72,0,0,0,.37.11.7.7,0,0,0,.37-.11l5.77-3.57c.85.18,1.69.4,2.52.65a29.63,29.63,0,0,1,14.8,10.46,29,29,0,0,1,5.85,17.54,29.31,29.31,0,1,1-35.45-28.65Zm6.14,59.35a30.76,30.76,0,0,0,30.06-24.43L182,62.79v75.87c0,7.93-3.43,17.07-10.19,27.18a126.84,126.84,0,0,1-9.1,11.88c-12.39,2.13-29.1,3.68-51.47,3.68A300.5,300.5,0,0,1,60,177.08l-.56-.1A126.36,126.36,0,0,1,51,165.84c-6.76-10.11-10.19-19.25-10.19-27.18V62.79L81.32,51.71A30.75,30.75,0,0,0,111.37,76.14Zm-77,62.52V57.94L80.67,45.3v.14a31.43,31.43,0,0,0,.39,4.89L39.89,61.59a.69.69,0,0,0-.52.67v76.4c0,8.21,3.51,17.61,10.43,28q3.24,4.84,7.48,10c-2.63-.5-5.17-1-7.57-1.56C39.55,161.59,34.41,149.42,34.41,138.66Zm13.2,35.88c-7.09-1.7-12.85-3.55-16.15-5.25.94-2.2,3.65-4.56,5.47-4.94a28.32,28.32,0,0,1,3.71-.52A104.25,104.25,0,0,0,47.61,174.54Zm-17.83-4.48a.78.78,0,0,0,0,.34c-.15,3.19,0,6.42.17,9.55.05.91.09,1.85.13,2.77l.13,3a2.74,2.74,0,0,0-.58-.07,1.14,1.14,0,0,0-.28,0,50.91,50.91,0,0,1-24.3-23.09,71,71,0,0,0,14.72,3.3,1.29,1.29,0,0,0,1.14-.47,1.44,1.44,0,0,0,.29-1.31c-1.64-5.36-3.48-11.35-3.19-17.3l.12.23a1.38,1.38,0,0,0,.54.58,18.39,18.39,0,0,0,8.82,7.12,35.26,35.26,0,0,0,9.68,2.22c.79,1.82,1.69,3.68,2.7,5.56a29.28,29.28,0,0,0-3.27.5C34.05,163.53,30.26,167.06,29.78,170.06Zm84.8,58.28-3.21,2.2-3.2-2.2c-2.54-1.74-13.09-9.12-25.45-19.61,2.72.21,5.52.38,8.39.53,9.84,8,17.74,13.53,19.87,15a.63.63,0,0,0,.39.13.66.66,0,0,0,.4-.13c2.15-1.47,10.14-7.06,20.09-15.17,3-.2,5.85-.43,8.56-.68C127.89,219.06,117.14,226.58,114.58,228.34Zm-21.12-19q8.49.36,17.76.37c6.51,0,12.6-.2,18.25-.52-8.68,7-15.63,11.91-18.1,13.61C108.93,221.14,102.05,216.28,93.46,209.37ZM191.06,180c0,.89-.09,1.8-.13,2.71L190.36,196c-3.88,2.1-12.86,5.22-26.79,7.84a285.39,285.39,0,0,1-52.35,4.55c-21.79,0-40.37-1.53-55.25-4.54-12.57-2.55-19.89-5.65-23.88-7.85l-.57-13.29c0-.93-.09-1.87-.14-2.78-.15-3-.31-6.12-.18-9.16,5.37,2.65,15.93,5.52,28.54,7.73a300.6,300.6,0,0,0,51.48,4.35c48.78,0,70.92-7.4,80-12.08C191.38,173.79,191.22,176.92,191.06,180Zm1.95,5.7a1.9,1.9,0,0,0-.81,0l.13-3c0-.9.08-1.81.13-2.7a98.46,98.46,0,0,0,.16-9.88v-.08h0c-.48-3-4.26-6.52-6.85-7.06a28.14,28.14,0,0,0-2.94-.47q1.55-2.85,2.74-5.63a34.2,34.2,0,0,0,9.31-2.18,18.39,18.39,0,0,0,8.82-7.12,1.38,1.38,0,0,0,.54-.58l.12-.23c.29,5.95-1.55,11.94-3.19,17.3a1.44,1.44,0,0,0,.29,1.31,1.29,1.29,0,0,0,1.14.47,71.29,71.29,0,0,0,14.73-3.3A51,51,0,0,1,193,185.65Z"/><path class="cls-3" d="M92.56,94.67a1.69,1.69,0,0,0-.41-.35.67.67,0,0,0-.34-.09H87.09a.7.7,0,0,0-.49,1.19l2,2a.74.74,0,0,0,.5.2.64.64,0,0,0,.35-.1l1.44-.86,1.52-.92a.7.7,0,0,0,.34-.48A.74.74,0,0,0,92.56,94.67Z"/><path class="cls-3" d="M39.73,181.66c1.41.29,2.11.43,3.52.7q1.09,2.34,2.12,4.35a47.79,47.79,0,0,1,2.09,4.88v-3.82c0-1.62,0-2.78-.05-3.49l-.93-.17a2,2,0,0,1-.14-.72.37.37,0,0,1,.12-.32.51.51,0,0,1,.36,0l3.7.66a1.5,1.5,0,0,1,.14.63.57.57,0,0,1-.1.4.42.42,0,0,1-.35.05l-.71-.13c0,.7,0,1.87,0,3.49v5.56a1.57,1.57,0,0,1-.18,1c-.12.11-.44.13-1,0a6.7,6.7,0,0,1-1.74-.43,20.7,20.7,0,0,1-1.65-2.82,48.38,48.38,0,0,1-2.65-5.86c0,3.8,0,6,0,6.77l.86.16a1.68,1.68,0,0,1,.14.64.52.52,0,0,1-.11.39.4.4,0,0,1-.34.05c-1.46-.29-2.19-.43-3.65-.74a2,2,0,0,1-.14-.73.33.33,0,0,1,.12-.3.51.51,0,0,1,.36,0l.68.14c0-.7,0-2.55,0-5.54,0-1.61,0-2.78-.06-3.5l-.84-.17a2,2,0,0,1-.15-.72.34.34,0,0,1,.12-.31A.42.42,0,0,1,39.73,181.66Z"/><path class="cls-3" d="M52.34,190.18c0-2.15.49-3.66,1.49-4.54a4.85,4.85,0,0,1,4.09-.91,6.3,6.3,0,0,1,3.71,1.68,6.14,6.14,0,0,1,1.27,4.33q0,3.22-1.5,4.58a4.89,4.89,0,0,1-4.17.94,6,6,0,0,1-3.63-1.72A6.24,6.24,0,0,1,52.34,190.18Zm2.83-.34a7.19,7.19,0,0,0,.67,3.69,2.56,2.56,0,0,0,1.86,1.21,1.65,1.65,0,0,0,1.8-.63,5.63,5.63,0,0,0,.55-3,7.08,7.08,0,0,0-.67-3.71,2.6,2.6,0,0,0-1.87-1.17,1.68,1.68,0,0,0-1.8.62A5.74,5.74,0,0,0,55.17,189.84Z"/><path class="cls-3" d="M65.2,185.92c1.42.19,2.13.28,3.55.45.74,1.51,1.46,2.9,2.14,4.19a40.92,40.92,0,0,1,2.1,4.73c0-1.53,0-2.29,0-3.82s0-2.78,0-3.49l-.93-.1a1.9,1.9,0,0,1-.14-.71.37.37,0,0,1,.12-.32.57.57,0,0,1,.37-.07c1.49.17,2.23.25,3.73.39a1.67,1.67,0,0,1,.14.63.56.56,0,0,1-.11.4.45.45,0,0,1-.35.08l-.72-.08c0,.71,0,1.87,0,3.49v5.56c0,.52-.06.85-.19,1s-.44.17-1,.11a6.85,6.85,0,0,1-1.75-.3,20.13,20.13,0,0,1-1.66-2.7,43.93,43.93,0,0,1-2.67-5.67q0,5.7,0,6.76l.86.11a1.6,1.6,0,0,1,.14.63.55.55,0,0,1-.11.39.42.42,0,0,1-.34.08l-3.68-.47a2,2,0,0,1-.15-.72.33.33,0,0,1,.13-.31.49.49,0,0,1,.36-.06l.68.09c0-.7.06-2.55,0-5.54,0-1.62,0-2.78,0-3.49l-.85-.12a1.93,1.93,0,0,1-.15-.71.37.37,0,0,1,.12-.32A.49.49,0,0,1,65.2,185.92Z"/><path class="cls-3" d="M87.81,198a4.49,4.49,0,0,0,2.6-.6,1.94,1.94,0,0,1,.56,1.23c0,.38-.39.64-1.17.79a10.76,10.76,0,0,1-2.73.12,5.78,5.78,0,0,1-3.75-1.38c-.82-.8-1.23-2.2-1.23-4.21q0-3.3,1.47-4.74A5.19,5.19,0,0,1,87.73,188a8.34,8.34,0,0,1,2.45.41,1,1,0,0,1,.68,1,1.66,1.66,0,0,1-.53,1.09,8,8,0,0,0-3-.9,1.89,1.89,0,0,0-1.79.74,5.58,5.58,0,0,0-.59,3,7.23,7.23,0,0,0,.64,3.62A2.68,2.68,0,0,0,87.81,198Z"/><path class="cls-3" d="M97.59,188.49a7.57,7.57,0,0,1,1.58.15,32.42,32.42,0,0,1,1.64,4.4q1.45,4.31,2.1,5.94l.78,0a1.38,1.38,0,0,1,.15.62.6.6,0,0,1-.11.4.51.51,0,0,1-.35.11c-1.7,0-2.55-.06-4.25-.12a1.89,1.89,0,0,1-.15-.71.38.38,0,0,1,.13-.32.5.5,0,0,1,.37-.09h.36c-.08-.4-.3-1.2-.64-2.4l-3.53-.14c-.31,1.15-.5,1.93-.58,2.35l.79,0a1.37,1.37,0,0,1,.14.62.55.55,0,0,1-.11.4.42.42,0,0,1-.34.1c-1.45-.06-2.17-.1-3.62-.18a1.87,1.87,0,0,1-.14-.71.38.38,0,0,1,.12-.32.54.54,0,0,1,.36-.08l.45,0c.39-1,1-2.74,1.78-5.1a44.85,44.85,0,0,1,1.59-4.29A1.44,1.44,0,0,1,97.59,188.49ZM96,195l2.75.1a27.19,27.19,0,0,0-1.42-4.22A22.62,22.62,0,0,0,96,195Z"/><path class="cls-3" d="M106,190l-1.11,0a1.86,1.86,0,0,1-.14-.7.42.42,0,0,1,.12-.33.53.53,0,0,1,.36-.1l4,0c2.16,0,3.6.26,4.35.77a2.85,2.85,0,0,1,1.11,2.53,3.45,3.45,0,0,1-1.35,2.88,7,7,0,0,1-4.33,1h-.4c0,1.43,0,2.41,0,2.95H110a1.47,1.47,0,0,1,.14.61.63.63,0,0,1-.11.41.49.49,0,0,1-.35.11c-1.93,0-2.9,0-4.83-.05a1.89,1.89,0,0,1-.15-.71.39.39,0,0,1,.13-.33.6.6,0,0,1,.36-.09H106c0-.71,0-2.56,0-5.55C106,191.88,106,190.71,106,190Zm3.35,4.77a3.19,3.19,0,0,0,1.89-.45,1.88,1.88,0,0,0,.6-1.59,2.27,2.27,0,0,0-.57-1.65,2.38,2.38,0,0,0-1.77-.59,2.74,2.74,0,0,0-.84.07,22.62,22.62,0,0,0,0,3v1.24Z"/><path class="cls-3" d="M119,199c0-.7,0-2.55,0-5.55,0-1.61,0-2.69,0-3.23-1.93.15-3,.21-3.26.21a.89.89,0,0,1-.59-.14.69.69,0,0,1-.18-.56,3.38,3.38,0,0,1,.28-1.24,18,18,0,0,0,4.31.33c2.24-.05,3.36-.09,5.6-.17a1,1,0,0,1,.58.1c.13.07.19.25.19.52a2.73,2.73,0,0,1-.44,1.45,8.75,8.75,0,0,0-3.62-.58h-.21c0,.54,0,1.62,0,3.25,0,3,0,4.83,0,5.53l1.27,0a1.34,1.34,0,0,1,.15.61.63.63,0,0,1-.1.41.51.51,0,0,1-.35.13c-2,.06-3,.09-4.91.12a1.8,1.8,0,0,1-.15-.7.42.42,0,0,1,.12-.33.58.58,0,0,1,.37-.11Z"/><path class="cls-3" d="M127.23,188.55c1.82-.08,2.73-.13,4.55-.23a1.29,1.29,0,0,1,.14.6.59.59,0,0,1-.11.42.51.51,0,0,1-.34.13l-.81,0c0,.71,0,1.88,0,3.5,0,3,0,4.83,0,5.54l1.11-.07a1.33,1.33,0,0,1,.14.61.63.63,0,0,1-.1.41.51.51,0,0,1-.35.14c-1.83.1-2.75.15-4.58.23a1.8,1.8,0,0,1-.15-.7.39.39,0,0,1,.13-.33.49.49,0,0,1,.36-.12l.78,0c0-.71,0-2.56,0-5.55,0-1.61,0-2.78-.05-3.48l-1.11,0a1.79,1.79,0,0,1-.15-.69.44.44,0,0,1,.13-.34A.59.59,0,0,1,127.23,188.55Z"/><path class="cls-3" d="M133.61,194.38a7,7,0,0,1,1.51-4.88,5.94,5.94,0,0,1,4.11-1.86,5.16,5.16,0,0,1,3.73.82c.85.69,1.28,2,1.28,4a7.15,7.15,0,0,1-1.51,4.92,6,6,0,0,1-4.18,1.91,5,5,0,0,1-3.67-.88C134,197.75,133.61,196.39,133.61,194.38Zm2.86-1a6.29,6.29,0,0,0,.67,3.53,2,2,0,0,0,1.88.78,2.16,2.16,0,0,0,1.81-1,6.54,6.54,0,0,0,.55-3.09c0-1.82-.23-3-.67-3.56a2.06,2.06,0,0,0-1.88-.74,2.14,2.14,0,0,0-1.81,1A6.36,6.36,0,0,0,136.47,193.39Z"/><path class="cls-3" d="M146.55,187.15l3.56-.37c.74,1.33,1.45,2.57,2.14,3.7a34.17,34.17,0,0,1,2.1,4.24V190.9c0-1.61,0-2.77,0-3.48l-.94.12a1.88,1.88,0,0,1-.14-.68.47.47,0,0,1,.13-.35.6.6,0,0,1,.36-.15c1.49-.18,2.24-.27,3.73-.47a1.42,1.42,0,0,1,.14.6.64.64,0,0,1-.11.42.5.5,0,0,1-.35.16l-.72.09c0,.71,0,1.88,0,3.5v5.56a1.83,1.83,0,0,1-.18,1,1.48,1.48,0,0,1-1,.33,6.39,6.39,0,0,1-1.76.1,13.73,13.73,0,0,1-1.65-2.32,33.57,33.57,0,0,1-2.68-5.05q0,5.7,0,6.75L150,197a1.26,1.26,0,0,1,.14.6.69.69,0,0,1-.1.42.57.57,0,0,1-.34.15c-1.48.16-2.22.24-3.69.38a1.72,1.72,0,0,1-.15-.69.45.45,0,0,1,.12-.34.7.7,0,0,1,.37-.14l.68-.07c0-.71.06-2.56.05-5.55,0-1.61,0-2.77-.05-3.48l-.86.09a1.71,1.71,0,0,1-.15-.68.47.47,0,0,1,.13-.35A.6.6,0,0,1,146.55,187.15Z"/><path class="cls-3" d="M159.57,185.61c3-.42,4.51-.64,7.51-1.12a1.36,1.36,0,0,1,.76,0c.15.09.22.3.22.63a2.73,2.73,0,0,1-.4,1.33,11.65,11.65,0,0,0-4.44,0l-.4.06c0,.54,0,1.65,0,3.31,1.67-.25,2.5-.37,4.16-.64a2.91,2.91,0,0,1,.14.89.55.55,0,0,1-.1.39.59.59,0,0,1-.38.16c-1.52.24-2.29.36-3.82.58,0,2.13,0,3.41,0,3.84l.69-.1a12.81,12.81,0,0,0,4.4-1.33,1.83,1.83,0,0,1,.36,1.12.82.82,0,0,1-.33.71,3.43,3.43,0,0,1-1.37.42c-2.93.46-4.4.68-7.34,1.08a1.67,1.67,0,0,1-.15-.68.45.45,0,0,1,.12-.34.67.67,0,0,1,.37-.16l.6-.08c0-.72.05-2.57.05-5.56,0-1.62,0-2.78-.05-3.48l-.94.13a1.71,1.71,0,0,1-.15-.68.48.48,0,0,1,.12-.35A.66.66,0,0,1,159.57,185.61Z"/><path class="cls-3" d="M170,184c1.79-.3,2.69-.46,4.48-.78.26,1,.53,2,.82,3s.57,2,.84,3.12a7.83,7.83,0,0,0,.48,1.61s.32-1.13.85-3.38.91-4,1.13-5.16c1.72-.33,2.58-.51,4.3-.86a1.34,1.34,0,0,1,.14.58.73.73,0,0,1-.11.44.53.53,0,0,1-.34.18l-.62.12c0,.94.05,2.49.15,4.66s.18,3.6.24,4.3l.77-.16a1.16,1.16,0,0,1,.14.58.7.7,0,0,1-.1.43.62.62,0,0,1-.35.19l-3.74.75A1.84,1.84,0,0,1,179,193a.48.48,0,0,1,.12-.35.61.61,0,0,1,.36-.17l.3-.06c0-1.08,0-3.66-.15-7.75q-.63,2.85-1.23,5a18.93,18.93,0,0,1-.91,2.73,1.52,1.52,0,0,1-1.16.76,4.78,4.78,0,0,1-1.41.17,8.21,8.21,0,0,1-.78-1.9c-.43-1.22-1-3.05-1.64-5.49q0,6.26,0,7.85l.64-.11a1.27,1.27,0,0,1,.14.58.69.69,0,0,1-.11.43.56.56,0,0,1-.35.18l-3.44.58a1.64,1.64,0,0,1-.15-.68.42.42,0,0,1,.13-.34.61.61,0,0,1,.36-.17l.53-.09q.09-1.06.24-4.38c.1-2.21.15-3.78.14-4.71l-.93.15a1.79,1.79,0,0,1-.14-.67.48.48,0,0,1,.13-.36A.67.67,0,0,1,170,184Z"/></svg>