<svg xmlns="http://www.w3.org/2000/svg" viewBox="0 0 181 134"><defs><style>.cls-1{fill:#f2b826;}.cls-2{font-size:42px;fill:#24588d;font-family:RougeScript-Regular, Rouge Script;letter-spacing:-0.08em;}.cls-3{letter-spacing:0em;}.cls-4{letter-spacing:-0.02em;}.cls-5{letter-spacing:0em;}</style></defs><title>Artboard 15</title><g id="Info"><path class="cls-1" d="M99.27,44.69c.13-.12.24-.08.26.09l.2,1.74A.68.68,0,0,0,100,47l1.55.81c.15.08.15.21,0,.28L100,48.8a.7.7,0,0,0-.34.43L99.35,51c0,.16-.15.2-.26.07l-1.18-1.28a.68.68,0,0,0-.52-.19l-1.73.25c-.17,0-.24-.08-.16-.23l.86-1.52a.68.68,0,0,0,0-.56l-.76-1.57c-.08-.15,0-.25.16-.21l1.72.34a.64.64,0,0,0,.53-.15Z"/><path class="cls-1" d="M67.65,53.23c.09,0,.14,0,.1.13l-.41.91a.37.37,0,0,0,0,.31l.52.86c.05.08,0,.14-.08.13l-1-.1a.39.39,0,0,0-.29.11l-.65.77c-.06.07-.13,0-.15,0l-.21-1a.39.39,0,0,0-.2-.25l-.93-.38c-.09,0-.09-.11,0-.16l.87-.5a.41.41,0,0,0,.17-.26l.08-1c0-.1.07-.13.14-.06l.75.67a.37.37,0,0,0,.3.08Z"/><path class="cls-1" d="M62,47.72c.07,0,.07.11,0,.13l-.85.3a.31.31,0,0,0-.19.2l-.22.84c0,.08-.08.09-.14,0L60,48.54a.39.39,0,0,0-.26-.11l-.92.06c-.09,0-.12-.05-.07-.12l.5-.71a.32.32,0,0,0,0-.27l-.35-.8c0-.08,0-.13.1-.11l.88.24a.37.37,0,0,0,.29-.06l.69-.55c.07,0,.13,0,.14.06l.05.86a.31.31,0,0,0,.14.23Z"/><path class="cls-1" d="M74.27,44.69c.13-.12.24-.08.26.09l.2,1.74A.68.68,0,0,0,75,47l1.55.81c.15.08.15.21,0,.28L75,48.8a.7.7,0,0,0-.34.43L74.35,51c0,.16-.15.2-.26.07l-1.18-1.28a.68.68,0,0,0-.52-.19l-1.73.25c-.17,0-.24-.08-.16-.23l.86-1.52a.68.68,0,0,0,0-.56l-.76-1.57c-.08-.15,0-.25.16-.21l1.72.34a.64.64,0,0,0,.53-.15Z"/><path class="cls-1" d="M53.37,53.85c0,.06,0,.09-.06.07l-.6-.17a.22.22,0,0,0-.19,0l-.45.38s-.08,0-.09,0l-.06-.61a.21.21,0,0,0-.1-.16L51.28,53c-.05,0-.05-.08,0-.1l.56-.2a.21.21,0,0,0,.12-.14l.12-.59c0-.06,0-.07.09,0l.41.48a.25.25,0,0,0,.18.08l.61,0c.06,0,.08,0,0,.08l-.31.5a.25.25,0,0,0,0,.19Z"/><path class="cls-1" d="M107.65,55.23c.09,0,.14,0,.1.13l-.41.91a.37.37,0,0,0,0,.31l.52.86c.05.08,0,.14-.08.13l-1-.1a.39.39,0,0,0-.29.11l-.65.77c-.06.07-.13,0-.15,0l-.21-1a.39.39,0,0,0-.2-.25l-.93-.38c-.09,0-.09-.11,0-.16l.87-.5a.41.41,0,0,0,.17-.26l.08-1c0-.1.07-.13.14-.06l.75.67a.37.37,0,0,0,.3.08Z"/><path class="cls-1" d="M116,51.72c.07,0,.07.11,0,.13l-.85.3a.31.31,0,0,0-.19.2l-.22.84c0,.08-.08.09-.14,0l-.58-.68a.39.39,0,0,0-.26-.11l-.92.06c-.09,0-.12-.05-.07-.12l.5-.71a.32.32,0,0,0,0-.27l-.35-.8c0-.08,0-.13.1-.11l.88.24a.37.37,0,0,0,.29-.06l.69-.55c.07,0,.13,0,.14.06l0,.86a.31.31,0,0,0,.14.23Z"/><path class="cls-1" d="M125.37,53.85c0,.06,0,.09-.06.07l-.6-.17a.22.22,0,0,0-.19,0l-.45.38s-.08,0-.09,0l-.06-.61a.21.21,0,0,0-.1-.16l-.54-.33s0-.08,0-.1l.56-.2a.21.21,0,0,0,.12-.14l.12-.59c0-.06,0-.07.09,0l.41.48a.25.25,0,0,0,.18.08l.61,0c.06,0,.08,0,.05.08l-.31.5a.25.25,0,0,0,0,.19Z"/><path class="cls-1" d="M109.15,42.14q0-4-2.6-4.29a1.19,1.19,0,0,1,1.22-.87c1.56,0,2.6.92,3.11,2.76a8.39,8.39,0,0,1,.26,2,10.49,10.49,0,0,1-1.43,5c-1.87,3.4-6.88,7.49-11,8.28a16,16,0,0,1-3.09.3,14.09,14.09,0,0,1-2.12-.1,15.55,15.55,0,0,1-3.72,9q4.64,4.9,9.54,4.9A7,7,0,0,0,103.73,68a3.34,3.34,0,0,0,1.48-2.65.31.31,0,0,1,.23-.3.47.47,0,0,1,.43,0,.39.39,0,0,1,.21.4,4.63,4.63,0,0,1-1.76,3.32,7.21,7.21,0,0,1-5.08,1.63q-5.31,0-10.67-4.84A13.52,13.52,0,0,1,79.34,69c-2.76,0-4.83-.63-6.23-1.91A6.59,6.59,0,0,1,71,62a9.16,9.16,0,0,1,2.17-5.87,30.48,30.48,0,0,1,6-5.38,19.23,19.23,0,0,1-1-5.72,14,14,0,0,1,.61-4.33,5.55,5.55,0,0,1,2.45-3,8.24,8.24,0,0,1,4.44-1.15,5.27,5.27,0,0,1,3.82,1.2,4.25,4.25,0,0,1,1.23,3.19,4.58,4.58,0,0,1-.46,2.2l-.74,1.27a6,6,0,0,1-.92,1.07l-1,1c-.23.22-.64.55-1.22,1l-1.22.92-1.41,1c-.7.48-1.15.8-1.35,1A32.63,32.63,0,0,0,89,63.42a15.11,15.11,0,0,0,3.42-8.36c-2.35-.69-3.52-1.89-3.52-3.63a1.77,1.77,0,0,1,1-1.63,2.77,2.77,0,0,1,1.4-.31c.6,0,1.12.43,1.56,1.28a7.23,7.23,0,0,1,.66,3.32,10.65,10.65,0,0,0,1.89.15c4.63,0,10-3.67,12.1-7A9.39,9.39,0,0,0,109.15,42.14ZM79.49,67.76a11.9,11.9,0,0,0,8.22-3A34.52,34.52,0,0,1,79.65,52.2q-5.88,4.74-5.87,10.25a5.46,5.46,0,0,0,1.35,3.83A5.65,5.65,0,0,0,79.49,67.76Zm6.94-30.05q-4.84,0-4.84,6.94a22.49,22.49,0,0,0,.4,4.08,38.22,38.22,0,0,0,5.31-4.26,5.6,5.6,0,0,0,1.79-4C89.09,38.63,88.2,37.71,86.43,37.71Zm4.65,13c-.62,0-.92.35-.92,1.07s.76,1.48,2.29,2.09C92.38,51.72,91.93,50.67,91.08,50.67Z"/><text class="cls-2" transform="translate(10.62 34.56)">F<tspan class="cls-3" x="20.23" y="0">arhan </tspan><tspan class="cls-4" x="98.61" y="0">G</tspan><tspan class="cls-5" x="123.27" y="0">azi</tspan><tspan class="cls-5"><tspan x="-1.99" y="52">Sara Adam</tspan></tspan><tspan class="cls-3"><tspan x="19.84" y="79">de Souza</tspan></tspan></text></g></svg>