<?xml version="1.0" encoding="utf-8"?>
<!-- Generator: Adobe Illustrator 23.0.3, SVG Export Plug-In . SVG Version: 6.00 Build 0)  -->
<svg version="1.1" id="Layer_1" xmlns="http://www.w3.org/2000/svg" xmlns:xlink="http://www.w3.org/1999/xlink" x="0px" y="0px"
	 viewBox="0 0 181 134" style="enable-background:new 0 0 181 134;" xml:space="preserve">
<style type="text/css">
	.st0{enable-background:new    ;}
	.st1{fill:#FFFFFF;}
	.st2{fill:#F2B826;}
</style>
<title>Artboard 15 copy</title>
<g id="Info">
	<g class="st0">
		<path class="st1" d="M23.1,22.9c-0.6-0.1-1.1-0.3-1.5-0.6v-0.6c0.4,0.3,1,0.5,1.6,0.6c0.7-4.1,1.2-6.6,1.5-7.4s0.7-1.5,1-2
			c0.7-1.1,1.6-1.6,2.7-1.6c0.3,0,0.5,0.1,0.6,0.4l0,0.2c-0.5,0-1,0.2-1.4,0.5s-0.7,0.8-1,1.3c-0.2,0.5-0.4,1.2-0.6,2.2
			c-0.3,1.5-0.5,2.8-0.6,4c-0.1,1.2-0.2,1.8-0.2,1.9c0,0.2,0,0.5-0.1,0.7c1-0.1,1.8-0.4,2.6-0.8c0.1-1.4,0.5-2.6,1.1-3.6
			c0.6-1,1.4-1.6,2.3-1.6c0.6,0,0.8,0.3,0.8,0.9c0,1.2-0.7,2.4-2,3.6c-0.3,0.3-0.6,0.5-0.9,0.7C29,22,29,22.5,29,22.8
			c0,1.7,0.4,2.5,1.2,2.5c0,0.3-0.2,0.4-0.6,0.4c-0.6,0-1.1-0.3-1.4-1c-0.3-0.6-0.5-1.5-0.5-2.5c-0.8,0.4-1.7,0.6-2.6,0.7
			c-0.6,4.8-1.3,8-2.2,9.6c-0.4,0.8-0.9,1.6-1.5,2.3c-1.2,1.5-2.9,2.2-5.3,2.2c-1.1,0-2.1-0.2-2.9-0.7c-0.8-0.4-1.4-1-1.8-1.7
			c-0.4-0.9-0.7-1.8-0.7-2.6c0-0.8,0.1-1.6,0.4-2.4c0.2-0.8,0.6-1.5,1-2.2c0.4-0.7,1-1.3,1.7-1.7s1.5-0.7,2.3-0.7
			c0.4,0,0.7,0.2,0.9,0.5l0.1,0.2c-1.9,0-3.4,0.9-4.5,2.6c-0.7,1.1-1.1,2.3-1.1,3.5c0,0.4,0,0.8,0.1,1.2c0.3,1.6,1.2,2.6,2.7,3
			c0.4,0.1,0.8,0.1,1.4,0.1c0.6,0,1.2-0.2,1.9-0.5c0.7-0.3,1.3-0.8,1.7-1.5c0.5-0.7,0.9-1.4,1.3-2.1s0.7-1.7,1-2.8
			C22.2,27.4,22.6,25.3,23.1,22.9z M36.5,7.1c0.7,0,1.1,0.4,1.1,1.3c0,0.7-0.4,1.3-1.1,1.9s-1.8,0.9-3.3,0.9c-1.5,0-3.6-0.4-6.2-1.2
			c-2.6-0.8-4.6-1.2-5.9-1.2c-2.9,0-5.1,1.2-6.8,3.5c-1.1,1.6-1.6,3.2-1.6,5c0,2.6,0.9,4.2,2.6,5.1c0.6,0.3,1.3,0.4,2,0.4
			c0,0.2-0.1,0.3-0.3,0.5c-0.2,0.2-0.4,0.3-0.6,0.3c-2.4,0-4-1-4.9-2.9c-0.4-0.9-0.6-1.9-0.6-2.9c0-1,0.2-2.1,0.6-3.2
			c0.9-2.4,2.4-4.2,4.7-5.4c1.5-0.7,3-1.1,4.6-1.1s3.6,0.4,6,1.1c2.4,0.7,4.3,1.1,5.5,1.1c1.9,0,3-0.4,3.3-1.3
			c0.2-0.4,0.1-0.7-0.1-0.8c0,0-0.1,0-0.1,0C35.7,7.4,36,7.1,36.5,7.1z M31.2,17c-0.4,0-0.8,0.4-1.1,1.1c-0.4,0.7-0.6,1.6-0.8,2.6
			c1.1-0.9,1.8-1.9,2.1-2.9c0-0.2,0.1-0.3,0.1-0.5C31.4,17.1,31.3,17,31.2,17z"/>
	</g>
	<g class="st0">
		<path class="st1" d="M31.8,34.6c-1.8,0-2.7-1.3-2.7-4c0-1.5,0.4-3.2,1.2-5.1c1.1-2.5,2.5-4.1,4.3-4.9c0.6-0.2,1.2-0.4,1.8-0.4
			s1.1,0.2,1.5,0.5c0.4,0.4,0.5,0.8,0.5,1.2c0,0.2-0.1,0.3-0.3,0.3c-0.2,0-0.3-0.1-0.3-0.3s-0.1-0.4-0.3-0.6
			c-0.2-0.2-0.5-0.3-0.9-0.3c-1.4,0-2.7,1.3-3.8,3.8c-1.1,2.4-1.6,4.6-1.6,6.7c0,1.3,0.3,1.9,0.9,1.9s1.3-0.5,2.1-1.5
			c0.8-1,1.6-2.1,2.3-3.4c1.5-2.7,2.4-4.5,2.7-5.3c0.3-0.8,0.6-1.2,0.9-1.2c0.6,0,0.8,0.5,0.8,1.4c0,0.3,0,0.6-0.1,1
			c-0.7,3.6-1.1,5.7-1.2,6.2c-0.1,0.6-0.1,1-0.1,1.2c0,1.1,0.3,1.6,0.8,1.6c0.6,0,1.4-0.8,2.5-2.3c1.1-1.5,2-3.1,2.7-4.6l1.1-2.3
			h0.9c-0.1,0.3-0.3,0.6-0.5,1.1c-0.2,0.5-0.6,1.3-1.3,2.5c-0.6,1.2-1.2,2.2-1.8,3.1c-0.6,0.9-1.2,1.7-1.9,2.4
			c-0.7,0.7-1.3,1.1-1.8,1.1c-1.7,0-2.5-1.2-2.5-3.6c0-0.8,0.1-1.7,0.3-2.8h-0.2C35.3,32.5,33.3,34.6,31.8,34.6z"/>
		<path class="st1" d="M45.9,34.6c-0.6,0-0.9-0.5-0.9-1.4c0-0.5,0.6-4.3,1.9-11.3c0.1-0.5,0.3-0.7,0.6-0.7c0.4,0,0.7,0.3,0.9,0.9
			c0.1,0.3,0.2,0.7,0.2,1c0,0.4,0,0.8-0.1,1.2L47.9,27H48c1.9-4.5,3.7-6.7,5.3-6.7c0.9,0,1.5,0.4,1.8,1.3c0.1,0.3,0.2,0.7,0.2,1.2
			s-0.1,0.9-0.4,1.4c-0.4,0.9-1.1,1.3-1.9,1.3c-0.2,0-0.3,0-0.4-0.1s-0.2-0.2-0.2-0.4c0.2,0,0.4-0.3,0.7-1c0.3-0.7,0.5-1.3,0.5-1.8
			c0-0.6-0.1-0.9-0.6-1c-0.8,0-1.7,1-2.8,3.1c-1.1,2-1.9,4-2.6,5.8c-0.6,1.9-1,3.1-1.1,3.6C46.4,34.3,46.2,34.6,45.9,34.6z"/>
		<path class="st1" d="M63.9,7.2c1,0,1.5,0.7,1.5,2c0,0.3,0,0.7-0.1,1.2c-0.3,2.1-1.2,4.3-2.7,6.6c-1,1.6-2,2.7-2.9,3.1
			c-0.4,2.4-0.8,4.6-1.2,6.6h0.2c1.9-4.2,3.8-6.3,5.7-6.3c0.7,0,1.2,0.2,1.6,0.6s0.6,1,0.6,1.7s-0.3,2.4-0.9,4.9
			c-0.6,2.5-0.9,4.2-0.9,5.2c0,1.5,0.3,2.2,0.8,2.2c0,0.2-0.1,0.3-0.3,0.5c-0.2,0.2-0.4,0.2-0.7,0.2c-1.3,0-1.9-1-1.9-3.1
			c0-1.3,0.3-3.1,1-5.6c0.7-2.5,1-4.1,1-4.8c0-0.7-0.3-1.1-0.8-1.1c-0.6,0-1.4,0.5-2.2,1.6c-0.8,1.1-1.5,2.5-2.2,4.2
			c-1.1,2.7-2,5-2.5,6.9c-0.1,0.4-0.3,0.7-0.6,0.7c-0.4,0-0.7-0.2-0.9-0.7c-0.1-0.3-0.2-0.6-0.2-0.9c0-0.3,0.1-0.9,0.3-1.7
			c0.2-0.8,0.5-2.3,0.9-4.3c0.4-2.1,0.8-3.8,1.1-5.1c0.3-1.4,0.6-2.9,1-4.6s0.7-3.1,1.1-4.1c0.3-1.1,0.7-2.1,1.2-3.1
			C61.9,8.1,62.8,7.2,63.9,7.2z M64.7,9.3c0-0.7-0.2-1.2-0.6-1.3c-1.3,0-2.7,3.7-4.1,11.1c0.9-0.6,1.8-1.9,2.8-3.8
			C64,12.7,64.7,10.7,64.7,9.3z"/>
		<path class="st1" d="M71.9,34.6c-1.8,0-2.7-1.3-2.7-4c0-1.5,0.4-3.2,1.2-5.1c1.1-2.5,2.5-4.1,4.3-4.9c0.6-0.2,1.2-0.4,1.8-0.4
			s1.1,0.2,1.5,0.5c0.4,0.4,0.5,0.8,0.5,1.2c0,0.2-0.1,0.3-0.3,0.3c-0.2,0-0.3-0.1-0.3-0.3s-0.1-0.4-0.3-0.6
			c-0.2-0.2-0.5-0.3-0.9-0.3c-1.4,0-2.7,1.3-3.8,3.8c-1.1,2.4-1.6,4.6-1.6,6.7c0,1.3,0.3,1.9,0.9,1.9s1.3-0.5,2.1-1.5
			c0.8-1,1.6-2.1,2.3-3.4c1.5-2.7,2.4-4.5,2.7-5.3c0.3-0.8,0.6-1.2,0.9-1.2c0.6,0,0.8,0.5,0.8,1.4c0,0.3,0,0.6-0.1,1
			c-0.7,3.6-1.1,5.7-1.2,6.2c-0.1,0.6-0.1,1-0.1,1.2c0,1.1,0.3,1.6,0.8,1.6c0.6,0,1.4-0.8,2.5-2.3c1.1-1.5,2-3.1,2.7-4.6l1.1-2.3
			h0.9c-0.1,0.3-0.3,0.6-0.5,1.1c-0.2,0.5-0.6,1.3-1.3,2.5c-0.6,1.2-1.2,2.2-1.8,3.1c-0.6,0.9-1.2,1.7-1.9,2.4
			c-0.7,0.7-1.3,1.1-1.8,1.1c-1.7,0-2.5-1.2-2.5-3.6c0-0.8,0.1-1.7,0.3-2.8h-0.2C75.4,32.5,73.5,34.6,71.9,34.6z"/>
		<path class="st1" d="M86,34.6c-0.6,0-0.9-0.5-0.9-1.4c0-0.5,0.6-4.3,1.9-11.3c0.1-0.5,0.3-0.7,0.6-0.7c0.4,0,0.7,0.3,0.9,0.9
			c0.1,0.3,0.2,0.7,0.2,1c0,0.4,0,0.8-0.1,1.2l-0.5,2.7h0.2c2-4.5,3.9-6.8,5.8-6.8c0.7,0,1.3,0.2,1.6,0.7c0.4,0.4,0.6,1,0.6,1.8
			c0,0.8-0.3,2.4-0.9,4.9c-0.6,2.5-0.9,4.3-0.9,5.3c0,1.5,0.3,2.2,0.8,2.2c0,0.2-0.1,0.3-0.3,0.5c-0.2,0.2-0.4,0.2-0.7,0.2
			c-1.3,0-1.9-1-1.9-3.1c0-1.3,0.3-3.2,1-5.7c0.7-2.5,1-4.2,1-4.9S93.9,21,93.4,21c-0.8,0-1.8,1.1-2.9,3.2c-1.1,2.1-2,4.1-2.7,6
			c-0.7,1.9-1.1,3.1-1.2,3.6C86.5,34.3,86.3,34.6,86,34.6z"/>
	</g>
	<g class="st0">
		<path class="st1" d="M118.9,20.6c-0.9,2.9-1.3,5.2-1.3,7c0,4.1,1.2,6.1,3.5,6.1c1.5,0,3-0.9,4.5-2.7c0.3-1.8,0.5-3,0.6-3.7
			c0.1-0.7,0.2-1.4,0.4-2.2c0.1-0.7,0.3-1.3,0.4-1.7c0.1-0.4,0.2-0.9,0.4-1.4c0.2-0.5,0.3-1,0.5-1.2s0.4-0.6,0.6-0.9
			c0.4-0.5,0.9-0.8,1.6-0.8c0.8,0,1.2,0.5,1.2,1.6c0,0.4,0,0.8-0.1,1.3c-0.5,2.5-1.6,5.1-3.5,7.8c-0.5,4.7-1.4,8.4-2.5,11
			c-1.1,2.6-2.5,4.4-4.1,5.7c-2,1.5-4.4,2.3-7.3,2.3c-3.3,0-5.7-1.2-7-3.5c-0.6-1.1-1-2.2-1-3.2c0-1,0.1-1.9,0.4-2.7
			c0.6-2,1.7-3.4,3.3-4.3c0.8-0.4,1.6-0.6,2.5-0.6c2.4,0,4,0.9,4.9,2.8c0.4,0.8,0.6,1.6,0.6,2.3s-0.1,1.4-0.4,2.1
			c-0.6,1.5-1.5,2.3-2.9,2.3c-0.2,0-0.4-0.1-0.5-0.2c-0.2-0.1-0.3-0.3-0.4-0.5c1,0,1.8-0.7,2.4-2c0.3-0.7,0.4-1.3,0.4-2
			c0-0.7-0.2-1.4-0.5-2.1c-0.6-1.4-1.8-2-3.7-2c-1.8,0-3.3,0.9-4.3,2.7c-0.7,1.2-1.1,2.4-1.1,3.7c0,0.5,0.1,1.1,0.2,1.6
			c0.5,2.1,1.7,3.5,3.6,4.3c0.9,0.3,2,0.5,3.3,0.5s2.6-0.3,3.9-0.9s2.3-1.4,3.1-2.3c0.8-0.9,1.5-2.1,2.2-3.6
			c0.6-1.4,1.1-2.8,1.5-4.1s0.7-2.8,1-4.5c-1.5,1.4-3,2.1-4.4,2.1c-1.4,0-2.5-0.4-3.4-1.2c-0.9-0.8-1.5-1.8-1.7-2.9
			s-0.4-2.3-0.4-3.3c0-2.1,0.4-4.3,1.1-6.7c-1.3-0.3-2.4-0.9-3.2-1.7s-1.4-1.7-1.6-2.5c-0.2-0.9-0.4-1.6-0.4-2.1
			c0-3.1,1.1-5.3,3.2-6.7c0.9-0.6,1.9-0.9,3.1-0.9c0.3,0,0.5,0.1,0.5,0.4l0,0.1c-1.1,0-2.1,0.3-3,0.8c-1.7,1-2.8,2.6-3.1,4.8
			c0,0.4-0.1,0.8-0.1,1.3c0,0.5,0.1,1.1,0.3,1.9c0.2,0.8,0.7,1.5,1.5,2.3c0.8,0.8,1.8,1.3,3,1.6c1.2-3.4,2.9-6.3,5-8.7
			s4.5-3.6,6.9-3.6c1.9,0,2.8,1,2.8,2.9c0,1.4-0.6,2.9-1.7,4.6c-1.6,2.4-3.8,4.2-6.5,5.1c-1.3,0.5-2.7,0.7-4.2,0.7H118.9z M128.4,8
			c-1.7,0-3.4,1.2-5.1,3.5c-1.7,2.3-3.1,5.1-4.2,8.3h0c3.3,0,6-1.2,8.3-3.7c1.8-2,2.7-4,2.7-6c0-1.1-0.4-1.8-1.2-2
			C128.9,8,128.7,8,128.4,8z M130,20.1c-0.6,0-1,0.5-1.2,1.6c-0.3,1.1-0.5,2.3-0.6,3.7c-0.1,1.4-0.2,2.1-0.2,2.3
			c1.4-2.4,2.2-4.5,2.5-6.3c0-0.2,0.1-0.4,0.1-0.6C130.5,20.3,130.3,20.1,130,20.1z"/>
	</g>
	<g class="st0">
		<path class="st1" d="M134.8,34.6c-1.8,0-2.7-1.3-2.7-4c0-1.5,0.4-3.2,1.2-5.1c1.1-2.5,2.5-4.1,4.3-4.9c0.6-0.2,1.2-0.4,1.8-0.4
			s1.1,0.2,1.5,0.5c0.4,0.4,0.5,0.8,0.5,1.2c0,0.2-0.1,0.3-0.3,0.3c-0.2,0-0.3-0.1-0.3-0.3s-0.1-0.4-0.3-0.6
			c-0.2-0.2-0.5-0.3-0.9-0.3c-1.4,0-2.7,1.3-3.8,3.8c-1.1,2.4-1.6,4.6-1.6,6.7c0,1.3,0.3,1.9,0.9,1.9s1.3-0.5,2.1-1.5
			c0.8-1,1.6-2.1,2.3-3.4c1.5-2.7,2.4-4.5,2.7-5.3c0.3-0.8,0.6-1.2,0.9-1.2c0.6,0,0.8,0.5,0.8,1.4c0,0.3,0,0.6-0.1,1
			c-0.7,3.6-1.1,5.7-1.2,6.2c-0.1,0.6-0.1,1-0.1,1.2c0,1.1,0.3,1.6,0.8,1.6c0.6,0,1.4-0.8,2.5-2.3c1.1-1.5,2-3.1,2.7-4.6l1.1-2.3
			h0.9c-0.1,0.3-0.3,0.6-0.5,1.1c-0.2,0.5-0.6,1.3-1.3,2.5c-0.6,1.2-1.2,2.2-1.8,3.1c-0.6,0.9-1.2,1.7-1.9,2.4
			c-0.7,0.7-1.3,1.1-1.8,1.1c-1.7,0-2.5-1.2-2.5-3.6c0-0.8,0.1-1.7,0.3-2.8h-0.2C138.3,32.5,136.4,34.6,134.8,34.6z"/>
		<path class="st1" d="M150.4,32.9c-0.5,0-0.9,0.3-1.3,0.8s-0.8,0.8-1.1,0.8s-0.5-0.1-0.5-0.2c0-0.1,0-0.1,0.1-0.2
			c3-3.8,6.1-7.4,9.2-10.7c-0.7,0.2-1.3,0.3-2,0.3c-1.9,0-3.2-0.6-3.7-1.7c-0.1-0.3-0.2-0.6-0.2-1c0-0.3,0.2-0.7,0.5-1.1
			c0.3-0.4,0.7-0.6,1.1-0.6s0.7,0.1,0.9,0.2c0.2,0.1,0.3,0.4,0.4,0.7c-0.3,0-0.5,0.2-0.6,0.6c0,0.1,0,0.2,0,0.3c0,0.4,0.3,0.8,0.9,1
			c0.4,0.2,1,0.2,1.8,0.2c0.8,0,1.6-0.1,2.3-0.4c1.2-1.2,2-1.8,2.4-1.8c0.2,0,0.3,0.1,0.3,0.2c0,0.1-0.2,0.4-0.5,0.9
			c-0.3,0.5-1,1-1.9,1.5c-1.7,1.8-4.3,4.9-7.9,9.1c0.1,0,0.3,0,0.6,0s0.9,0.2,1.8,0.6c0.9,0.4,1.7,0.6,2.4,0.6
			c1.3,0,2.2-0.5,2.6-1.6c0.1-0.3,0.2-0.7,0.2-1c0-0.3-0.1-0.6-0.2-0.8c-0.2-0.2-0.3-0.3-0.6-0.3c0-0.3,0.2-0.4,0.5-0.4
			c0.8,0,1.2,0.7,1.2,1.9c0,0.9-0.4,1.9-1.1,2.8c-0.7,0.9-1.7,1.4-3,1.4c-0.6,0-1.2-0.1-1.7-0.4c-0.5-0.3-0.9-0.5-1.1-0.8
			C151.5,33.3,150.9,32.9,150.4,32.9z"/>
		<path class="st1" d="M164.6,33.8c0.6,0,1.4-0.8,2.5-2.3c1.1-1.5,2-3.1,2.7-4.6l1.1-2.3h0.9c-0.1,0.3-0.3,0.6-0.5,1.1
			c-0.2,0.5-0.6,1.3-1.3,2.5s-1.2,2.2-1.8,3.1c-0.6,0.9-1.2,1.7-1.9,2.4c-0.7,0.7-1.3,1.1-1.8,1.1c-1.7,0-2.5-1.1-2.5-3.2
			c0-1.6,0.5-4.2,1.4-7.9c0.1-0.4,0.2-0.7,0.2-0.9c0.1-0.2,0.1-0.5,0.2-0.8c0.1-0.3,0.1-0.6,0.2-0.9c0.1-0.5,0.3-0.7,0.6-0.7
			c0.4,0,0.7,0.3,0.9,0.9c0.1,0.3,0.1,0.6,0.1,1s0,0.8-0.1,1.2c-0.1,0.4-0.2,1-0.4,1.8c-0.2,0.8-0.4,1.5-0.5,2
			c-0.1,0.5-0.2,1.1-0.4,1.9c-0.2,1.2-0.4,2.3-0.4,3.3S164.1,33.8,164.6,33.8z M166.8,14.4c0.5,0,0.8,0.3,0.8,1s-0.3,1.3-1,1.7
			c-0.3,0.2-0.6,0.3-0.9,0.3c-0.4,0-0.6-0.1-0.6-0.3l0-0.1c0.2,0,0.3-0.2,0.4-0.7c0.1-0.4,0.2-0.9,0.4-1.3
			C166,14.7,166.3,14.4,166.8,14.4z"/>
	</g>
	<g class="st0">
		<path class="st1" d="M10.9,87c-0.7-1.4-1.1-3-1.1-4.9c0-1.7,0.3-3.3,0.9-4.7c0.6-1.4,1.2-2.5,1.9-3.3c0.7-0.8,1.6-1.5,2.6-2
			c1-0.5,2.1-0.8,3.2-0.8c1.6,0,2.9,0.5,3.9,1.4l4.4-3.7c-0.1-0.8-0.1-1.6-0.1-2.3c0-5,1.3-7.5,3.9-7.5c0.7,0,1.2,0.2,1.6,0.7
			c0.4,0.5,0.6,1.1,0.6,1.8c0,1.1-0.3,2.2-1,3.2s-1.7,2.3-3.1,3.5c0.7,4.6,1,7.8,1,9.5c0,1.7-0.2,3.3-0.6,4.8
			c-0.4,1.6-1.1,3-1.9,4.2c-0.9,1.3-2.1,2.3-3.6,3c-1.5,0.7-3.3,1.1-5.3,1.1c-2.9,0-5.1-1-6.6-3c-0.4,1.4-0.6,3-0.6,4.8
			c0,1.8,0.5,3.4,1.4,4.9c1,1.4,2.2,2.2,3.7,2.2c0.1,0,0.2,0.1,0.2,0.3c0,0.2-0.1,0.3-0.2,0.3c-1.8,0-3.2-0.8-4.4-2.5
			c-1.1-1.7-1.7-3.5-1.7-5.6C10.1,90.5,10.4,88.7,10.9,87z M21.6,73.3c-0.7-0.8-1.7-1.1-3-1.1c-1.3,0-2.4,0.3-3.4,0.9
			c-1.9,1.1-3.2,3-4,5.6c-0.4,1.1-0.5,2.3-0.5,3.5c0,1.3,0.2,2.5,0.6,3.7C12.9,82,16.3,77.8,21.6,73.3z M22.9,73.3
			c0.6,0.9,0.9,1.8,0.9,2.9c0,1.1-0.2,2-0.5,2.9s-0.9,1.6-1.7,2.2c-0.8,0.6-1.8,1-2.8,1c-0.2,0-0.4-0.1-0.5-0.2
			c-0.1-0.1-0.2-0.3-0.3-0.5c1,0,1.8-0.4,2.7-1.3c1.2-1.3,1.7-2.7,1.7-4.2c0-0.6-0.1-1.3-0.4-1.9c-2.5,2.2-4.6,4.3-6.4,6.3
			c-1.7,2.1-3,4.3-3.8,6.7c1.3,2.1,3.3,3.1,6,3.1c1.7,0,3.2-0.4,4.4-1.1c1.3-0.7,2.3-1.7,3-2.9c1.4-2.4,2.1-5.3,2.1-8.6
			c0-0.8-0.2-3.3-0.6-7.6L22.9,73.3z M28.4,64.9c0,0.6,0.1,1.4,0.2,2.4c2.2-2.2,3.3-4,3.3-5.5c0-1.2-0.4-1.7-1.3-1.7
			C29.1,60.1,28.4,61.7,28.4,64.9z"/>
		<path class="st1" d="M35.4,86.6c-1.8,0-2.7-1.3-2.7-4c0-1.5,0.4-3.2,1.2-5.1c1.1-2.5,2.5-4.1,4.3-4.9c0.6-0.2,1.2-0.4,1.8-0.4
			s1.1,0.2,1.5,0.5c0.4,0.4,0.5,0.8,0.5,1.2c0,0.2-0.1,0.3-0.3,0.3c-0.2,0-0.3-0.1-0.3-0.3s-0.1-0.4-0.3-0.6
			c-0.2-0.2-0.5-0.3-0.9-0.3c-1.4,0-2.7,1.3-3.8,3.8c-1.1,2.4-1.6,4.6-1.6,6.7c0,1.3,0.3,1.9,0.9,1.9s1.3-0.5,2.1-1.5
			c0.8-1,1.6-2.1,2.3-3.4c1.5-2.7,2.4-4.5,2.7-5.3c0.3-0.8,0.6-1.2,0.9-1.2c0.6,0,0.8,0.5,0.8,1.4c0,0.3,0,0.6-0.1,1
			c-0.7,3.6-1.1,5.7-1.2,6.2c-0.1,0.6-0.1,1-0.1,1.2c0,1.1,0.3,1.6,0.8,1.6c0.6,0,1.4-0.8,2.5-2.3c1.1-1.5,2-3.1,2.7-4.6l1.1-2.3
			h0.9c-0.1,0.3-0.3,0.6-0.5,1.1c-0.2,0.5-0.6,1.3-1.3,2.5c-0.6,1.2-1.2,2.2-1.8,3.1c-0.6,0.9-1.2,1.7-1.9,2.4
			c-0.7,0.7-1.3,1.1-1.8,1.1c-1.7,0-2.5-1.2-2.5-3.6c0-0.8,0.1-1.7,0.3-2.8h-0.2C38.9,84.5,37,86.6,35.4,86.6z"/>
		<path class="st1" d="M49.5,86.6c-0.6,0-0.9-0.5-0.9-1.4c0-0.5,0.6-4.3,1.9-11.3c0.1-0.5,0.3-0.7,0.6-0.7c0.4,0,0.7,0.3,0.9,0.9
			c0.1,0.3,0.2,0.7,0.2,1c0,0.4,0,0.8-0.1,1.2L51.5,79h0.2c1.9-4.5,3.7-6.7,5.3-6.7c0.9,0,1.5,0.4,1.8,1.3c0.1,0.3,0.2,0.7,0.2,1.2
			s-0.1,0.9-0.4,1.4c-0.4,0.9-1.1,1.3-1.9,1.3c-0.2,0-0.3,0-0.4-0.1S56,77.1,56,77c0.2,0,0.4-0.3,0.7-1c0.3-0.7,0.5-1.3,0.5-1.8
			c0-0.6-0.1-0.9-0.6-1c-0.8,0-1.7,1-2.8,3.1c-1.1,2-1.9,4-2.6,5.8c-0.6,1.9-1,3.1-1.1,3.6C50,86.3,49.8,86.6,49.5,86.6z"/>
		<path class="st1" d="M61.8,86.6c-1.8,0-2.7-1.3-2.7-4c0-1.5,0.4-3.2,1.2-5.1c1.1-2.5,2.5-4.1,4.3-4.9c0.6-0.2,1.2-0.4,1.8-0.4
			s1.1,0.2,1.5,0.5c0.4,0.4,0.5,0.8,0.5,1.2c0,0.2-0.1,0.3-0.3,0.3c-0.2,0-0.3-0.1-0.3-0.3s-0.1-0.4-0.3-0.6
			c-0.2-0.2-0.5-0.3-0.9-0.3c-1.4,0-2.7,1.3-3.8,3.8c-1.1,2.4-1.6,4.6-1.6,6.7c0,1.3,0.3,1.9,0.9,1.9s1.3-0.5,2.1-1.5
			c0.8-1,1.6-2.1,2.3-3.4c1.5-2.7,2.4-4.5,2.7-5.3c0.3-0.8,0.6-1.2,0.9-1.2c0.6,0,0.8,0.5,0.8,1.4c0,0.3,0,0.6-0.1,1
			c-0.7,3.6-1.1,5.7-1.2,6.2c-0.1,0.6-0.1,1-0.1,1.2c0,1.1,0.3,1.6,0.8,1.6c0.6,0,1.4-0.8,2.5-2.3c1.1-1.5,2-3.1,2.7-4.6l1.1-2.3
			h0.9c-0.1,0.3-0.3,0.6-0.5,1.1c-0.2,0.5-0.6,1.3-1.3,2.5c-0.6,1.2-1.2,2.2-1.8,3.1c-0.6,0.9-1.2,1.7-1.9,2.4
			c-0.7,0.7-1.3,1.1-1.8,1.1c-1.7,0-2.5-1.2-2.5-3.6c0-0.8,0.1-1.7,0.3-2.8h-0.2C65.2,84.5,63.3,86.6,61.8,86.6z"/>
		<path class="st1" d="M120.4,59.1c0.2,0,0.3,0.1,0.4,0.2s0.1,0.3,0.2,0.5c-2.3,0-4.4,1.2-6.1,3.5c1.2,0.4,2.3,0.8,3.4,1
			c1.2-1.6,2.3-2.4,3.3-2.4c0.2,0,0.4,0.1,0.6,0.2c0.2,0.1,0.3,0.3,0.3,0.6c-0.9,0-1.8,0.6-2.7,1.8c0.2,0,0.4,0,0.7,0
			c2.2,0,3.8-0.7,4.7-2c0.4-0.5,0.6-1,0.6-1.3c0-1-0.4-1.5-1.3-1.5c0.2-0.3,0.5-0.5,1-0.5c0.9,0,1.4,0.4,1.7,1.3
			c0.1,0.3,0.1,0.5,0.1,0.8c0,0.7-0.3,1.5-0.9,2.2c-1.1,1.2-2.8,1.8-5.1,1.8c-0.7,0-1.3,0-1.8-0.1c-1.5,2.4-2.7,5.8-3.6,10.2
			c-0.7,3.1-1,5.6-1,7.7c0,0.9,0.1,1.7,0.2,2.4c1.3-1,2.5-2.2,3.7-3.7c1.2-1.5,2-2.8,2.5-3.8l0.8-1.5h0.9c-0.2,0.5-0.6,1.2-1.2,2.2
			c-0.6,1-1.2,1.9-1.7,2.7c-0.5,0.8-1.3,1.6-2.1,2.6c-0.9,0.9-1.8,1.7-2.7,2.4c0.3,0.9,0.7,1.3,1.2,1.3c-0.2,0.4-0.5,0.7-1,0.7
			c-0.7,0-1.3-0.3-1.8-1c-1.6,0.8-3.2,1.2-4.7,1.2c-2.2,0-4.1-0.6-5.7-1.7c-2.4,2.7-5.2,4-8.5,4c-3.3,0-5.7-1.2-7.2-3.5
			c-0.8-1.3-1.2-2.7-1.2-4.3c0-0.6,0.1-1.3,0.2-1.9c0.5-2.2,1.5-3.7,3.2-4.6c0.9-0.5,1.8-0.7,2.9-0.7c2.3,0,3.9,0.9,4.7,2.7
			c0.3,0.7,0.5,1.5,0.5,2.3s-0.2,1.6-0.5,2.3c-0.8,1.9-2,2.8-3.7,2.8c-0.3,0-0.5-0.1-0.7-0.2c-0.2-0.1-0.3-0.3-0.4-0.6
			c0.6,0,1.2-0.2,1.7-0.5c0.9-0.5,1.6-1.5,2.1-2.9c0.1-0.5,0.2-0.9,0.2-1.2c0-0.3,0-0.6-0.1-1s-0.2-0.8-0.4-1.4
			c-0.2-0.5-0.7-0.9-1.3-1.2c-0.6-0.3-1.3-0.5-2.2-0.5c-2.1,0-3.7,0.9-4.7,2.8c-0.6,1.1-0.9,2.1-0.9,3.1s0.1,1.8,0.3,2.6
			c0.6,2.1,1.8,3.6,3.7,4.4c0.9,0.4,1.8,0.6,2.9,0.6c3,0,5.8-1.4,8.2-4.1c-1.1-1.1-1.8-2.5-2.2-4.1c-0.2-0.9-0.4-1.8-0.4-2.5
			c0-2.3,0.7-4.2,2-5.5c1-1,2.2-1.5,3.6-1.5c1.4,0,2.7,0.3,3.8,1c2-4.6,3.6-7.9,4.8-9.6c-0.2,0-0.7-0.3-1.7-0.6
			c-1-0.4-1.6-0.6-1.9-0.7l-1.6-0.5c-1.9-0.6-3.5-0.9-5-0.9c-2.9,0-5.1,1.1-6.5,3.3c-0.8,1.2-1.2,2.5-1.2,3.8c0,0.4,0,0.8,0.1,1.2
			c0.2,1.5,0.9,2.3,1.9,2.6c0.2,0.1,0.4,0.1,0.6,0.1c-0.1,0.5-0.5,0.7-1.1,0.7c-1.4,0-2.3-0.7-2.9-2.2c-0.3-0.7-0.4-1.5-0.4-2.3
			c0-0.9,0.2-1.8,0.7-2.9c0.9-2.3,2.6-3.8,5-4.6c1.1-0.4,2.2-0.6,3.1-0.6s1.8,0.1,2.4,0.2s1.4,0.3,2.3,0.6c0.9,0.3,1.6,0.5,2,0.6
			c0.4,0.1,1.2,0.4,2.4,0.9c1.2,0.5,1.9,0.7,2.1,0.8C116.1,60.4,118.2,59.1,120.4,59.1z M108.6,73.9c-0.9-0.6-1.8-0.9-3-0.9
			c-1.1,0-2.1,0.4-3,1.3c-1.3,1.3-1.9,2.9-1.9,5c0,2.3,0.6,4.2,1.9,5.7c1.4-1.8,2.8-4.2,4.1-7C107.2,76.9,107.8,75.6,108.6,73.9z
			 M113.2,86.6c-0.4-0.9-0.6-2-0.6-3.3s-0.3-2.8-0.8-4.5c-0.5-1.7-1.3-3.1-2.4-4.1c-2,5.4-3.9,9.2-5.7,11.4c1.4,1.1,3.1,1.6,5.1,1.6
			C110.3,87.8,111.8,87.4,113.2,86.6z M112.9,79.2c0.4-2.6,1-5.3,1.9-7.9c0.9-2.6,1.9-4.8,3.1-6.5c-0.9-0.2-2.1-0.6-3.4-1
			c-1.1,1.6-2.1,3.6-3.2,6.2c-0.3,0.8-0.8,2.1-1.5,3.9C111.2,75.1,112.3,76.9,112.9,79.2z"/>
		<path class="st1" d="M133.9,67.7c-0.6,2.4-1.2,4.3-1.5,5.9c-0.4,1.6-0.8,3.4-1.2,5.4c-0.4,2-0.7,3.7-0.7,4.9
			c0,1.2,0.3,1.8,0.8,1.8c0.6,0,1.4-0.8,2.5-2.3c1.1-1.5,2-3.1,2.7-4.6l1.1-2.3h0.9c-0.1,0.3-0.3,0.6-0.5,1.1
			c-0.2,0.5-0.6,1.3-1.3,2.5c-0.6,1.2-1.2,2.2-1.8,3.1c-0.6,0.9-1.2,1.7-1.9,2.4c-0.7,0.7-1.3,1.1-1.8,1.1c-1.6,0-2.4-1.2-2.4-3.6
			c0-0.9,0.1-2,0.4-3.4h-0.3c-2.5,4.6-4.5,6.9-6,6.9c-1.8,0-2.7-1.3-2.7-4c0-1.5,0.4-3.2,1.2-5.1c1.1-2.5,2.5-4.1,4.3-4.9
			c0.6-0.2,1.2-0.4,1.8-0.4s1.1,0.2,1.5,0.5s0.5,0.8,0.5,1.2c0,0.2-0.1,0.3-0.3,0.3c-0.2,0-0.3-0.1-0.3-0.3s-0.1-0.4-0.3-0.6
			s-0.5-0.3-0.9-0.3c-1.4,0-2.7,1.3-3.8,3.8c-1.1,2.4-1.6,4.6-1.6,6.7c0,1.3,0.3,1.9,0.8,1.9c0.8,0,1.7-0.8,2.9-2.5
			c1.1-1.7,2.1-3.4,3-5.3c0.9-1.9,1.5-3.6,1.8-5.2c0.4-1.6,0.9-3.7,1.7-6.5c0.5-1.8,1.1-2.7,1.9-2.7c0.2,0,0.3,0.1,0.4,0.2
			s0.1,0.2,0.1,0.4C134.8,64.1,134.5,65.4,133.9,67.7z"/>
		<path class="st1" d="M138.6,86.6c-1.8,0-2.7-1.3-2.7-4c0-1.5,0.4-3.2,1.2-5.1c1.1-2.5,2.5-4.1,4.3-4.9c0.6-0.2,1.2-0.4,1.8-0.4
			s1.1,0.2,1.5,0.5c0.4,0.4,0.5,0.8,0.5,1.2c0,0.2-0.1,0.3-0.3,0.3c-0.2,0-0.3-0.1-0.3-0.3s-0.1-0.4-0.3-0.6
			c-0.2-0.2-0.5-0.3-0.9-0.3c-1.4,0-2.7,1.3-3.8,3.8c-1.1,2.4-1.6,4.6-1.6,6.7c0,1.3,0.3,1.9,0.9,1.9s1.3-0.5,2.1-1.5
			c0.8-1,1.6-2.1,2.3-3.4c1.5-2.7,2.4-4.5,2.7-5.3c0.3-0.8,0.6-1.2,0.9-1.2c0.6,0,0.8,0.5,0.8,1.4c0,0.3,0,0.6-0.1,1
			c-0.7,3.6-1.1,5.7-1.2,6.2c-0.1,0.6-0.1,1-0.1,1.2c0,1.1,0.3,1.6,0.8,1.6c0.6,0,1.4-0.8,2.5-2.3c1.1-1.5,2-3.1,2.7-4.6l1.1-2.3
			h0.9c-0.1,0.3-0.3,0.6-0.5,1.1c-0.2,0.5-0.6,1.3-1.3,2.5c-0.6,1.2-1.2,2.2-1.8,3.1c-0.6,0.9-1.2,1.7-1.9,2.4
			c-0.7,0.7-1.3,1.1-1.8,1.1c-1.7,0-2.5-1.2-2.5-3.6c0-0.8,0.1-1.7,0.3-2.8h-0.2C142,84.5,140.1,86.6,138.6,86.6z"/>
		<path class="st1" d="M152.6,86.6c-0.6,0-0.9-0.5-0.9-1.4c0-0.5,0.6-4.3,1.9-11.3c0.1-0.5,0.3-0.7,0.6-0.7c0.4,0,0.7,0.3,0.9,0.9
			c0.1,0.3,0.2,0.7,0.2,1c0,0.4,0,0.8-0.1,1.2l-0.5,2.6h0.2c2-4.4,3.9-6.7,5.7-6.7c0.6,0,1.1,0.2,1.5,0.7c0.4,0.4,0.6,1,0.6,1.6
			c0,1.2-0.2,2.6-0.5,4.4h0.1c1.9-4.1,3.8-6.2,5.6-6.2c0.6,0,1.1,0.2,1.5,0.7s0.6,1,0.6,1.8s-0.3,2.3-0.9,4.7
			c-0.6,2.4-0.9,4.1-0.9,5.1c0,1.5,0.3,2.2,0.8,2.2c0,0.2-0.1,0.3-0.3,0.5c-0.2,0.2-0.4,0.2-0.7,0.2c-1.3,0-1.9-1-1.9-3.1
			c0-1.3,0.3-3.1,1-5.5c0.6-2.4,1-4,1-4.6s-0.2-1-0.7-1c-0.8,0-1.8,1-2.9,3c-1.1,2-2,3.9-2.7,5.8c-0.7,1.8-1,3-1.2,3.5
			c-0.1,0.5-0.3,0.8-0.6,0.8c-0.6,0-0.9-0.5-0.9-1.4c0-0.4,0.2-1.6,0.6-3.8c0.7-4,1.1-6.4,1.1-7.1c0-0.8-0.2-1.2-0.7-1.2
			c-0.6,0-1.3,0.6-2.1,1.9s-1.5,2.7-2.2,4.3c-1.4,3.5-2.2,5.7-2.5,6.7C153.1,86.3,152.9,86.6,152.6,86.6z"/>
	</g>
	<g class="st0">
		<path class="st1" d="M42.5,94.7c-0.6,2.4-1.2,4.3-1.5,5.9s-0.8,3.4-1.2,5.4c-0.4,2-0.7,3.7-0.7,4.9c0,1.2,0.3,1.8,0.8,1.8
			c0.6,0,1.4-0.8,2.5-2.3c1.1-1.5,2-3.1,2.7-4.6l1.1-2.3h0.9c-0.1,0.3-0.3,0.6-0.5,1.1c-0.2,0.5-0.6,1.3-1.3,2.5
			c-0.6,1.2-1.2,2.2-1.8,3.1c-0.6,0.9-1.2,1.7-1.9,2.4c-0.7,0.7-1.3,1.1-1.8,1.1c-1.6,0-2.4-1.2-2.4-3.6c0-0.9,0.1-2,0.4-3.4h-0.3
			c-2.5,4.6-4.5,6.9-6,6.9c-1.8,0-2.7-1.3-2.7-4c0-1.5,0.4-3.2,1.2-5.1c1.1-2.5,2.5-4.1,4.3-4.9c0.6-0.2,1.2-0.4,1.8-0.4
			c0.6,0,1.1,0.2,1.5,0.5c0.4,0.4,0.5,0.8,0.5,1.2c0,0.2-0.1,0.3-0.3,0.3c-0.2,0-0.3-0.1-0.3-0.3s-0.1-0.4-0.3-0.6s-0.5-0.3-0.9-0.3
			c-1.4,0-2.7,1.3-3.8,3.8c-1.1,2.4-1.6,4.6-1.6,6.7c0,1.3,0.3,1.9,0.8,1.9c0.8,0,1.7-0.8,2.9-2.5c1.1-1.7,2.1-3.4,3-5.3
			c0.9-1.9,1.5-3.6,1.8-5.2s0.9-3.7,1.7-6.5c0.5-1.8,1.1-2.7,1.9-2.7c0.2,0,0.3,0.1,0.4,0.2c0.1,0.1,0.1,0.2,0.1,0.4
			C43.4,91.1,43.1,92.4,42.5,94.7z"/>
		<path class="st1" d="M47.1,108.7c0,2.7,1,4.1,2.9,4.1c0.7,0,1.5-0.3,2.3-1c0.8-0.6,1.5-1.4,2.2-2.3c1.4-2.1,2.4-3.7,3-5l0.4-0.9
			h0.9c-0.4,0.9-0.9,2-1.7,3.3c-0.7,1.3-1.4,2.4-2.1,3.3c-0.7,0.9-1.5,1.7-2.4,2.4c-0.9,0.7-1.8,1.1-2.6,1.1c-3.3,0-5-1.9-5-5.6
			c0-1.7,0.5-3.4,1.5-5.2c1.4-2.4,3.1-3.6,5.1-3.6c1.4,0,2.2,0.8,2.2,2.4c0,1.2-0.4,2.4-1.3,3.6c-1.3,1.7-2.7,2.6-4.4,2.6
			c-0.2,0-0.4-0.1-0.5-0.3l0-0.1c1.2,0,2.3-0.8,3.3-2.3c1.1-1.5,1.6-2.8,1.6-3.8c0-0.7-0.3-1-0.8-1c-1.2,0-2.3,1-3.3,3.1
			C47.5,105.1,47.1,106.9,47.1,108.7z"/>
		<path class="st1" d="M70.2,114c-0.7-1.4-1.1-3-1.1-4.9c0-1.7,0.3-3.3,0.9-4.7c0.6-1.4,1.2-2.5,1.9-3.3c0.7-0.8,1.6-1.5,2.6-2
			c1-0.5,2.1-0.8,3.2-0.8c1.6,0,2.9,0.5,3.9,1.4L86,96c-0.1-0.8-0.1-1.6-0.1-2.3c0-5,1.3-7.5,3.9-7.5c0.7,0,1.2,0.2,1.6,0.7
			c0.4,0.5,0.6,1.1,0.6,1.8c0,1.1-0.3,2.2-1,3.2c-0.7,1.1-1.7,2.3-3.1,3.5c0.7,4.6,1,7.8,1,9.5c0,1.7-0.2,3.3-0.6,4.8
			c-0.4,1.6-1.1,3-1.9,4.2c-0.9,1.3-2.1,2.3-3.6,3c-1.5,0.7-3.3,1.1-5.3,1.1c-2.9,0-5.1-1-6.6-3c-0.4,1.4-0.6,3-0.6,4.8
			c0,1.8,0.5,3.4,1.4,4.9c1,1.4,2.2,2.2,3.7,2.2c0.1,0,0.2,0.1,0.2,0.3c0,0.2-0.1,0.3-0.2,0.3c-1.8,0-3.2-0.8-4.4-2.5
			c-1.1-1.7-1.7-3.5-1.7-5.6C69.3,117.5,69.6,115.7,70.2,114z M80.9,100.3c-0.7-0.8-1.7-1.1-3-1.1c-1.3,0-2.4,0.3-3.4,0.9
			c-1.9,1.1-3.2,3-4,5.6c-0.4,1.1-0.5,2.3-0.5,3.5c0,1.3,0.2,2.5,0.6,3.7C72.2,109,75.6,104.8,80.9,100.3z M82.2,100.3
			c0.6,0.9,0.9,1.8,0.9,2.9c0,1.1-0.2,2-0.5,2.9s-0.9,1.6-1.7,2.2c-0.8,0.6-1.8,1-2.8,1c-0.2,0-0.4-0.1-0.5-0.2
			c-0.1-0.1-0.2-0.3-0.3-0.5c1,0,1.8-0.4,2.7-1.3c1.2-1.3,1.7-2.7,1.7-4.2c0-0.6-0.1-1.3-0.4-1.9c-2.5,2.2-4.6,4.3-6.4,6.3
			c-1.7,2.1-3,4.3-3.8,6.7c1.3,2.1,3.3,3.1,6,3.1c1.7,0,3.2-0.4,4.4-1.1c1.3-0.7,2.3-1.7,3-2.9c1.4-2.4,2.1-5.3,2.1-8.6
			c0-0.8-0.2-3.3-0.6-7.6L82.2,100.3z M87.6,91.9c0,0.6,0.1,1.4,0.2,2.4c2.2-2.2,3.3-4,3.3-5.5c0-1.2-0.4-1.7-1.3-1.7
			C88.4,87.1,87.6,88.7,87.6,91.9z"/>
		<path class="st1" d="M94.5,109.1c0,2.4,0.6,3.5,1.9,3.5c0.9,0,1.6-0.5,2.4-1.6c1.4-2,2.3-4.6,2.6-7.8c-0.8-0.3-1.3-0.9-1.6-1.6
			c-0.2-0.5-0.3-0.9-0.3-1.2c0-0.3,0-0.6,0.1-0.9c0.2-0.6,0.6-0.9,1.1-0.9c0.5,0,0.9,0.3,1.2,1c0.3,0.7,0.4,1.6,0.4,2.6
			c0,0.1,0,0.1,0,0.2c0.3,0.1,0.7,0.1,1.2,0.1c0.5,0,1-0.2,1.4-0.6s0.6-0.8,0.6-1.2c0-0.1,0.1-0.2,0.2-0.2c0.1,0,0.2,0,0.3,0
			c0.1,0,0.2,0.1,0.2,0.2c0,0.6-0.3,1.3-0.8,1.8c-0.5,0.6-1.3,0.9-2.2,0.9c-0.2,0-0.5,0-0.9-0.1c-0.1,1.5-0.5,3-1,4.5
			c-0.5,1.5-1.2,2.8-2.1,3.9c-0.9,1.1-1.9,1.6-2.9,1.6c-1.9,0-3.1-1-3.6-3.1c-0.1-0.6-0.2-1.2-0.2-1.8c0-1.4,0.3-2.9,1-4.5
			c0.9-2.1,1.9-3.4,3.2-3.9c0.6-0.2,1.1-0.3,1.3-0.1c0.2,0.2,0.4,0.3,0.5,0.5c-1,0-1.9,1-2.8,2.9C94.9,105.4,94.5,107.3,94.5,109.1z
			"/>
		<path class="st1" d="M116.3,112.8c0.6,0,1.4-0.8,2.5-2.3c1.1-1.5,2-3.1,2.7-4.6l1.1-2.3h0.9c-0.1,0.3-0.3,0.6-0.5,1.1
			c-0.2,0.5-0.6,1.3-1.3,2.5s-1.2,2.2-1.8,3.1c-0.6,0.9-1.2,1.7-1.9,2.4c-0.7,0.7-1.4,1.1-2,1.1s-1.1-0.2-1.5-0.6
			c-0.5-0.5-0.7-1.4-0.7-2.6c0-1.2,0.2-2.9,0.6-4.9h-0.2c-2.6,5.3-4.7,7.9-6.4,7.9c-1.5,0-2.3-1-2.3-2.9c0-1.4,0.6-4.2,1.8-8.4
			c0.3-1,0.5-1.7,0.6-2.2c0.1-0.5,0.3-0.7,0.6-0.7c0.4,0,0.7,0.3,0.9,0.9c0.1,0.2,0.1,0.6,0.1,0.9c0,0.4-0.1,0.8-0.2,1.2
			c-0.1,0.4-0.3,1.3-0.7,2.5c-1,3.3-1.4,5.5-1.4,6.7c0,0.7,0.2,1.1,0.7,1.1c0.6,0,1.2-0.5,2-1.5c0.8-1.1,1.5-2.1,2-3.1
			c0.5-1,0.9-1.8,1.2-2.4c0.3-0.6,0.6-1.3,0.9-2c0.3-0.7,0.6-1.2,0.8-1.7c0.2-0.4,0.4-0.9,0.6-1.3c0.2-0.4,0.3-0.6,0.3-0.7
			c0.2-0.5,0.4-0.7,0.7-0.7c0.4,0,0.7,0.3,0.9,0.9c0.1,0.3,0.1,0.6,0.1,1s0,0.8-0.1,1.2c-0.1,0.4-0.2,1-0.4,1.8
			c-0.2,0.8-0.4,1.5-0.5,2s-0.2,1.1-0.4,1.9c-0.2,1.2-0.3,2.3-0.3,3.3S115.8,112.8,116.3,112.8z"/>
		<path class="st1" d="M123.6,111.9c-0.5,0-0.9,0.3-1.3,0.8s-0.8,0.8-1.1,0.8s-0.5-0.1-0.5-0.2c0-0.1,0-0.1,0.1-0.2
			c3-3.8,6.1-7.4,9.2-10.7c-0.7,0.2-1.3,0.3-2,0.3c-1.9,0-3.2-0.6-3.7-1.7c-0.1-0.3-0.2-0.6-0.2-1c0-0.3,0.2-0.7,0.5-1.1
			c0.3-0.4,0.7-0.6,1.1-0.6s0.7,0.1,0.9,0.2c0.2,0.1,0.3,0.4,0.4,0.7c-0.3,0-0.5,0.2-0.6,0.6c0,0.1,0,0.2,0,0.3c0,0.4,0.3,0.8,0.9,1
			c0.4,0.2,1,0.2,1.8,0.2c0.8,0,1.6-0.1,2.3-0.4c1.2-1.2,2-1.8,2.4-1.8c0.2,0,0.3,0.1,0.3,0.2c0,0.1-0.2,0.4-0.5,0.9
			c-0.3,0.5-1,1-1.9,1.5c-1.7,1.8-4.3,4.9-7.9,9.1c0.1,0,0.3,0,0.6,0s0.9,0.2,1.8,0.6c0.9,0.4,1.7,0.6,2.4,0.6
			c1.3,0,2.2-0.5,2.6-1.6c0.1-0.3,0.2-0.7,0.2-1c0-0.3-0.1-0.6-0.2-0.8c-0.2-0.2-0.3-0.3-0.6-0.3c0-0.3,0.2-0.4,0.5-0.4
			c0.8,0,1.2,0.7,1.2,1.9c0,0.9-0.4,1.9-1.1,2.8c-0.7,0.9-1.7,1.4-3,1.4c-0.6,0-1.2-0.1-1.7-0.4c-0.5-0.3-0.9-0.5-1.1-0.8
			C124.7,112.3,124.1,111.9,123.6,111.9z"/>
		<path class="st1" d="M137.3,113.6c-1.8,0-2.7-1.3-2.7-4c0-1.5,0.4-3.2,1.2-5.1c1.1-2.5,2.5-4.1,4.3-4.9c0.6-0.2,1.2-0.4,1.8-0.4
			s1.1,0.2,1.5,0.5s0.5,0.8,0.5,1.2c0,0.2-0.1,0.3-0.3,0.3c-0.2,0-0.3-0.1-0.3-0.3s-0.1-0.4-0.3-0.6s-0.5-0.3-0.9-0.3
			c-1.4,0-2.7,1.3-3.8,3.8c-1.1,2.4-1.6,4.6-1.6,6.7c0,1.3,0.3,1.9,0.9,1.9s1.3-0.5,2.1-1.5c0.8-1,1.6-2.1,2.3-3.4
			c1.5-2.7,2.4-4.5,2.7-5.3s0.6-1.2,0.9-1.2c0.6,0,0.8,0.5,0.8,1.4c0,0.3,0,0.6-0.1,1c-0.7,3.6-1.1,5.7-1.2,6.2
			c-0.1,0.6-0.1,1-0.1,1.2c0,1.1,0.3,1.6,0.8,1.6c0.6,0,1.4-0.8,2.5-2.3c1.1-1.5,2-3.1,2.7-4.6l1.1-2.3h0.9
			c-0.1,0.3-0.3,0.6-0.5,1.1c-0.2,0.5-0.6,1.3-1.3,2.5s-1.2,2.2-1.8,3.1c-0.6,0.9-1.2,1.7-1.9,2.4c-0.7,0.7-1.3,1.1-1.8,1.1
			c-1.7,0-2.5-1.2-2.5-3.6c0-0.8,0.1-1.7,0.3-2.8h-0.2C140.8,111.5,138.9,113.6,137.3,113.6z"/>
	</g>
	<path class="st2" d="M99.3,44.7c0.1-0.1,0.2-0.1,0.3,0.1l0.2,1.7c0,0.2,0.1,0.4,0.3,0.5l1.6,0.8c0.2,0.1,0.2,0.2,0,0.3l-1.6,0.7
		c-0.2,0.1-0.3,0.2-0.3,0.4L99.3,51c0,0.2-0.2,0.2-0.3,0.1l-1.2-1.3c-0.1-0.1-0.3-0.2-0.5-0.2l-1.7,0.2c-0.2,0-0.2-0.1-0.2-0.2
		l0.9-1.5c0.1-0.2,0.1-0.4,0-0.6L95.6,46c-0.1-0.2,0-0.2,0.2-0.2l1.7,0.3c0.2,0,0.4,0,0.5-0.2L99.3,44.7z"/>
	<path class="st2" d="M67.7,53.2c0.1,0,0.1,0,0.1,0.1l-0.4,0.9c0,0.1,0,0.2,0,0.3l0.5,0.9c0.1,0.1,0,0.1-0.1,0.1l-1-0.1
		c-0.1,0-0.2,0-0.3,0.1l-0.7,0.8c-0.1,0.1-0.1,0-0.2,0l-0.2-1c0-0.1-0.1-0.2-0.2-0.2l-0.9-0.4c-0.1,0-0.1-0.1,0-0.2l0.9-0.5
		c0.1-0.1,0.1-0.2,0.2-0.3l0.1-1c0-0.1,0.1-0.1,0.1-0.1l0.8,0.7c0.1,0.1,0.2,0.1,0.3,0.1L67.7,53.2z"/>
	<path class="st2" d="M62,47.7c0.1,0,0.1,0.1,0,0.1l-0.8,0.3c-0.1,0-0.2,0.1-0.2,0.2l-0.2,0.8c0,0.1-0.1,0.1-0.1,0L60,48.5
		c-0.1-0.1-0.2-0.1-0.3-0.1l-0.9,0.1c-0.1,0-0.1,0-0.1-0.1l0.5-0.7c0-0.1,0-0.2,0-0.3l-0.3-0.8c0-0.1,0-0.1,0.1-0.1l0.9,0.2
		c0.1,0,0.2,0,0.3-0.1l0.7-0.5c0.1,0,0.1,0,0.1,0.1l0,0.9c0,0.1,0.1,0.2,0.1,0.2L62,47.7z"/>
	<path class="st2" d="M74.3,44.7c0.1-0.1,0.2-0.1,0.3,0.1l0.2,1.7c0,0.2,0.1,0.4,0.3,0.5l1.6,0.8c0.2,0.1,0.2,0.2,0,0.3L75,48.8
		c-0.2,0.1-0.3,0.2-0.3,0.4L74.3,51c0,0.2-0.2,0.2-0.3,0.1l-1.2-1.3c-0.1-0.1-0.3-0.2-0.5-0.2l-1.7,0.2c-0.2,0-0.2-0.1-0.2-0.2
		l0.9-1.5c0.1-0.2,0.1-0.4,0-0.6L70.6,46c-0.1-0.2,0-0.2,0.2-0.2l1.7,0.3c0.2,0,0.4,0,0.5-0.2L74.3,44.7z"/>
	<path class="st2" d="M53.4,53.8C53.4,53.9,53.4,53.9,53.4,53.8l-0.7-0.1c-0.1,0-0.1,0-0.2,0l-0.5,0.4c0,0-0.1,0-0.1,0l-0.1-0.6
		c0-0.1,0-0.1-0.1-0.2L51.3,53c0,0,0-0.1,0-0.1l0.6-0.2c0.1,0,0.1-0.1,0.1-0.1l0.1-0.6c0-0.1,0-0.1,0.1,0l0.4,0.5
		c0,0.1,0.1,0.1,0.2,0.1h0.6c0.1,0,0.1,0,0,0.1l-0.3,0.5c0,0.1,0,0.1,0,0.2L53.4,53.8z"/>
	<path class="st2" d="M107.7,55.2c0.1,0,0.1,0,0.1,0.1l-0.4,0.9c0,0.1,0,0.2,0,0.3l0.5,0.9c0.1,0.1,0,0.1-0.1,0.1l-1-0.1
		c-0.1,0-0.2,0-0.3,0.1l-0.7,0.8c-0.1,0.1-0.1,0-0.2,0l-0.2-1c0-0.1-0.1-0.2-0.2-0.2l-0.9-0.4c-0.1,0-0.1-0.1,0-0.2l0.9-0.5
		c0.1-0.1,0.1-0.2,0.2-0.3l0.1-1c0-0.1,0.1-0.1,0.1-0.1l0.8,0.7c0.1,0.1,0.2,0.1,0.3,0.1L107.7,55.2z"/>
	<path class="st2" d="M116,51.7c0.1,0,0.1,0.1,0,0.1l-0.8,0.3c-0.1,0-0.2,0.1-0.2,0.2l-0.2,0.8c0,0.1-0.1,0.1-0.1,0l-0.6-0.7
		c-0.1-0.1-0.2-0.1-0.3-0.1l-0.9,0.1c-0.1,0-0.1,0-0.1-0.1l0.5-0.7c0-0.1,0-0.2,0-0.3l-0.3-0.8c0-0.1,0-0.1,0.1-0.1l0.9,0.2
		c0.1,0,0.2,0,0.3-0.1l0.7-0.5c0.1,0,0.1,0,0.1,0.1V51c0,0.1,0.1,0.2,0.1,0.2L116,51.7z"/>
	<path class="st2" d="M125.4,53.8C125.4,53.9,125.4,53.9,125.4,53.8l-0.7-0.1c-0.1,0-0.1,0-0.2,0l-0.4,0.4c0,0-0.1,0-0.1,0l-0.1-0.6
		c0-0.1,0-0.1-0.1-0.2l-0.5-0.3c0,0,0-0.1,0-0.1l0.6-0.2c0.1,0,0.1-0.1,0.1-0.1l0.1-0.6c0-0.1,0-0.1,0.1,0l0.4,0.5
		c0,0.1,0.1,0.1,0.2,0.1h0.6c0.1,0,0.1,0,0.1,0.1l-0.3,0.5c0,0.1,0,0.1,0,0.2L125.4,53.8z"/>
	<path class="st2" d="M109.2,42.1c0-2.7-0.9-4.1-2.6-4.3c0.2-0.5,0.7-0.9,1.2-0.9c1.6,0,2.6,0.9,3.1,2.8c0.2,0.7,0.3,1.3,0.3,2
		c0,1.8-0.5,3.5-1.4,5c-1.9,3.4-6.9,7.5-11,8.3c-1,0.2-2.1,0.3-3.1,0.3c-0.7,0-1.4,0-2.1-0.1c-0.2,3.3-1.5,6.5-3.7,9
		c3.1,3.3,6.3,4.9,9.5,4.9c1.6,0.1,3.1-0.3,4.4-1.1c0.9-0.6,1.4-1.6,1.5-2.7c0-0.1,0.1-0.3,0.2-0.3c0.1-0.1,0.3-0.1,0.4,0
		c0.1,0.1,0.2,0.2,0.2,0.4c-0.1,1.3-0.7,2.5-1.8,3.3c-1.4,1.2-3.2,1.8-5.1,1.6c-3.5,0-7.1-1.6-10.7-4.8c-2.5,2.3-5.8,3.5-9.2,3.4
		c-2.8,0-4.8-0.6-6.2-1.9c-1.4-1.3-2.2-3.2-2.1-5.1c0-2.2,0.8-4.2,2.2-5.9c1.8-2.1,3.8-3.9,6-5.4c-0.6-1.8-1-3.8-1-5.7
		c0-1.5,0.2-2.9,0.6-4.3c0.4-1.3,1.3-2.3,2.4-3c1.3-0.8,2.9-1.2,4.4-1.2c1.4-0.1,2.8,0.3,3.8,1.2c0.8,0.8,1.3,2,1.2,3.2
		c0,0.8-0.1,1.5-0.5,2.2l-0.7,1.3c-0.3,0.4-0.6,0.8-0.9,1.1l-1,1c-0.2,0.2-0.6,0.5-1.2,1l-1.2,0.9l-1.4,1c-0.7,0.5-1.2,0.8-1.3,1
		c1.2,4.8,3.4,9.2,6.6,13c2-2.4,3.2-5.3,3.4-8.4c-2.3-0.7-3.5-1.9-3.5-3.6c0-0.7,0.4-1.3,1-1.6c0.4-0.2,0.9-0.3,1.4-0.3
		c0.6,0,1.1,0.4,1.6,1.3c0.5,1,0.7,2.2,0.7,3.3c0.6,0.1,1.3,0.2,1.9,0.2c4.6,0,10-3.7,12.1-7C108.5,45.7,109.1,44,109.2,42.1z
		 M79.5,67.8c3,0.1,6-1,8.2-3c-3.6-3.5-6.3-7.8-8.1-12.6c-3.9,3.2-5.9,6.6-5.9,10.2c-0.1,1.4,0.4,2.8,1.3,3.8
		C76.3,67.4,77.9,67.9,79.5,67.8z M86.4,37.7c-3.2,0-4.8,2.3-4.8,6.9c0,1.4,0.1,2.7,0.4,4.1c1.9-1.3,3.7-2.7,5.3-4.3
		c1.1-1,1.8-2.5,1.8-4C89.1,38.6,88.2,37.7,86.4,37.7z M91.1,50.7c-0.6,0-0.9,0.3-0.9,1.1s0.8,1.5,2.3,2.1
		C92.4,51.7,91.9,50.7,91.1,50.7L91.1,50.7z"/>
</g>
</svg>
