<svg id="Info" xmlns="http://www.w3.org/2000/svg" viewBox="0 0 180 38"><defs><style>.cls-1,.cls-3{fill:none;stroke:#f6c14d;stroke-linecap:round;stroke-linejoin:round;stroke-width:1.5px;}.cls-2{fill:#f6c14d;}.cls-3{stroke-dasharray:2 3;}</style></defs><title>iconography</title><rect class="cls-1" x="2" y="1.5" width="35" height="35"/><line class="cls-1" x1="7.5" y1="20" x2="31.5" y2="20"/><rect class="cls-1" x="7.5" y="15" width="24" height="16"/><line class="cls-1" x1="7.5" y1="26" x2="31.5" y2="26"/><line class="cls-1" x1="23.5" y1="15" x2="23.5" y2="31"/><line class="cls-1" x1="15.5" y1="15" x2="15.5" y2="31"/><line class="cls-1" x1="2.5" y1="10" x2="36.5" y2="10"/><rect class="cls-1" x="7.7" y="2.3" width="5" height="4"/><rect class="cls-1" x="26.7" y="2.3" width="5" height="4"/><path class="cls-2" d="M58,.41a9.16,9.16,0,0,0-9.16,9.16c0,5.06,10.57,17.74,9.16,16.33-.07-.07,9.16-11.27,9.16-16.33A9.16,9.16,0,0,0,58,.41Zm0,12.75a4,4,0,1,1,4-4A4,4,0,0,1,58,13.16Z"/><polygon class="cls-1" points="75.5 36.5 40.5 36.5 44.5 16.8 71.5 16.8 75.5 36.5"/><path class="cls-3" d="M46.5,32.8s-3.5-7.5,4-8c5-.33,2,7.73,15.5,6.5,3.17-.28,5.47-4.63,3.5-7.5a10.47,10.47,0,0,0-3-3"/><polyline class="cls-1" points="99.2 4.8 105.2 4.8 105.2 36.8 78.2 36.8 78.2 4.8 84.2 4.8"/><rect class="cls-1" x="85.2" y="1.8" width="13" height="8"/><polyline class="cls-1" points="98.63 8.8 101.2 8.8 101.2 32.8 82.2 32.8 82.2 8.8 84.13 8.8"/><line class="cls-1" x1="86.2" y1="13.8" x2="97.2" y2="13.8"/><line class="cls-1" x1="86.2" y1="17.8" x2="97.2" y2="17.8"/><line class="cls-1" x1="86.2" y1="21.8" x2="97.2" y2="21.8"/><line class="cls-1" x1="86.2" y1="25.8" x2="97.2" y2="25.8"/><path class="cls-1" d="M131.53,28.57c2.94.09,3,.16,4.49.16a7.18,7.18,0,0,0,.72-14.32,10.16,10.16,0,0,0,.18-1.84,9.87,9.87,0,0,0-19.48-2.23h-.27a9,9,0,0,0,0,18c1.09,0,1.69,0,3.59.08"/><path class="cls-1" d="M121.81,11.35a5.35,5.35,0,0,1,5.24-4.16"/><line class="cls-1" x1="126.15" y1="18.86" x2="126.15" y2="35.91"/><polyline class="cls-1" points="121.66 22.47 126.13 17.96 130.63 22.43"/><path class="cls-2" d="M174.53,6.47a16.89,16.89,0,0,0-12-5h0a17,17,0,0,0-17,17,17.12,17.12,0,0,0,1.89,7.79l-2.85,8.15a1.57,1.57,0,0,0,1.48,2.09,1.58,1.58,0,0,0,.52-.09l8.15-2.85a17.12,17.12,0,0,0,7.79,1.89,17,17,0,0,0,12-29ZM173.08,29a14.83,14.83,0,0,1-10.55,4.37,15,15,0,0,1-7-1.74,1.59,1.59,0,0,0-1.26-.1l-7.4,2.59,2.59-7.4a1.58,1.58,0,0,0-.1-1.26,15,15,0,0,1-1.74-7A14.92,14.92,0,0,1,162.53,3.55h0A14.92,14.92,0,0,1,173.08,29Z"/><path class="cls-2" d="M168.83,20A2,2,0,0,0,166,20l-.85.85a12.36,12.36,0,0,1-5-5L161,15a2,2,0,0,0,0-2.83l-2.3-2.31a2,2,0,0,0-2.83,0L154,11.7c-1.06,1.06-1.11,2.87-.15,5.11a20.08,20.08,0,0,0,4.29,6,20.08,20.08,0,0,0,6,4.29,7.33,7.33,0,0,0,2.87.68A3,3,0,0,0,169.3,27l1.84-1.84h0a2,2,0,0,0,0-2.83Zm-1,5.52c-.3.3-1.22.41-2.84-.28a18.36,18.36,0,0,1-5.37-3.86A18.36,18.36,0,0,1,155.77,16c-.69-1.62-.58-2.54-.28-2.84l1.8-1.81,2.23,2.23-1.07,1.07a1.57,1.57,0,0,0-.29,1.82,14.53,14.53,0,0,0,6.37,6.37,1.57,1.57,0,0,0,1.82-.29l1.07-1.07,2.23,2.23Z"/></svg>