<svg id="Info" xmlns="http://www.w3.org/2000/svg" viewBox="0 0 200 200"><defs><style>.cls-1{fill:none;}.cls-1,.cls-2{stroke:#f6c14d;stroke-linecap:round;stroke-linejoin:round;stroke-width:2px;}.cls-2,.cls-3{fill:#fff;}.cls-4{fill:#f6c14d;}</style></defs><title>illus-photo</title><rect class="cls-1" x="32.09" y="-11.09" width="109" height="156.18" transform="translate(143.34 -26.63) rotate(83.49)"/><rect class="cls-1" x="16.63" y="20.63" width="139.91" height="92.73" transform="translate(-7.04 10.25) rotate(-6.51)"/><rect class="cls-2" x="57.09" y="53.91" width="109" height="156.18" transform="translate(257.59 39.48) rotate(97.85)"/><rect class="cls-1" x="41.63" y="85.63" width="139.91" height="92.73" transform="translate(19.07 -14) rotate(7.85)"/><rect class="cls-3" x="79.86" y="39.13" width="100.37" height="59.31" rx="5" transform="matrix(0.99, -0.13, 0.13, 0.99, -7.63, 16.92)"/><rect class="cls-1" x="79.86" y="39.13" width="100.37" height="59.31" rx="5" transform="matrix(0.99, -0.13, 0.13, 0.99, -7.63, 16.92)"/><circle class="cls-1" cx="130" cy="68.41" r="24.71"/><circle class="cls-1" cx="130" cy="68.41" r="18.9"/><path class="cls-1" d="M117,70.06a13.1,13.1,0,0,1,11.33-14.63"/><path class="cls-1" d="M98,43l-.49-3.81a3,3,0,0,0-3.35-2.6l-7.63,1A3,3,0,0,0,84,40.87l.49,3.81"/><polyline class="cls-1" points="149.32 36.45 139.3 23.92 109.88 27.66 103.31 42.29"/><line class="cls-1" x1="115.27" y1="33.87" x2="134.13" y2="31.48"/><line class="cls-1" x1="78.53" y1="58.46" x2="109.46" y2="54.54"/><line class="cls-1" x1="146.42" y1="49.85" x2="177.35" y2="45.92"/><line class="cls-1" x1="82.74" y1="91.66" x2="113.67" y2="87.73"/><line class="cls-1" x1="150.64" y1="83.04" x2="181.57" y2="79.11"/><path class="cls-3" d="M15.91,151.52a1.23,1.23,0,0,1-1.21-1.23l-.21-3.08h0s0,0-.05-.06l-2.63-1.55a1.3,1.3,0,0,1-.67-1.2,1.28,1.28,0,0,1,.85-1.07l2.86-1.15s0,0,0-.07l.67-3a1.24,1.24,0,0,1,1.21-1,1.32,1.32,0,0,1,1,.5l2,2.37.08,0,3-.29H23a1.27,1.27,0,0,1,1.13.63,1.29,1.29,0,0,1-.08,1.32l-1.64,2.62h0v.07l1.21,2.8a1.31,1.31,0,0,1-.07,1.25,1.21,1.21,0,0,1-1,.54,1.73,1.73,0,0,1-.38,0l-3-.76s-.05,0-.07,0l-2.29,2A1.31,1.31,0,0,1,15.91,151.52Z"/><path class="cls-4" d="M16.77,139.1a.32.32,0,0,1,.24.14l2,2.37a1.16,1.16,0,0,0,.83.38h.06L23,141.7H23c.26,0,.35.18.2.42l-1.64,2.61a1.18,1.18,0,0,0-.08,1l1.22,2.84c.11.23,0,.39-.18.39l-.13,0-3-.76-.21,0a1.24,1.24,0,0,0-.74.25l-2.32,2a.37.37,0,0,1-.23.11c-.12,0-.2-.11-.22-.3l-.2-3.08a1.15,1.15,0,0,0-.51-.82l-2.66-1.58c-.26-.15-.24-.37,0-.48l2.87-1.15a1.22,1.22,0,0,0,.63-.74l.68-3c0-.17.12-.26.23-.26m0-2a2.25,2.25,0,0,0-2.19,1.82L14,141.44l-2.4,1a2.23,2.23,0,0,0-.32,4.06l2.23,1.32.17,2.58a2.24,2.24,0,0,0,2.21,2.16,2.3,2.3,0,0,0,1.55-.61l1.94-1.7,2.51.63a2.64,2.64,0,0,0,.62.08,2.23,2.23,0,0,0,1.87-1,2.27,2.27,0,0,0,.15-2.19l-1-2.38,1.37-2.18a2.27,2.27,0,0,0,.11-2.34,2.23,2.23,0,0,0-2-1.15l-.24,0-2.57.23-1.66-2a2.31,2.31,0,0,0-1.77-.86Z"/><path class="cls-3" d="M175.18,27.87a1.26,1.26,0,0,1-1.1-.67l-1.58-2.65h0l-.07,0-3-.2a1.27,1.27,0,0,1-1.14-.76,1.25,1.25,0,0,1,.26-1.34l2-2.33h0a.56.56,0,0,0,0-.07l-.76-3a1.32,1.32,0,0,1,.21-1.15,1.19,1.19,0,0,1,.95-.45,1.46,1.46,0,0,1,.57.12l2.84,1.21L177,15a1.4,1.4,0,0,1,.75-.23,1.18,1.18,0,0,1,.88.39,1.35,1.35,0,0,1,.32,1l-.28,3.07h0s0,.05,0,.07l2.35,1.94a1.28,1.28,0,0,1,.48,1.29,1.3,1.3,0,0,1-1,.93l-3,.69s0,0-.05.06L176.35,27A1.26,1.26,0,0,1,175.18,27.87Z"/><path class="cls-4" d="M177.75,15.72c.14,0,.22.12.2.33l-.28,3.07a1.18,1.18,0,0,0,.38.9l2.37,2c.23.2.18.41-.11.48l-3,.68a1.17,1.17,0,0,0-.74.63l-1.14,2.87c-.06.15-.15.22-.24.22a.31.31,0,0,1-.24-.18L173.35,24a1.17,1.17,0,0,0-.83-.51l-3.08-.2c-.3,0-.38-.22-.18-.44l2-2.33a1.14,1.14,0,0,0,.22-.94l-.76-3c-.06-.23,0-.36.19-.36a.45.45,0,0,1,.18,0L174,17.52a1,1,0,0,0,.39.07,1.21,1.21,0,0,0,.58-.14l2.61-1.65a.4.4,0,0,1,.21-.08m0-2h0a2.4,2.4,0,0,0-1.28.39l-2.19,1.38-2.37-1a2.55,2.55,0,0,0-1-.2,2.17,2.17,0,0,0-1.74.84,2.33,2.33,0,0,0-.39,2l.64,2.5-1.7,1.95a2.23,2.23,0,0,0,1.56,3.76l2.58.17,1.33,2.22a2.28,2.28,0,0,0,2,1.15,2.25,2.25,0,0,0,2.1-1.48l.95-2.4,2.52-.57a2.24,2.24,0,0,0,.95-4l-2-1.65.23-2.57a2.32,2.32,0,0,0-.58-1.8,2.19,2.19,0,0,0-1.61-.71Z"/></svg>