<svg xmlns="http://www.w3.org/2000/svg" viewBox="0 0 704.58 527.98"><defs><style>.cls-1{fill:none;stroke:#f6c14d;stroke-linecap:round;stroke-linejoin:round;stroke-width:15px;}</style></defs><title>Artboard 3</title><g id="Layer_1" data-name="Layer 1"><path class="cls-1" d="M309.21,94.76c-98,20-171.95,106.87-171.95,210.69,0,118.57,96.46,215,215,215s215-96.46,215-215c0-96.46-63.85-178.29-151.5-205.45q-8.55-2.66-17.39-4.59M351.91,469.87a161.44,161.44,0,1,1,0-322.87c85.68,0,161.44,72.28,161.44,161.44A161.43,161.43,0,0,1,351.91,469.87Z"/><polygon class="cls-1" points="455.08 57.78 249.5 57.78 275.58 7.5 429 7.5 455.08 57.78"/><polygon class="cls-1" points="249.5 57.78 455.08 57.78 352.29 121.45 249.5 57.78"/><polygon class="cls-1" points="249.5 57.78 455.08 57.78 352.29 7.5 249.5 57.78"/><line class="cls-1" x1="81.95" y1="209.6" x2="12.53" y2="209.6"/><line class="cls-1" x1="692.05" y1="209.6" x2="622.63" y2="209.6"/><line class="cls-1" x1="619.29" y1="61.54" x2="562.9" y2="102.04"/><line class="cls-1" x1="85.29" y1="61.54" x2="141.68" y2="102.04"/></g></svg>