<svg id="Info" xmlns="http://www.w3.org/2000/svg" viewBox="0 0 100 38"><defs><style>.cls-1{fill:#f6c14d;}.cls-2,.cls-3,.cls-4{fill:none;stroke-linecap:round;stroke-linejoin:round;stroke-width:1.33px;}.cls-2{stroke:#f6c14d;}.cls-3{stroke:#fff;}.cls-4{stroke:#1c3664;}.cls-5{fill:#fff;}.cls-6{fill:#1c3664;}</style></defs><title>sprite</title><path class="cls-1" d="M14.62-.1a4.31,4.31,0,0,0-4.31,4.31c0,2.38,3.38,7.69,4.31,7.69s4.32-5.31,4.32-7.69A4.32,4.32,0,0,0,14.62-.1Zm0,6A1.88,1.88,0,1,1,16.5,4,1.88,1.88,0,0,1,14.62,5.9Z"/><polyline class="cls-2" points="1.6 1 6.63 5.98 1.65 11"/><polyline class="cls-3" points="1.66 14 6.69 18.98 1.71 24"/><polyline class="cls-4" points="1.66 27 6.69 31.98 1.71 37"/><path class="cls-5" d="M14.62,13a4.31,4.31,0,0,0-4.31,4.31c0,2.38,3.38,7.69,4.31,7.69s4.32-5.31,4.32-7.69A4.32,4.32,0,0,0,14.62,13Zm0,6a1.88,1.88,0,1,1,1.88-1.88A1.88,1.88,0,0,1,14.62,19Z"/><path class="cls-6" d="M14.62,25.9a4.31,4.31,0,0,0-4.31,4.31c0,2.38,3.38,7.69,4.31,7.69s4.32-5.31,4.32-7.69A4.32,4.32,0,0,0,14.62,25.9Zm0,6A1.88,1.88,0,1,1,16.5,30,1.88,1.88,0,0,1,14.62,31.9Z"/></svg>